<?xml version="1.0" encoding="UTF-8" standalone="no"?>
<!-- Created with Inkscape (http://www.inkscape.org/) -->

<svg
   width="1000"
   height="1000"
   viewBox="0 0 264.58333 264.58333"
   version="1.1"
   id="svg5"
   inkscape:version="1.2.2 (732a01da63, 2022-12-09)"
   sodipodi:docname="LR Base.svg"
   inkscape:export-filename="LR Base.png"
   inkscape:export-xdpi="96"
   inkscape:export-ydpi="96"
   xmlns:inkscape="http://www.inkscape.org/namespaces/inkscape"
   xmlns:sodipodi="http://sodipodi.sourceforge.net/DTD/sodipodi-0.dtd"
   xmlns:xlink="http://www.w3.org/1999/xlink"
   xmlns="http://www.w3.org/2000/svg"
   xmlns:svg="http://www.w3.org/2000/svg">
  <sodipodi:namedview
     id="namedview7"
     pagecolor="#9f9f9f"
     bordercolor="#e73030"
     borderopacity="1"
     inkscape:showpageshadow="false"
     inkscape:pageopacity="0"
     inkscape:pagecheckerboard="true"
     inkscape:deskcolor="#2f2f2f"
     inkscape:document-units="mm"
     showgrid="false"
     showborder="true"
     inkscape:zoom="1.0066639"
     inkscape:cx="583.6109"
     inkscape:cy="485.76294"
     inkscape:window-width="1366"
     inkscape:window-height="745"
     inkscape:window-x="-8"
     inkscape:window-y="-8"
     inkscape:window-maximized="1"
     inkscape:current-layer="layer1" />
  <defs
     id="defs2">
    <inkscape:path-effect
       effect="powerclip"
       id="path-effect3908"
       is_visible="true"
       lpeversion="1"
       inverse="true"
       flatten="false"
       hide_clip="false"
       message="Utilice la regla de relleno parimpar en el diálogo &lt;b&gt;Relleno y borde&lt;/b&gt; si el resultado no está aplanada después de convertir el recorte en trayectos." />
    <linearGradient
       inkscape:collect="always"
       id="linearGradient975">
      <stop
         style="stop-color:#d8f0b5;stop-opacity:1;"
         offset="0"
         id="stop971" />
      <stop
         style="stop-color:#a18181;stop-opacity:1;"
         offset="1"
         id="stop973" />
    </linearGradient>
    <radialGradient
       inkscape:collect="always"
       xlink:href="#linearGradient975"
       id="radialGradient977"
       cx="132.29167"
       cy="132.29167"
       fx="132.29167"
       fy="132.29167"
       r="132.29167"
       gradientUnits="userSpaceOnUse"
       gradientTransform="translate(-1.5088542e-5,-1.0629069e-5)" />
    <clipPath
       clipPathUnits="userSpaceOnUse"
       id="clipPath3122">
      <use
         x="0"
         y="0"
         xlink:href="#g3118"
         id="use3124" />
    </clipPath>
    <clipPath
       clipPathUnits="userSpaceOnUse"
       id="clipPath3126">
      <g
         id="g3132"
         clip-path="url(#clipPath3122)">
        <g
           inkscape:label="Clip"
           id="g3130">
          <use
             x="0"
             y="0"
             xlink:href="#g3071"
             id="use3128" />
        </g>
      </g>
    </clipPath>
    <clipPath
       clipPathUnits="userSpaceOnUse"
       id="clipPath3892">
      <g
         id="g3898"
         clip-path="none"
         transform="translate(-0.37170019,0.74340077)">
        <g
           inkscape:label="Clip"
           id="g3896">
          <path
             style="fill:#2c1a1a;fill-opacity:1;stroke:none;stroke-width:5.192;stroke-linecap:round;stroke-linejoin:round"
             d="M 140.13104,129.16588 V 91.995843 c 0,0 28.51938,-3.326973 28.79564,16.274517 0.27626,19.60149 -28.79564,20.89552 -28.79564,20.89552 z"
             id="path3894"
             sodipodi:nodetypes="cczc" />
        </g>
      </g>
    </clipPath>
    <clipPath
       clipPathUnits="userSpaceOnUse"
       id="clipPath3900">
      <g
         id="g3906"
         clip-path="none"
         transform="translate(-0.37170019,0.74340077)"
         style="display:none">
        <g
           inkscape:label="Clip"
           id="g3904">
          <path
             style="fill:#2c1a1a;fill-opacity:1;stroke:none;stroke-width:5.192;stroke-linecap:round;stroke-linejoin:round"
             d="M 140.13104,129.16588 V 91.995843 c 0,0 28.51938,-3.326973 28.79564,16.274517 0.27626,19.60149 -28.79564,20.89552 -28.79564,20.89552 z"
             id="path3902"
             sodipodi:nodetypes="cczc" />
        </g>
      </g>
      <path
         id="lpe_path-effect3908"
         class="powerclip"
         d="m 127.29166,81.18876 h 52.05171 v 104.11389 h -52.05171 z m 12.83938,47.97712 c 0,0 29.0719,-1.29403 28.79564,-20.89552 -0.27626,-19.60149 -28.79564,-16.274517 -28.79564,-16.274517 z" />
    </clipPath>
  </defs>
  <g
     inkscape:label="Capa 1"
     inkscape:groupmode="layer"
     id="layer1">
    <rect
       style="fill:url(#radialGradient977);fill-opacity:1;stroke-width:5.192;stroke-linecap:round;stroke-linejoin:round"
       id="rect288"
       width="264.58334"
       height="264.58334"
       x="-1.0172526e-05"
       y="-1.0172526e-05" />
    <path
       style="fill:#232323;fill-opacity:1;stroke:none;stroke-width:5.192;stroke-linecap:round;stroke-linejoin:round"
       d="m 81.469662,87.679063 c -0.444725,0.410618 -0.51745,0.854206 -0.51745,0.854206 v 88.648261 c 0,0 0.438553,1.55205 1.018473,2.1355 0.579921,0.58345 2.29978,0.98562 2.29978,0.98562 h 34.069575 c 0,0 2.27491,-0.37204 3.74536,-1.80697 1.47045,-1.43493 1.97124,-3.15398 1.97124,-3.15398 l 0,-6.07799 H 91.465486 l 0.130653,-80.795366 c 0,0 -0.08676,-0.491479 -0.501769,-0.868376 -0.415011,-0.376897 -0.964702,-0.339793 -0.964702,-0.339793 h -7.600464 c 0,0 -0.614816,0.0083 -1.059542,0.418888 z"
       id="path1199"
       sodipodi:nodetypes="zcczcczcccczccz" />
    <g
       id="g3106"
       clip-path="url(#clipPath3900)"
       inkscape:path-effect="#path-effect3908">
      <g
         inkscape:label="Clip"
         id="g3104">
        <path
           style="fill:#232323;fill-opacity:1;stroke:none;stroke-width:5.192;stroke-linecap:round;stroke-linejoin:round"
           d="m 133.01183,86.650242 c -0.63659,0.604712 -0.72017,1.291745 -0.72017,1.291745 l 1e-5,89.140973 c 0,0 0.0699,1.50021 0.55852,2.10265 0.48861,0.60245 2.21253,1.11704 2.21253,1.11704 h 5.44002 v -43.14521 l 24.48147,42.40315 h 8.97156 l -25.16109,-43.5803 c 0,0 -0.11744,-0.48946 -0.01,-0.7514 0.1074,-0.26194 0.407,-0.4793 0.64642,-0.6504 5.25541,-0.92141 24.29827,-5.66164 24.90203,-26.03638 C 175.03378,84.897508 139.5311,86.208848 139.5311,86.208848 h -4.9291 c 0,0 -0.95357,-0.163318 -1.59017,0.441394 z"
           id="path1201"
           sodipodi:nodetypes="zcczcccccczcsccz"
           inkscape:original-d="m 133.01183,86.650242 c -0.63659,0.604712 -0.72017,1.291745 -0.72017,1.291745 l 1e-5,89.140973 c 0,0 0.0699,1.50021 0.55852,2.10265 0.48861,0.60245 2.21253,1.11704 2.21253,1.11704 h 5.44002 v -43.14521 l 24.48147,42.40315 h 8.97156 l -25.16109,-43.5803 c 0,0 -0.11744,-0.48946 -0.01,-0.7514 0.1074,-0.26194 0.407,-0.4793 0.64642,-0.6504 5.25541,-0.92141 24.29827,-5.66164 24.90203,-26.03638 C 175.03378,84.897508 139.5311,86.208848 139.5311,86.208848 h -4.9291 c 0,0 -0.95357,-0.163318 -1.59017,0.441394 z" />
      </g>
    </g>
    <rect
       style="fill:#313131;fill-opacity:1;stroke:none;stroke-width:5.192;stroke-linecap:round;stroke-linejoin:round"
       id="rect4694"
       width="22.537832"
       height="22.537832"
       x="93.830971"
       y="144.4261" />
    <path
       style="fill:#4f4f4f;fill-opacity:1;stroke:none;stroke-width:5.192;stroke-linecap:round;stroke-linejoin:round"
       d="m 93.83097,144.4261 h 22.53783 v 3.04602 h -1.0023 v -1.76557 h -0.65047 v 2.32312 h -0.78986 v -1.39387 h -0.83633 v 3.3453 h -0.46463 v -1.8585 h -1.1151 v 2.50898 h -0.7434 v -4.55333 h -1.1151 v 5.2038 h -0.78986 v -2.9736 h -1.16157 v 3.53115 h -0.69693 v -1.99789 h -0.7434 v 2.50898 h -0.51109 v -1.62619 l -0.64887,0.0465 v 2.04436 h -0.83793 v -5.99367 h -0.41817 v 1.1151 h -0.65047 v -1.20803 h -0.97572 v 3.02007 h -0.60401 v -1.8585 h -0.97571 v 1.62619 h -0.55756 v -2.64837 h -1.068632 v 6.08659 H 97.98951 v -5.48258 h -0.650475 v 4.27456 h -0.882788 v -5.15734 h -1.115102 v 3.48469 H 93.83097 Z"
       id="path4750" />
  </g>
</svg>
