<?xml version="1.0" encoding="UTF-8" standalone="no"?>
<!-- Created with Inkscape (http://www.inkscape.org/) -->

<svg
   width="1920"
   height="1080"
   viewBox="0 0 507.99999 285.75"
   version="1.1"
   id="svg5"
   inkscape:version="1.2.2 (732a01da63, 2022-12-09)"
   sodipodi:docname="LR TITLE.svg"
   xmlns:inkscape="http://www.inkscape.org/namespaces/inkscape"
   xmlns:sodipodi="http://sodipodi.sourceforge.net/DTD/sodipodi-0.dtd"
   xmlns="http://www.w3.org/2000/svg"
   xmlns:svg="http://www.w3.org/2000/svg">
  <sodipodi:namedview
     id="namedview7"
     pagecolor="#ffffff"
     bordercolor="#af0000"
     borderopacity="1"
     inkscape:showpageshadow="false"
     inkscape:pageopacity="0.0"
     inkscape:pagecheckerboard="0"
     inkscape:deskcolor="#1c1c1c"
     inkscape:document-units="mm"
     showgrid="false"
     inkscape:zoom="0.35590942"
     inkscape:cx="1139.3348"
     inkscape:cy="469.22051"
     inkscape:window-width="1366"
     inkscape:window-height="745"
     inkscape:window-x="-8"
     inkscape:window-y="-8"
     inkscape:window-maximized="1"
     inkscape:current-layer="layer2" />
  <defs
     id="defs2">
    <inkscape:path-effect
       effect="powerclip"
       id="path-effect7893"
       is_visible="true"
       lpeversion="1"
       inverse="true"
       flatten="false"
       hide_clip="false"
       message="Utilice la regla de relleno parimpar en el diálogo &lt;b&gt;Relleno y borde&lt;/b&gt; si el resultado no está aplanada después de convertir el recorte en trayectos." />
    <inkscape:path-effect
       effect="powerclip"
       id="path-effect7881"
       is_visible="true"
       lpeversion="1"
       inverse="true"
       flatten="false"
       hide_clip="false"
       message="Utilice la regla de relleno parimpar en el diálogo &lt;b&gt;Relleno y borde&lt;/b&gt; si el resultado no está aplanada después de convertir el recorte en trayectos." />
    <inkscape:path-effect
       effect="powerclip"
       id="path-effect7872"
       is_visible="true"
       lpeversion="1"
       inverse="true"
       flatten="false"
       hide_clip="false"
       message="Utilice la regla de relleno parimpar en el diálogo &lt;b&gt;Relleno y borde&lt;/b&gt; si el resultado no está aplanada después de convertir el recorte en trayectos." />
    <clipPath
       clipPathUnits="userSpaceOnUse"
       id="clipPath7877">
      <path
         style="display:none;opacity:0.769841;fill:#cb6b6b;fill-opacity:1;stroke-width:5.192;stroke-linecap:round;stroke-linejoin:round"
         d="m 81.343841,140.63167 c -0.654304,0.61179 -0.720169,1.49726 -0.720169,1.49726 v 17.41001 c 0,0 0.06386,0.98377 0.574945,1.49486 0.511087,0.51108 1.527712,0.73921 1.527712,0.73921 h 12.944467 c 0,0 12.309524,0.17179 12.024554,-11.17036 -0.28497,-11.34215 -12.74734,-10.57898 -12.74734,-10.57898 l -11.780057,-0.054 c 0,0 -1.169808,0.0502 -1.824112,0.662 z"
         id="path7879"
         sodipodi:nodetypes="zcczcczccz" />
      <path
         id="lpe_path-effect7881"
         style="display:block;opacity:0.769841;fill:#cb6b6b;fill-opacity:1;stroke-width:5.192;stroke-linecap:round;stroke-linejoin:round"
         class="powerclip"
         d="m 69.152304,128.56791 h 50.263786 v 74.29682 H 69.152304 Z m 12.191537,12.06376 c -0.654304,0.61179 -0.720169,1.49726 -0.720169,1.49726 v 17.41001 c 0,0 0.06386,0.98377 0.574945,1.49486 0.511087,0.51108 1.527712,0.73921 1.527712,0.73921 h 12.944467 c 0,0 12.309524,0.17179 12.024554,-11.17036 -0.28497,-11.34215 -12.74734,-10.57898 -12.74734,-10.57898 l -11.780057,-0.054 c 0,0 -1.169808,0.0502 -1.824112,0.662 z" />
    </clipPath>
    <clipPath
       clipPathUnits="userSpaceOnUse"
       id="clipath_lpe_path-effect7893">
      <path
         style="display:none;opacity:0.769841;fill:#cb6b6b;fill-opacity:1;stroke-width:5.192;stroke-linecap:round;stroke-linejoin:round"
         d="m 81.343841,140.63167 c -0.654304,0.61179 -0.720169,1.49726 -0.720169,1.49726 v 17.41001 c 0,0 0.06386,0.98377 0.574945,1.49486 0.511087,0.51108 1.527712,0.73921 1.527712,0.73921 h 12.944467 c 0,0 12.309524,0.17179 12.024554,-11.17036 -0.28497,-11.34215 -12.74734,-10.57898 -12.74734,-10.57898 l -11.780057,-0.054 c 0,0 -1.169808,0.0502 -1.824112,0.662 z"
         id="path7895"
         sodipodi:nodetypes="zcczcczccz" />
      <path
         id="lpe_path-effect7893"
         style="display:block;opacity:0.769841;fill:#cb6b6b;fill-opacity:1;stroke-width:5.192;stroke-linecap:round;stroke-linejoin:round"
         class="powerclip"
         d="m 69.152304,128.56791 h 50.263786 v 74.29682 H 69.152304 Z m 12.191537,12.06376 c -0.654304,0.61179 -0.720169,1.49726 -0.720169,1.49726 v 17.41001 c 0,0 0.06386,0.98377 0.574945,1.49486 0.511087,0.51108 1.527712,0.73921 1.527712,0.73921 h 12.944467 c 0,0 12.309524,0.17179 12.024554,-11.17036 -0.28497,-11.34215 -12.74734,-10.57898 -12.74734,-10.57898 l -11.780057,-0.054 c 0,0 -1.169808,0.0502 -1.824112,0.662 z" />
    </clipPath>
  </defs>
  <g
     inkscape:label="Capa 1"
     inkscape:groupmode="layer"
     id="layer1"
     sodipodi:insensitive="true"
     style="display:none;opacity:0.240741">
    <text
       xml:space="preserve"
       style="font-size:89.4227px;line-height:0.8;font-family:'Century Gothic';-inkscape-font-specification:'Century Gothic, Normal';fill:#4f4f4f;stroke-width:41.3522;stroke-linecap:round;stroke-linejoin:round"
       x="66.018829"
       y="126.37621"
       id="text344"><tspan
         sodipodi:role="line"
         id="tspan342"
         style="stroke-width:41.3522"
         x="66.018829"
         y="126.37621">   LITTLE</tspan><tspan
         sodipodi:role="line"
         style="stroke-width:41.3522"
         x="66.018829"
         y="197.91437"
         id="tspan346">REGRESS</tspan></text>
  </g>
  <g
     inkscape:groupmode="layer"
     id="layer2"
     inkscape:label="Capa 2"
     style="opacity:1">
    <path
       style="opacity:1;fill:#e8ecdf;fill-opacity:1;stroke:#e1e7d5;stroke-width:5.192;stroke-linecap:round;stroke-linejoin:round;stroke-opacity:1"
       d="m 46.784069,207.1115 c 10.431671,15.23463 56.832641,28.73445 82.529201,27.86018 25.69656,-0.87427 33.36493,-21.50022 62.02832,-25.75752 28.66339,-4.2573 75.97487,11.58751 106.18406,10.51327 30.20919,-1.07424 48.99493,-15.29959 73.59293,-12.61593 24.598,2.68366 44.21899,35.51074 68.33629,27.86018 24.1173,-7.65056 42.05308,-6.54931 42.05308,-65.70797 0,-59.15866 -30.4492,-20.97457 -32.06549,-38.37345 C 447.82617,113.49138 487.884,101.87894 476.25132,81.477875 464.61864,61.076808 405.76119,95.283304 391.61947,78.323894 377.47775,61.364484 408.93672,45.315287 398.4531,31.014159 387.96948,16.713031 357.54991,25.663228 340.63008,21.552212 323.71025,17.441196 315.20414,6.3376688 297,7.3592919 278.79586,8.380915 258.91106,32.696356 239.17699,33.642477 219.44292,34.588598 213.1411,16.722443 187.13628,15.769911 161.13146,14.817379 99.916288,19.247146 89.362832,41.527433 78.809376,63.80772 112.10813,68.581651 108.81239,84.106193 105.51665,99.630735 86.700666,107.82275 72.541592,116.17168 c -14.159074,8.34893 -40.396855,0.65274 -47.309734,16.82124 -6.912879,16.1685 20.13905,37.53435 22.603541,50.46372 2.464491,12.92937 -11.483001,8.42023 -1.05133,23.65486 z"
       id="path17797"
       sodipodi:nodetypes="zzzzzzzzzzzzzzzzzzzzz" />
    <path
       style="opacity:1;fill:#5fb9c6;fill-opacity:1;stroke-width:6.03245;stroke-linecap:round;stroke-linejoin:round"
       d="m 171.90011,42.141407 c -0.89552,0.720063 -1.07968,1.96549 -1.07968,1.96549 v 59.748133 c 0,0 -0.16855,0.99293 0.91772,1.94341 1.08629,0.95049 2.01336,0.67104 2.01336,0.67104 l 2.00849,-0.002 c 0,0 0.76588,0.21615 1.79422,-0.83997 1.02834,-1.05613 0.72877,-1.93387 0.72877,-1.93387 V 44.025923 c 0,0 -0.069,-1.217356 -0.89073,-1.911264 -0.82171,-0.693907 -1.87524,-0.782853 -1.87524,-0.782853 l -1.80846,-5.9e-5 c 0,0 -0.91294,0.0896 -1.80845,0.80966 z"
       id="path4870"
       sodipodi:nodetypes="zcczcczcczccz" />
    <path
       style="opacity:1;fill:#5fb9c6;fill-opacity:1;stroke-width:6.03245;stroke-linecap:round;stroke-linejoin:round"
       d="m 191.62486,42.009584 c 0.7913,-0.769233 1.73376,-0.648927 1.73376,-0.648927 h 35.65619 c 0,0 1.47838,-0.05183 2.07004,0.539835 0.59168,0.591669 0.62081,1.789773 0.62081,1.789773 v 2.510239 c 0,0 -0.21617,1.063524 -0.78276,1.792057 -0.56658,0.728533 -2.07004,0.620812 -2.07004,0.620812 h -11.40451 c 0,0 -1.01156,-0.0685 -1.68861,0.539836 -0.67704,0.608336 -0.62081,1.559636 -0.62081,1.559636 l -0.86374,52.819455 c 0,0 -0.0597,1.1192 -0.83979,1.94485 -0.78006,0.82566 -2.01925,1.03065 -2.01925,1.03065 h -2.13236 c 0,0 -1.10535,-0.2042 -1.84142,-0.99247 -0.73606,-0.78829 -0.80161,-1.95603 -0.80161,-1.95603 l 0.86374,-52.369303 c 0,0 0.11892,-1.072075 -0.67479,-1.825483 -0.79373,-0.753408 -1.82549,-0.674796 -1.82549,-0.674796 h -11.64504 c 0,0 -0.88257,0.06921 -1.77249,-0.744358 -0.88992,-0.813572 -0.72527,-1.717863 -0.72527,-1.717863 v -2.591216 c 0,0 -0.0279,-0.857464 0.76344,-1.626697 z"
       id="path5662"
       sodipodi:nodetypes="zcczcczcczcczcczcczcczccz" />
    <path
       style="opacity:1;fill:#5fb9c6;fill-opacity:1;stroke-width:6.03245;stroke-linecap:round;stroke-linejoin:round"
       d="m 244.1432,42.009584 c 0.7913,-0.769233 1.73376,-0.648927 1.73376,-0.648927 h 35.65619 c 0,0 1.47838,-0.05183 2.07004,0.539835 0.59168,0.591669 0.62082,1.789773 0.62082,1.789773 v 2.510239 c 0,0 -0.21618,1.063524 -0.78277,1.792057 -0.56658,0.728533 -2.07004,0.620812 -2.07004,0.620812 h -11.40451 c 0,0 -1.01156,-0.0685 -1.68861,0.539836 -0.67704,0.608336 -0.62081,1.559636 -0.62081,1.559636 l -0.86374,52.819455 c 0,0 -0.0597,1.1192 -0.83979,1.94485 -0.78006,0.82566 -2.01925,1.03065 -2.01925,1.03065 h -2.13236 c 0,0 -1.10534,-0.2042 -1.84142,-0.99247 -0.73605,-0.78829 -0.80161,-1.95603 -0.80161,-1.95603 l 0.86374,-52.369303 c 0,0 0.11892,-1.072075 -0.67479,-1.825483 -0.79373,-0.753408 -1.82549,-0.674796 -1.82549,-0.674796 h -11.64504 c 0,0 -0.88257,0.06921 -1.77248,-0.744358 -0.88993,-0.813572 -0.72528,-1.717863 -0.72528,-1.717863 v -2.591216 c 0,0 -0.0279,-0.857464 0.76344,-1.626697 z"
       id="path5664"
       sodipodi:nodetypes="zcczcczcczcczcczcczcczccz" />
    <path
       style="opacity:1;fill:#5fb9c6;fill-opacity:1;stroke-width:6.03245;stroke-linecap:round;stroke-linejoin:round"
       d="m 292.67161,41.96111 c -0.68028,0.6802 -0.64812,2.222572 -0.64812,2.222572 l -0.008,48.054662 c 0,0 -0.33417,3.23285 4.35713,8.600496 4.69129,5.36767 8.83997,5.65957 8.83997,5.65957 h 13.21266 c 0,0 0.66717,0.10318 1.14175,-0.3745 0.47459,-0.4777 0.34531,-1.13478 0.34531,-1.13478 l 0.003,-4.51694 c 0,0 0.0602,-0.40866 -0.39225,-0.809836 -0.45244,-0.40116 -0.79995,-0.36667 -0.79995,-0.36667 l -7.66318,0.0123 c 0,0 -5.05405,-0.87567 -8.2454,-4.53705 -3.19136,-3.66138 -3.28799,-7.56834 -3.28799,-7.56834 l -0.008,-42.937895 c 0,0 0.14256,-1.504236 -0.72918,-2.290093 -0.87176,-0.785855 -2.21837,-0.620797 -2.21837,-0.620797 l -1.60602,8e-6 c 0,0 -1.61403,-0.07287 -2.29431,0.607329 z"
       id="path5666"
       sodipodi:nodetypes="zcczcczcczcczcczcczz" />
    <path
       style="opacity:1;fill:#5fb9c6;fill-opacity:1;stroke-width:6.91194;stroke-linecap:round;stroke-linejoin:round"
       d="m 132.11289,38.164933 c -0.77946,0.779369 -0.7426,2.546609 -0.7426,2.546609 l -0.009,55.060712 c 0,0 -0.38288,3.70418 4.99238,9.854396 5.37524,6.15023 10.12877,6.4847 10.12877,6.4847 h 15.13898 c 0,0 0.76444,0.11821 1.30821,-0.42912 0.54378,-0.54733 0.39566,-1.30022 0.39566,-1.30022 l 0.003,-5.17547 c 0,0 0.069,-0.46825 -0.44943,-0.92791 -0.5184,-0.45965 -0.91658,-0.42013 -0.91658,-0.42013 l -8.78043,0.0141 c 0,0 -5.79088,-1.00334 -9.44752,-5.198516 -3.65663,-4.19518 -3.76735,-8.67176 -3.76735,-8.67176 l -0.009,-49.197949 c 0,0 0.16335,-1.723543 -0.83549,-2.623972 -0.99885,-0.900429 -2.54179,-0.711307 -2.54179,-0.711307 l -1.84017,10e-6 c 0,0 -1.84935,-0.08349 -2.6288,0.695874 z"
       id="path5668"
       sodipodi:nodetypes="zcczcczcczcczcczcczz" />
    <path
       style="opacity:1;fill:#5fb9c6;fill-opacity:1;stroke-width:6.03245;stroke-linecap:round;stroke-linejoin:round"
       d="m 356.38455,38.87104 c -1.27821,-0.80533 -2.80224,-0.197028 -2.80224,-0.197028 l -35.27147,6.86885 c 0,0 -1.42753,0.06641 -2.21568,1.189593 -0.78815,1.123176 -0.44714,1.991115 -0.44714,1.991115 l 13.13376,67.24856 c 0,0 0.27647,2.17395 1.25311,2.83094 0.97665,0.65702 2.87191,-0.0191 2.87191,-0.0191 l 35.47408,-6.9531 c 0,0 1.58096,0.006 2.16038,-0.85261 0.57941,-0.85883 0.40651,-2.33569 0.40651,-2.33569 l -0.39731,-2.06144 c 0,0 -0.28883,-1.38925 -1.06762,-1.91802 -0.77877,-0.52878 -2.37121,-0.13616 -2.37121,-0.13616 l -28.08982,5.33254 c 0,0 -2.19712,0.58086 -3.37176,-0.21782 -1.17462,-0.79867 -1.3109,-3.62031 -1.3109,-3.62031 l -3.90009,-20.396576 c 0,0 -0.45141,-1.87503 0.29136,-2.96725 0.7428,-1.09224 3.04999,-1.467706 3.04999,-1.467706 l 28.10835,-5.436841 c 0,0 1.13135,-0.207031 1.68348,-1.31597 0.55214,-1.108943 0.28479,-2.116676 0.28479,-2.116676 l -0.37747,-1.929302 c 0,0 -0.17694,-1.016431 -1.08735,-1.577213 -0.91043,-0.560781 -2.01409,-0.209996 -2.01409,-0.209996 l -27.50021,5.363581 c 0,0 -2.58186,0.657386 -3.88332,-0.214894 -1.30146,-0.872279 -1.58036,-3.600009 -1.58036,-3.600009 l -2.84866,-14.254271 c 0,0 -0.0688,-1.259786 0.84213,-2.776645 0.91092,-1.516861 2.18898,-1.888978 2.18898,-1.888978 l 27.67864,-5.431193 c 0,0 1.76402,-0.145608 2.4274,-1.302355 0.66337,-1.156746 0.31479,-2.192739 0.31479,-2.192739 l -0.27388,-1.404105 c 0,0 -0.0805,-1.225947 -1.35873,-2.031281 z"
       id="path6396"
       sodipodi:nodetypes="zcczcczcczcczcczcczcczcczcczcczcczcczz" />
    <path
       style="opacity:1;fill:#c96666;fill-opacity:1;stroke-width:5.192;stroke-linecap:round;stroke-linejoin:round"
       d="m 75.074137,134.57341 c -0.968763,0.98121 -0.919912,3.15048 -0.919912,3.15048 v 58.62684 c 0,0 -0.04711,0.87053 0.325238,1.24287 0.372345,0.37235 1.347414,0.24393 1.347414,0.24393 h 2.36959 c 0,0 1.012249,0.1377 1.800422,-0.78986 0.788173,-0.92756 0.569166,-1.95143 0.569166,-1.95143 v -25.89823 c 0,0 -0.111741,-0.71067 0.16427,-0.98668 0.276011,-0.27602 0.895394,-0.29569 0.895394,-0.29569 h 1.166317 c 0,0 0.918218,0.0326 1.288748,0.21355 0.37053,0.18097 0.735119,0.70844 0.735119,0.70844 l 21.630927,27.74965 c 0,0 0.62663,0.72751 1.10235,0.95986 0.47572,0.23235 1.46357,0.29039 1.46357,0.29039 h 4.29779 c 0.64854,0 0.77129,0.17443 1.03379,-0.36008 0.2625,-0.53451 -0.2796,-1.02419 -0.2796,-1.02419 L 92.088768,168.00857 c 0,0 22.053022,1.60005 22.116172,-17.37699 0.0632,-18.97704 -21.930321,-17.0053 -21.930321,-17.0053 l -13.819404,0.0709 c 0,0 -2.412316,-0.10497 -3.381078,0.87623 z"
       id="path7864"
       sodipodi:nodetypes="zcczcczcczcczcczczzcczccz"
       clip-path="url(#clipPath7877)"
       inkscape:path-effect="#path-effect7881"
       inkscape:original-d="m 75.074137,134.57341 c -0.968763,0.98121 -0.919912,3.15048 -0.919912,3.15048 v 58.62684 c 0,0 -0.04711,0.87053 0.325238,1.24287 0.372345,0.37235 1.347414,0.24393 1.347414,0.24393 h 2.36959 c 0,0 1.012249,0.1377 1.800422,-0.78986 0.788173,-0.92756 0.569166,-1.95143 0.569166,-1.95143 v -25.89823 c 0,0 -0.111741,-0.71067 0.16427,-0.98668 0.276011,-0.27602 0.895394,-0.29569 0.895394,-0.29569 h 1.166317 c 0,0 0.918218,0.0326 1.288748,0.21355 0.37053,0.18097 0.735119,0.70844 0.735119,0.70844 l 21.630927,27.74965 c 0,0 0.62663,0.72751 1.10235,0.95986 0.47572,0.23235 1.46357,0.29039 1.46357,0.29039 h 4.29779 c 0.64854,0 0.77129,0.17443 1.03379,-0.36008 0.2625,-0.53451 -0.2796,-1.02419 -0.2796,-1.02419 L 92.088768,168.00857 c 0,0 22.053022,1.60005 22.116172,-17.37699 0.0632,-18.97704 -21.930321,-17.0053 -21.930321,-17.0053 l -13.819404,0.0709 c 0,0 -2.412316,-0.10497 -3.381078,0.87623 z"
       transform="matrix(1.1618742,0,0,1.1618742,-24.619275,-30.861136)" />
    <path
       style="opacity:1;fill:#c96666;fill-opacity:1;stroke-width:6.03245;stroke-linecap:round;stroke-linejoin:round"
       d="m 156.34851,125.93817 c -1.10428,-1.03101 -2.71542,-0.71967 -2.71542,-0.71967 l -35.93385,0.12415 c 0,0 -1.41462,-0.20274 -2.39965,0.75243 -0.98501,0.95522 -0.81303,1.87175 -0.81303,1.87175 l 0.27367,68.51853 c 0,0 -0.13663,2.1872 0.6993,3.01588 0.83592,0.82871 2.82441,0.52051 2.82441,0.52051 l 36.14868,-0.16888 c 0,0 1.55175,0.30255 2.28204,-0.43181 0.73036,-0.73477 0.83784,-2.21782 0.83784,-2.21782 l -0.003,-2.09938 c 0,0 -0.0229,-1.41878 -0.68851,-2.08436 -0.66564,-0.6656 -2.30348,-0.57896 -2.30348,-0.57896 l -28.59148,-0.0364 c 0,0 -2.26709,0.158 -3.27088,-0.84702 -1.00378,-1.00501 -0.60785,-3.80206 -0.60785,-3.80206 l -0.001,-20.7661 c 0,0 -0.0913,-1.92643 0.8433,-2.85978 0.93467,-0.93334 3.27131,-0.86894 3.27131,-0.86894 l 28.62927,-0.0625 c 0,0 1.1501,0.009 1.90063,-0.97647 0.75052,-0.98555 0.67714,-2.02556 0.67714,-2.02556 l -0.008,-1.96586 c 0,0 0.0171,-1.03159 -0.77188,-1.75333 -0.78895,-0.72176 -1.93883,-0.58443 -1.93883,-0.58443 l -28.01819,0.1048 c 0,0 -2.65938,0.16093 -3.77392,-0.94019 -1.11453,-1.10113 -0.87631,-3.83271 -0.87631,-3.83271 l -0.12163,-14.53568 c 0,0 0.16897,-1.25029 1.34849,-2.56914 1.17952,-1.31885 2.50472,-1.44438 2.50472,-1.44438 l 28.20614,-0.13769 c 0,0 1.75998,0.18819 2.62876,-0.82343 0.86876,-1.01161 0.72089,-2.09463 0.72089,-2.09463 l -0.006,-1.43056 c 0,0 0.15111,-1.21927 -0.95316,-2.25027 z"
       id="path7885"
       sodipodi:nodetypes="zcczcczcczcczcczcczcczcczcczcczcczcczz" />
    <path
       style="opacity:1;fill:#c96666;fill-opacity:1;stroke-width:6.03245;stroke-linecap:round;stroke-linejoin:round"
       d="m 238.44025,155.62944 7.40048,-2.59284 c -0.35232,-0.96459 -4.24664,-17.62206 -28.17604,-27.76129 -0.70558,-0.29909 -35.76139,-14.13665 -50.91218,21.55423 -6.56135,15.45656 -3.02137,40.96448 22.63117,51.14128 29.00277,11.5059 42.25728,-5.31011 47.71315,-13.99782 0.56886,-0.90582 1.24781,-2.74049 0.59452,-4.44656 -0.65326,-1.70606 -3.13826,-2.74337 -3.13826,-2.74337 l -21.398,-9.13577 c 0,0 -0.91027,-0.97347 -2.66081,-0.37413 -1.75055,0.59932 -1.81125,1.747 -1.81125,1.747 l -0.38467,0.89232 c 0,0 -0.60618,1.3648 -0.17532,2.45223 0.43088,1.08743 2.43098,1.99793 2.43098,1.99793 l 13.33852,5.7857 c 0,0 2.91656,1.15682 3.05395,2.32787 0.13741,1.17104 0.32709,2.00665 -1.35704,3.75285 -5.01766,5.20257 -15.13702,12.6653 -33.24475,5.96391 0,0 -29.60744,-13.90877 -18.36813,-42.48437 0,0 10.32985,-27.86188 41.46209,-17.6331 17.08174,5.61236 23.00158,23.55396 23.00158,23.55396 z"
       id="path7887"
       sodipodi:nodetypes="ccsssszcczcczcczscsscc" />
    <path
       style="opacity:1;fill:#c96666;fill-opacity:1;stroke-width:5.192;stroke-linecap:round;stroke-linejoin:round"
       d="m 75.074137,134.57341 c -0.968763,0.98121 -0.919912,3.15048 -0.919912,3.15048 v 58.62684 c 0,0 -0.04711,0.87053 0.325238,1.24287 0.372345,0.37235 1.347414,0.24393 1.347414,0.24393 h 2.36959 c 0,0 1.012249,0.1377 1.800422,-0.78986 0.788173,-0.92756 0.569166,-1.95143 0.569166,-1.95143 v -25.89823 c 0,0 -0.111741,-0.71067 0.16427,-0.98668 0.276011,-0.27602 0.895394,-0.29569 0.895394,-0.29569 h 1.166317 c 0,0 0.918218,0.0326 1.288748,0.21355 0.37053,0.18097 0.735119,0.70844 0.735119,0.70844 l 21.630927,27.74965 c 0,0 0.62663,0.72751 1.10235,0.95986 0.47572,0.23235 1.46357,0.29039 1.46357,0.29039 h 4.29779 c 0.64854,0 0.77129,0.17443 1.03379,-0.36008 0.2625,-0.53451 -0.2796,-1.02419 -0.2796,-1.02419 L 92.088768,168.00857 c 0,0 22.053022,1.60005 22.116172,-17.37699 0.0632,-18.97704 -21.930321,-17.0053 -21.930321,-17.0053 l -13.819404,0.0709 c 0,0 -2.412316,-0.10497 -3.381078,0.87623 z"
       id="path7889"
       sodipodi:nodetypes="zcczcczcczcczcczczzcczccz"
       clip-path="url(#clipath_lpe_path-effect7893)"
       inkscape:path-effect="#path-effect7893"
       inkscape:original-d="m 75.074137,134.57341 c -0.968763,0.98121 -0.919912,3.15048 -0.919912,3.15048 v 58.62684 c 0,0 -0.04711,0.87053 0.325238,1.24287 0.372345,0.37235 1.347414,0.24393 1.347414,0.24393 h 2.36959 c 0,0 1.012249,0.1377 1.800422,-0.78986 0.788173,-0.92756 0.569166,-1.95143 0.569166,-1.95143 v -25.89823 c 0,0 -0.111741,-0.71067 0.16427,-0.98668 0.276011,-0.27602 0.895394,-0.29569 0.895394,-0.29569 h 1.166317 c 0,0 0.918218,0.0326 1.288748,0.21355 0.37053,0.18097 0.735119,0.70844 0.735119,0.70844 l 21.630927,27.74965 c 0,0 0.62663,0.72751 1.10235,0.95986 0.47572,0.23235 1.46357,0.29039 1.46357,0.29039 h 4.29779 c 0.64854,0 0.77129,0.17443 1.03379,-0.36008 0.2625,-0.53451 -0.2796,-1.02419 -0.2796,-1.02419 L 92.088768,168.00857 c 0,0 22.053022,1.60005 22.116172,-17.37699 0.0632,-18.97704 -21.930321,-17.0053 -21.930321,-17.0053 l -13.819404,0.0709 c 0,0 -2.412316,-0.10497 -3.381078,0.87623 z"
       transform="matrix(1.1618742,0,0,1.1618742,168.85808,-30.861136)" />
    <path
       style="opacity:1;fill:#c96666;fill-opacity:1;stroke-width:6.03245;stroke-linecap:round;stroke-linejoin:round"
       d="m 349.82586,125.93817 c -1.10428,-1.03101 -2.71542,-0.71967 -2.71542,-0.71967 l -35.93385,0.12415 c 0,0 -1.41462,-0.20274 -2.39964,0.75243 -0.98502,0.95522 -0.81304,1.87175 -0.81304,1.87175 l 0.27367,68.51853 c 0,0 -0.13662,2.1872 0.6993,3.01588 0.83592,0.82871 2.82441,0.52051 2.82441,0.52051 l 36.14868,-0.16888 c 0,0 1.55176,0.30255 2.28204,-0.43181 0.73037,-0.73477 0.83784,-2.21782 0.83784,-2.21782 l -0.003,-2.09938 c 0,0 -0.0229,-1.41878 -0.68851,-2.08436 -0.66564,-0.6656 -2.30348,-0.57896 -2.30348,-0.57896 l -28.59148,-0.0364 c 0,0 -2.26709,0.158 -3.27088,-0.84702 -1.00378,-1.00501 -0.60785,-3.80206 -0.60785,-3.80206 l -10e-4,-20.7661 c 0,0 -0.0913,-1.92643 0.8433,-2.85978 0.93467,-0.93334 3.27132,-0.86894 3.27132,-0.86894 l 28.62926,-0.0625 c 0,0 1.15011,0.009 1.90063,-0.97647 0.75053,-0.98555 0.67714,-2.02556 0.67714,-2.02556 l -0.008,-1.96586 c 0,0 0.0171,-1.03159 -0.77188,-1.75333 -0.78895,-0.72176 -1.93883,-0.58443 -1.93883,-0.58443 l -28.01819,0.1048 c 0,0 -2.65938,0.16093 -3.77392,-0.94019 -1.11453,-1.10113 -0.87631,-3.83271 -0.87631,-3.83271 l -0.12163,-14.53568 c 0,0 0.16898,-1.25029 1.34849,-2.56914 1.17952,-1.31885 2.50472,-1.44438 2.50472,-1.44438 l 28.20615,-0.13769 c 0,0 1.75997,0.18819 2.62875,-0.82343 0.86877,-1.01161 0.72089,-2.09463 0.72089,-2.09463 l -0.006,-1.43056 c 0,0 0.1511,-1.21927 -0.95317,-2.25027 z"
       id="path7900"
       sodipodi:nodetypes="zcczcczcczcczcczcczcczcczcczcczcczcczz" />
    <path
       style="opacity:1;fill:#c96666;fill-opacity:1;stroke-width:5.84469;stroke-linecap:round;stroke-linejoin:round"
       d="m 389.5229,141.32203 c 0,0 -5.68039,-9.13168 -14.28037,-8.96556 -4.4579,0.0861 -8.94342,5.06021 -8.83775,9.38398 0.0864,3.53879 1.98569,7.25577 4.70731,9.51924 6.35421,5.28456 11.58472,8.49438 16.84172,13.38968 10.13125,9.43419 8.65427,16.36721 8.68238,17.67856 0.19706,9.19175 -7.44321,13.92451 -7.95014,14.43575 -4.12269,4.15774 -12.02979,4.28888 -12.02979,4.28888 -11.51411,-0.48227 -13.80255,-4.6914 -14.85418,-5.64876 -4.54845,-4.14078 -7.4271,-9.62384 -7.4271,-9.62384 l 6.17182,-3.76586 c 0,0 2.33152,12.13893 15.33387,11.55535 13.00237,-0.58358 12.91117,-10.22996 12.91,-11.24152 -0.009,-7.26704 -6.27643,-12.55282 -6.27643,-12.55282 0,0 -15.69216,-12.65422 -17.88778,-14.74958 -3.5881,-3.42429 -5.67276,-6.54486 -5.54417,-13.80811 0.12859,-7.26326 5.78459,-16.31974 16.00486,-16.21407 14.36675,0.14855 20.39834,11.92519 20.39834,11.92519 z"
       id="path7902"
       sodipodi:nodetypes="csssssssscczscszscc" />
    <path
       style="opacity:1;fill:#c96666;fill-opacity:1;stroke-width:5.84469;stroke-linecap:round;stroke-linejoin:round"
       d="m 431.66501,141.32203 c 0,0 -5.68039,-9.13168 -14.28037,-8.96556 -4.45791,0.0861 -8.94343,5.06021 -8.83775,9.38398 0.0864,3.53879 1.98569,7.25577 4.70731,9.51924 6.35421,5.28456 11.58472,8.49438 16.84171,13.38968 10.13126,9.43419 8.65428,16.36721 8.68239,17.67856 0.19706,9.19175 -7.44321,13.92451 -7.95014,14.43575 -4.12269,4.15774 -12.02979,4.28888 -12.02979,4.28888 -11.51411,-0.48227 -13.80255,-4.6914 -14.85418,-5.64876 -4.54846,-4.14078 -7.4271,-9.62384 -7.4271,-9.62384 l 6.17181,-3.76586 c 0,0 2.33152,12.13893 15.33387,11.55535 13.00237,-0.58358 12.91118,-10.22996 12.91001,-11.24152 -0.009,-7.26704 -6.27644,-12.55282 -6.27644,-12.55282 0,0 -15.69215,-12.65422 -17.88777,-14.74958 -3.5881,-3.42429 -5.67276,-6.54486 -5.54417,-13.80811 0.12859,-7.26326 5.78458,-16.31974 16.00486,-16.21407 14.36675,0.14855 20.39834,11.92519 20.39834,11.92519 z"
       id="path7904"
       sodipodi:nodetypes="csssssssscczscszscc" />
    <rect
       style="opacity:1;fill:#668bc9;fill-opacity:1;stroke-width:3.0444;stroke-linecap:round;stroke-linejoin:round"
       id="rect8012"
       width="33.905312"
       height="33.905312"
       x="276.72659"
       y="223.20082"
       ry="3.8528762"
       transform="rotate(0.33841613)" />
    <rect
       style="opacity:1;fill:#66a9c9;fill-opacity:1;stroke-width:3.0444;stroke-linecap:round;stroke-linejoin:round"
       id="rect8288"
       width="33.905312"
       height="33.905312"
       x="231.4845"
       y="228.07462"
       ry="3.8528762"
       transform="rotate(-0.78573977)" />
    <rect
       style="opacity:1;fill:#9ab6db;fill-opacity:1;stroke-width:2.80956;stroke-linecap:round;stroke-linejoin:round"
       id="rect8014"
       width="31.289892"
       height="31.289892"
       x="278.0343"
       y="224.50853"
       ry="3.5556695"
       transform="rotate(0.33841613)" />
    <rect
       style="opacity:1;fill:#9a9cdb;fill-opacity:1;stroke-width:2.80956;stroke-linecap:round;stroke-linejoin:round"
       id="rect8290"
       width="31.289892"
       height="31.289892"
       x="232.79221"
       y="229.38232"
       ry="3.5556695"
       transform="rotate(-0.78573977)" />
    <path
       style="opacity:1;fill:#ffffff;fill-opacity:1;stroke-width:3.0444;stroke-linecap:round;stroke-linejoin:round"
       d="m 243.36633,251.2933 6.58494,-18.92096 4.16101,-0.0262 6.82282,18.83647 -4.23809,0.0267 -3.37069,-9.07173 -2.62038,-0.0606 -3.25467,9.34465 z"
       id="path8070" />
    <path
       style="opacity:1;fill:#ffffff;fill-opacity:1;stroke-width:5.192;stroke-linecap:round;stroke-linejoin:round"
       d="m 287.03802,229.92589 0.035,23.23125 3.37761,-0.0684 c 0,0 8.43939,-1.11306 8.32097,-6.54696 -0.11843,-5.43387 -6.40091,-5.37307 -6.40091,-5.37307 0,0 6.4837,0.10142 6.57011,-5.68526 0.0864,-5.78666 -8.55765,-5.65554 -8.55765,-5.65554 z"
       id="path8348"
       sodipodi:nodetypes="ccczczcc" />
    <rect
       style="opacity:1;fill:#5c3636;fill-opacity:1;stroke-width:3.0444;stroke-linecap:round;stroke-linejoin:round"
       id="rect11452"
       width="33.905312"
       height="33.905312"
       x="192.61867"
       y="226.40895"
       ry="3.8528762"
       transform="rotate(-0.40292593)" />
    <path
       style="opacity:1;fill:#599862;fill-opacity:1;stroke-width:5.192;stroke-linecap:round;stroke-linejoin:round"
       d="m 194.27471,234.80895 1.71059,0.10895 -0.0368,-2.74262 1.2155,-0.0151 0.003,4.11501 0.94806,0.11518 0.0936,-2.96358 1.93592,0.14639 -0.0666,1.27957 0.84418,0.11736 0.24808,-2.04197 1.21987,0.1926 -0.32332,2.41765 1.06733,0.35168 0.24194,-3.81881 1.16466,0.0379 -0.47858,4.42649 0.94806,0.11519 0.27043,-2.95691 1.92924,0.3232 -0.20213,3.73483 1.1359,0.15281 0.33218,-2.49058 2.30492,0.39843 -0.59581,4.78227 1.79225,0.23254 0.76645,-6.55243 2.06406,0.30996 c 0,0 -0.4471,2.46182 -0.37199,2.57455 0.0751,0.11275 2.28066,0.23267 2.28066,0.23267 l 0.23757,-4.02655 2.2144,0.047 -0.16655,2.95473 1.12703,0.22573 0.52737,-5.0718 2.07728,0.44478 -0.65372,6.47732 1.46959,0.20814 0.9652,-5.99545 3.66106,1.44135 -0.0394,-5.50804 c 0,0 -0.7443,-3.75142 -3.58035,-3.74274 -2.83606,0.009 -26.73552,0.18394 -26.73552,0.18394 0,0 -3.61209,0.35975 -3.58693,3.93789 0.0252,3.57814 0.0411,5.8405 0.0411,5.8405 z"
       id="path12997" />
  </g>
</svg>
