<?xml version="1.0" encoding="utf-8"?>
<!-- Generator: Adobe Illustrator 27.5.0, SVG Export Plug-In . SVG Version: 6.00 Build 0)  -->
<svg version="1.1" xmlns="http://www.w3.org/2000/svg" xmlns:xlink="http://www.w3.org/1999/xlink" x="0px" y="0px"
	 viewBox="0 0 750 500" style="enable-background:new 0 0 750 500;" xml:space="preserve">
<g id="BACKGROUND">
	<rect style="fill:#FFFFFF;" width="750" height="500"/>
</g>
<g id="OBJECTS">
	<g>
		<defs>
			<rect id="SVGID_1_" width="750" height="500"/>
		</defs>
		<clipPath id="SVGID_00000098914022670131857640000004078253146295760259_">
			<use xlink:href="#SVGID_1_"  style="overflow:visible;"/>
		</clipPath>
		<path style="clip-path:url(#SVGID_00000098914022670131857640000004078253146295760259_);fill:#DCB0FF;" d="M34.732,154.047
			c-15.857-0.934-32.084,0.769-47.884,1.685c-18.884,1.101-37.768,2.202-56.651,3.303c-0.627,0.032-1.113,0.211-1.476,0.476
			c-0.261,0.053-0.468,0.192-0.483,0.441c0,0.013,0,0.025,0,0.05c-0.326,0.476-0.336,1.048-0.07,1.516
			c-3.696,90.069-4.08,180.224-5.528,270.317c-0.009,0.708,0.73,1.345,1.674,1.521c24.845,4.878,53.66-4.187,63.866-21.49
			c9.505-16.117,0.829-35.25-18.48-45.259c17.11-8.245,29.541-21.614,31.601-36.389c1.205-8.806-4.064-21.262-16.903-23.534
			c38.293-19.989,67.919-47.812,84.18-79.616c7.585-14.828,14.135-31.73,9.577-47.496C73.633,163.902,56.433,155.348,34.732,154.047
			z"/>
		<path style="clip-path:url(#SVGID_00000098914022670131857640000004078253146295760259_);fill:#F9D49D;" d="M702.203,231.763
			c15.854-0.674,32.085,0.677,47.887,1.423c18.886,0.896,37.772,1.793,56.658,2.689c0.627,0.026,1.114,0.165,1.477,0.37
			c0.261,0.041,0.469,0.149,0.484,0.34c0,0.01,0,0.019,0,0.038c0.327,0.367,0.339,0.805,0.074,1.164
			c3.939,69.178,4.565,138.413,6.255,207.603c0.011,0.544-0.727,1.031-1.67,1.163c-24.831,3.679-53.67-3.359-63.922-16.675
			c-9.549-12.402-0.924-27.072,18.358-34.706c-17.132-6.378-29.598-16.678-31.698-28.03c-1.229-6.766,4.007-16.317,16.839-18.027
			c-38.346-15.453-68.046-36.9-84.392-61.367c-7.625-11.407-14.22-24.405-9.704-36.5
			C663.33,239.226,680.506,232.703,702.203,231.763z"/>
		<path style="clip-path:url(#SVGID_00000098914022670131857640000004078253146295760259_);fill:#9FD3C4;" d="M-26.3,524.414
			h337.512c4.521-14.25,9.042-28.5,13.563-42.75c4.527-14.271,9.082-29.016,5.836-43.484c-3.246-14.469-16.374-28.722-35.432-31.537
			c-21.048-3.11-101.004,7.07-115.662-4.761c-11.02-8.894-5.579-23.068-6.455-35.234c-1.531-21.249-25.115-38.768-51.719-45.742
			c-26.605-6.974-55.698-5.411-83.624-2.677c-40.465,3.962-28.717,10.859-60.007,30.65c-4.331,2.74-8.331,5.693-12.05,8.808v158.307
			C-31.764,518.854-29.081,521.66-26.3,524.414z"/>
		<g style="clip-path:url(#SVGID_00000098914022670131857640000004078253146295760259_);">
			<g>
				<path style="fill:none;stroke:#72565E;stroke-width:10;stroke-miterlimit:10;" d="M181.321,468.399
					c48.136,87.071,9.005,165.848-94.787,164.584c-74.165-0.904-146.191-22.932-164.583-94.787
					c-23.376-91.33-15.198-183.633,56.425-202.907C49.999,316.015,145.435,403.487,181.321,468.399z"/>
				<path style="fill:none;stroke:#72565E;stroke-width:10;stroke-miterlimit:10;" d="M131.496,464.085
					c33.722,65.414,2.878,95.525-58.623,119.346c-45.185,17.502-96.823-20.319-110.6-73.808
					c-17.512-67.986-21.205-120.697,25.525-133.272C34.528,363.776,106.357,415.319,131.496,464.085z"/>
			</g>
			<path style="fill:none;stroke:#72565E;stroke-width:10;stroke-miterlimit:10;" d="M100.357,479.884
				c12.037,42.417-11.147,34.014-43.476,46.456c-23.752,9.142-56.504-0.731-63.589-28.266c-9.007-34.997-20.804-88.124,3.746-94.73
				C21.586,396.738,92.594,452.532,100.357,479.884z"/>
			<path style="fill:none;stroke:#72565E;stroke-width:10;stroke-miterlimit:10;" d="M65.797,472.259
				c4.99,17.341-6.638,14.478-23.517,20.552c-12.401,4.462-25.434-6.93-28.301-18.207c-3.643-14.333-5.775-21.334,1.076-31.391
				C22.069,432.917,62.579,461.077,65.797,472.259z"/>
		</g>
		<path style="clip-path:url(#SVGID_00000098914022670131857640000004078253146295760259_);fill:#B1B3EB;" d="M453.033,25.032
			c-6.894,24.656-11.103,53.622,4.741,73.732c15.28,19.394,43.722,22.722,68.016,18.32c24.295-4.402,47.367-14.852,71.941-17.249
			c10.715-1.045,22.112-0.372,31.284,5.267c19.592,12.046,20.603,39.643,31.228,60.041c19.451,37.341,68.727,46.345,110.799,44.702
			c1.285-0.05,2.574-0.106,3.864-0.166v-241.29h-302.31C464.956-13.142,458.415,5.783,453.033,25.032z"/>
		<g style="clip-path:url(#SVGID_00000098914022670131857640000004078253146295760259_);">
			<g>
				<path style="fill:none;stroke:#72565E;stroke-width:10;stroke-miterlimit:10;" d="M871.135-4.872
					c48.136,87.071,9.005,165.848-94.787,164.584c-74.165-0.904-146.191-22.932-164.583-94.787
					c-23.376-91.33-15.198-183.633,56.425-202.907C739.812-157.257,835.249-69.785,871.135-4.872z"/>
				<path style="fill:none;stroke:#72565E;stroke-width:10;stroke-miterlimit:10;" d="M821.31-9.186
					c33.722,65.414,2.878,95.525-58.623,119.346c-45.185,17.502-96.823-20.319-110.601-73.808
					c-17.512-67.986-21.205-120.697,25.525-133.272C724.341-109.495,796.17-57.953,821.31-9.186z"/>
			</g>
			<path style="fill:none;stroke:#72565E;stroke-width:10;stroke-miterlimit:10;" d="M790.17,6.612
				c12.038,42.417-11.147,34.014-43.476,46.456c-23.752,9.142-56.504-0.731-63.589-28.266c-9.006-34.997-20.804-88.123,3.746-94.73
				C711.4-76.533,782.408-20.739,790.17,6.612z"/>
			<path style="fill:none;stroke:#72565E;stroke-width:10;stroke-miterlimit:10;" d="M755.61-1.012
				c4.99,17.341-6.638,14.478-23.517,20.552c-12.401,4.462-25.434-6.93-28.301-18.207c-3.643-14.333-5.775-21.334,1.076-31.391
				C711.883-40.354,752.393-12.194,755.61-1.012z"/>
		</g>
		<g style="clip-path:url(#SVGID_00000098914022670131857640000004078253146295760259_);">
			<path style="fill:#72565E;" d="M581.099,41.509c-0.498,3.656,2.34,6.359,5.652,7.045c4.953,1.026,9.303-3.146,11.731-6.99
				c2.721-4.309,3.412-8.928,1.585-13.706c-1.585-4.145-7.682-4.624-10.159-1.115c-0.341,0.483-0.738,0.934-1.068,1.424
				c-0.327,0.485-1.552,2.651-0.935,1.642c-0.872,1.426-1.61,2.736-2.06,3.375C583.885,35.963,581.589,37.921,581.099,41.509z"/>
			<path style="fill:#72565E;" d="M551.385,31.777c0.61,1.327,1.52,2.431,3.17,2.716c1.574,0.271,2.724-0.55,3.737-1.572
				c1.743-0.976,2.865-2.805,4.235-4.615c1.666-2.2,4.065-4.05,4.36-6.976c0.164-1.627-0.518-3.446-1.913-4.384
				c-4.158-2.795-9.325-0.188-12.133,3.288C550.528,23.1,548.404,28.719,551.385,31.777z"/>
			<path style="fill:#72565E;" d="M546.535,61.814c0.164,0.26,2.152,2.406,1.442,1.687c-0.504-0.437-0.335-0.264,0.507,0.517
				c0.076,0.065,0.161,0.11,0.242,0.165c1.025,0.847,2.413,1.032,3.584,0.393c0.693-0.09,1.34-0.29,1.998-0.612
				c0.989-0.447,1.809-1.105,2.46-1.974c0.495-0.53,0.469-0.515-0.078,0.046c1.292-1.346,2.191-2.585,3.288-4.039
				c3.035-4.019-0.607-9.916-5.542-9.119c-3.787,0.612-6.788,2.729-8.195,6.372C545.41,57.403,545.265,59.798,546.535,61.814z"/>
		</g>
		<g style="clip-path:url(#SVGID_00000098914022670131857640000004078253146295760259_);">
			<path style="fill:#72565E;" d="M240.214,455.551c0.498-3.656-2.34-6.359-5.652-7.045c-4.953-1.026-9.303,3.146-11.731,6.99
				c-2.721,4.309-3.412,8.928-1.585,13.706c1.585,4.145,7.682,4.624,10.159,1.115c0.341-0.483,0.738-0.934,1.068-1.423
				c0.327-0.485,1.552-2.651,0.935-1.642c0.872-1.426,1.61-2.736,2.06-3.375C237.428,461.097,239.725,459.139,240.214,455.551z"/>
			<path style="fill:#72565E;" d="M269.927,465.283c-0.61-1.327-1.52-2.431-3.17-2.716c-1.574-0.271-2.724,0.55-3.737,1.572
				c-1.743,0.977-2.865,2.805-4.235,4.615c-1.666,2.2-4.065,4.05-4.36,6.976c-0.164,1.627,0.518,3.446,1.913,4.384
				c4.158,2.795,9.325,0.188,12.133-3.288C270.785,473.961,272.909,468.341,269.927,465.283z"/>
			<path style="fill:#72565E;" d="M274.778,435.247c-0.164-0.26-2.152-2.406-1.442-1.687c0.504,0.437,0.335,0.264-0.507-0.517
				c-0.076-0.065-0.161-0.11-0.242-0.165c-1.025-0.847-2.413-1.032-3.584-0.393c-0.693,0.09-1.34,0.29-1.998,0.612
				c-0.989,0.447-1.809,1.105-2.46,1.974c-0.495,0.53-0.469,0.515,0.078-0.046c-1.292,1.346-2.191,2.585-3.288,4.039
				c-3.035,4.019,0.607,9.916,5.542,9.12c3.787-0.612,6.788-2.729,8.195-6.372C275.903,439.657,276.048,437.263,274.778,435.247z"/>
		</g>
		<path style="clip-path:url(#SVGID_00000098914022670131857640000004078253146295760259_);fill:#B1B3EB;" d="M413.431,14.308
			c1.53,0.231,3.052,0.643,4.56,1.143c0.306-1.07,0.613-2.13,0.92-3.17c1.87-6.34,11.677-3.514,9.868,2.856
			c-0.367,1.294-0.753,2.618-1.149,3.949c2.932,1.1,5.818,2.25,8.577,3.782c2.877,1.598,1.484,6.422-1.805,6.236
			c-3.259-0.184-6.404-0.785-9.571-1.446c-1.309,3.595-2.795,7.104-4.563,10.285c-1.626,2.927-6.532,1.509-6.344-1.836
			c0.191-3.39,0.745-6.889,1.477-10.377c-1.664-0.399-3.294-0.882-4.827-1.554C404.489,21.509,406.847,13.311,413.431,14.308z"/>
		<path style="clip-path:url(#SVGID_00000098914022670131857640000004078253146295760259_);fill:#DCB0FF;" d="M62.115,282.573
			c1.291-0.852,2.697-1.565,4.153-2.204c-0.49-1-0.971-1.993-1.439-2.971c-2.855-5.962,6.322-10.427,9.243-4.484
			c0.593,1.207,1.193,2.449,1.79,3.703c2.914-1.146,5.828-2.224,8.903-2.932c3.207-0.739,5.401,3.778,2.834,5.841
			c-2.544,2.045-5.282,3.704-8.078,5.333c1.434,3.547,2.679,7.148,3.496,10.695c0.752,3.262-3.843,5.494-5.942,2.883
			c-2.128-2.647-4.059-5.616-5.85-8.698c-1.503,0.817-3.037,1.55-4.626,2.077C60.292,293.908,56.556,286.239,62.115,282.573z"/>
		<path style="clip-path:url(#SVGID_00000098914022670131857640000004078253146295760259_);fill:#F9D49D;" d="M648.635,333.496
			c0.388-1.497,0.955-2.969,1.608-4.418c-1.033-0.414-2.056-0.83-3.058-1.242c-6.113-2.515-2.289-11.977,3.86-9.52
			c1.249,0.499,2.526,1.019,3.809,1.55c1.396-2.802,2.839-5.555,4.648-8.14c1.887-2.697,6.541-0.812,6.016,2.439
			c-0.519,3.222-1.442,6.289-2.427,9.371c3.44,1.673,6.777,3.514,9.759,5.601c2.743,1.919,0.826,6.653-2.482,6.12
			c-3.352-0.541-6.776-1.452-10.169-2.541c-0.569,1.614-1.217,3.185-2.044,4.641C654.874,343.134,646.963,339.942,648.635,333.496z"
			/>
		<path style="clip-path:url(#SVGID_00000098914022670131857640000004078253146295760259_);fill:#DCB0FF;" d="M215.112-66.591
			c-12.151-6.527-24.587-1.612-36.718,2.238c-13.593,4.314-27.204,8.569-40.829,12.781c-29.727,9.19-59.518,18.168-89.33,27.078
			C18.354-15.564-12.519-8.108-41.75,2.767c-8.097,3.012-12.039,8.865-12.777,15.059c-2.779,2.426-4.511,6.11-4.114,10.99
			c3.823,46.912,47.904,81.307,90.075,93.663c46.295,13.565,104.345,7.528,145.346-18.314
			c36.639-23.093,57.869-64.953,59.643-107.61C237.239-23.059,234.701-56.069,215.112-66.591z"/>
		<g style="clip-path:url(#SVGID_00000098914022670131857640000004078253146295760259_);">
			<g>
				<g>
					<path style="fill:#72565E;" d="M189.283-83.632c-2.689-0.658-5.963-0.629-8.486,0.714c-0.872,0.188-1.662,0.534-2.5,0.956
						c-0.38,0.191-0.761,0.374-1.115,0.612c-0.174,0.116-0.772,0.714-0.783,0.762c-0.668,0.531-1.368,0.952-1.934,1.677
						c-0.553,0.71-0.997,1.483-1.346,2.31c-0.493,1.167,0.75,2.415,1.888,1.671c0.5-0.327,0.995-0.603,1.563-0.795
						c0.276-0.094,0.561-0.169,0.845-0.232c0.117-0.026,0.418-0.065,0.638-0.096c0.276,0.029,0.95,0.064,1.19,0.098
						c0.405,0.057,0.797,0.16,1.191,0.253c0.182,0.129,0.372,0.254,0.577,0.379c0.076,0.046,0.112,0.067,0.168,0.1
						c0.025,0.023,0.047,0.044,0.105,0.09c0.227,0.181,0.443,0.375,0.671,0.553c1.129,0.88,2.129,1.766,3.162,2.758
						c0.23,0.221,0.472,0.431,0.713,0.641c0.032,0.028,0.093,0.082,0.161,0.141c0.143,0.161,0.436,0.472,0.514,0.573
						c0.307,0.399,0.608,0.804,0.892,1.22c0.434,0.636,0.813,1.299,1.187,1.971c0.017,0.041,0.027,0.066,0.047,0.114
						c0.193,0.472,0.388,0.941,0.565,1.42c0.608,1.647,1.069,3.342,1.454,5.054c0.091,0.405,0.174,0.812,0.259,1.219
						c0.009,0.044,0.023,0.117,0.037,0.194c0.154,0.914,0.313,1.827,0.458,2.743c0.483,3.048,0.903,6.107,1.251,9.174
						c0.714,6.277,1.159,12.591,1.238,18.909c0.04,3.199-0.015,6.4-0.175,9.595c-0.036,0.728-0.079,1.455-0.126,2.182
						c-0.019,0.296-0.111,1.341-0.12,1.495c-0.139,1.445-0.274,2.889-0.452,4.331c-0.757,6.132-1.967,12.214-3.735,18.137
						c-0.203,0.68-0.413,1.357-0.631,2.033c-0.109,0.337-0.219,0.674-0.332,1.01c-0.016,0.048-0.049,0.145-0.085,0.253
						c-0.096,0.266-0.3,0.843-0.308,0.862c-0.123,0.332-0.247,0.662-0.374,0.992c-0.284,0.742-0.579,1.48-0.883,2.214
						c-1.182,2.852-2.515,5.642-4.004,8.347c-0.682,1.239-1.397,2.461-2.145,3.662c-0.246,0.395-0.501,0.784-0.753,1.175
						c-0.001,0.01-0.217,0.357-0.322,0.506c-0.008,0.012-0.017,0.024-0.025,0.035c-0.016,0.025-0.033,0.05-0.049,0.076
						c0.018-0.028,0.026-0.041,0.043-0.067c-0.298,0.422-0.592,0.847-0.895,1.266c-1.942,2.685-4.059,5.241-6.331,7.653
						c-1.235,1.31-2.513,2.579-3.828,3.809c-0.309,0.289-0.621,0.576-0.934,0.861c-0.11,0.1-0.424,0.38-0.596,0.535
						c-0.639,0.552-1.284,1.096-1.937,1.63c-2.882,2.356-5.891,4.556-8.98,6.633c-6.035,4.056-12.371,7.643-18.791,11.049
						c-1.658,0.88-3.322,1.75-4.993,2.605c-0.797,0.408-1.596,0.813-2.396,1.215c-0.401,0.201-0.802,0.401-1.203,0.6
						c-0.164,0.081-1.072,0.526-1.333,0.655c-0.245,0.118-0.601,0.288-0.675,0.323c-0.405,0.193-0.811,0.386-1.217,0.577
						c-0.813,0.382-1.628,0.76-2.445,1.132c-1.838,0.838-3.687,1.65-5.549,2.431c-7.087,2.973-14.377,5.506-21.87,7.239
						c-0.863,0.199-1.728,0.382-2.594,0.566c-0.177,0.038-0.312,0.066-0.418,0.089c-0.358,0.066-0.716,0.129-1.075,0.19
						c-1.961,0.334-3.932,0.608-5.91,0.813c-3.708,0.385-7.441,0.536-11.167,0.428c-0.748-0.022-1.496-0.054-2.243-0.097
						c-0.39-0.022-0.78-0.049-1.17-0.076c-0.06-0.006-0.103-0.011-0.179-0.018c-1.67-0.173-3.335-0.368-4.994-0.626
						c-3.13-0.487-6.232-1.148-9.292-1.964c-1.443-0.384-2.876-0.803-4.299-1.255c-0.713-0.226-1.421-0.465-2.13-0.703
						c-0.051-0.017-0.087-0.029-0.131-0.044c-0.036-0.014-0.075-0.03-0.129-0.051c-0.436-0.17-0.879-0.323-1.317-0.49
						c-2.986-1.135-5.92-2.407-8.795-3.8c-2.973-1.44-5.884-3.01-8.728-4.691c-1.385-0.818-2.753-1.663-4.106-2.533
						c-0.616-0.396-1.227-0.8-1.838-1.204c-0.034-0.023-0.053-0.037-0.092-0.063c-0.468-0.323-0.935-0.646-1.4-0.973
						c-5.482-3.86-10.663-8.128-15.582-12.681C2.292,44.271-2.922,38.753-8.007,33.139c-5.186-5.725-9.534-10.605-14.392-16.559
						c-4.821-5.909-9.35-12.102-14.366-17.844c-2.421-2.771-5.475-6.28-9.655-4.897c-3.734,1.235-4.394,5.966-1.527,8.422
						c1.007,0.863,2.128,1.193,3.16,1.103c0.742,1.202,1.489,2.401,2.294,3.562c2.136,3.081,4.271,6.163,6.424,9.232
						c4.302,6.131,8.687,12.206,13.196,18.186c8.991,11.924,19.29,22.983,30.924,32.377C28.858,83.523,54.91,95.491,82.146,93.95
						c15.518-0.878,30.554-5.745,44.629-12.114c13.727-6.211,27.499-13.243,39.791-22.008c11.648-8.307,21.611-18.574,28.471-31.196
						c5.954-10.955,9.514-23.244,11.161-35.568c1.699-12.711,1.718-25.639,0.377-38.384c-0.711-6.755-1.6-13.621-3.202-20.227
						C201.559-73.021,197.401-81.645,189.283-83.632z"/>
					<path style="fill:#72565E;" d="M179.767,27.838c0.001-0.006-0.091,0.134-0.353,0.55c0.002-0.003,0.004-0.006,0.006-0.009
						C179.535,28.198,179.651,28.018,179.767,27.838z"/>
				</g>
			</g>
			<g>
				<g>
					<path style="fill:#72565E;" d="M158.275-61.932c-0.925-2.185-2.581-3.839-4.874-4.478c-0.294-0.224-0.599-0.423-0.929-0.576
						c-0.541-0.45-1.196-0.767-1.814-1.101c-0.727-0.393-1.893-0.083-2.207,0.73c-0.249,0.645-0.462,1.235-0.621,1.851
						c-0.277,0.451-0.528,0.912-0.449,0.97c-0.019,0.021-0.046,0.05-0.054,0.06c-0.783,1.044-0.907,1.364-1.289,2.449
						c-0.91,2.586,0.144,5.604,0.742,8.177c0.193,0.829,0.374,1.661,0.544,2.495c0.012,0.06,0.037,0.164,0.066,0.283
						c-0.004-0.016-0.007-0.028-0.012-0.045c0.105,0.409,0.15,0.843,0.219,1.26c0.296,1.767,0.539,3.543,0.746,5.323
						c0.412,3.554,0.618,7.132,0.604,10.709c-0.007,1.778-0.07,3.555-0.189,5.328c-0.005,0.074-0.014,0.177-0.023,0.283
						c0.008-0.081,0.014-0.144,0.024-0.249c-0.01,0.099-0.019,0.199-0.029,0.298c-0.021,0.23-0.044,0.46-0.046,0.472
						c-0.016,0.162-0.03,0.325-0.047,0.487c-0.096,0.919-0.208,1.836-0.336,2.75c-0.485,3.458-1.202,6.885-2.177,10.238
						c-0.23,0.791-0.473,1.577-0.732,2.359c-0.096,0.29-0.689,1.854-0.082,0.257c-0.146,0.383-0.285,0.768-0.432,1.151
						c-0.618,1.6-1.299,3.174-2.048,4.717c-0.746,1.536-1.558,3.04-2.436,4.505c-0.401,0.669-0.825,1.323-1.246,1.979
						c-0.027,0.037-0.037,0.048-0.07,0.093c-0.29,0.393-0.569,0.794-0.861,1.186c-1.965,2.63-4.184,5.014-6.572,7.256
						c-0.234,0.208-0.689,0.618-0.768,0.683c-0.35,0.288-0.703,0.573-1.06,0.853c-0.981,0.769-1.989,1.503-3.019,2.207
						c-1.967,1.343-4.014,2.567-6.117,3.684c-0.532,0.283-1.069,0.559-1.611,0.826c-0.167,0.078-0.416,0.195-0.477,0.222
						c-1.142,0.507-2.28,1.02-3.438,1.492c-1.71,0.697-3.443,1.335-5.197,1.911c-1.723,0.566-3.465,1.073-5.222,1.521
						c-0.835,0.213-1.674,0.413-2.516,0.6c-0.421,0.093-0.842,0.184-1.264,0.271c-0.178,0.036-0.362,0.072-0.518,0.101
						c-3.508,0.594-7.031,1.022-10.586,1.205c-3.626,0.187-7.242,0.114-10.865-0.101c-0.076-0.005-0.131-0.008-0.189-0.011
						c-0.064-0.007-0.132-0.014-0.22-0.023c-0.43-0.045-0.861-0.083-1.291-0.128c-0.86-0.091-1.719-0.195-2.576-0.31
						c-1.801-0.242-3.595-0.537-5.38-0.883c-3.56-0.691-7.118-1.529-10.606-2.521c-1.745-0.496-3.467-1.055-5.185-1.637
						c-0.032-0.011-0.035-0.011-0.06-0.02c-0.069-0.026-0.112-0.043-0.209-0.08c-0.407-0.153-0.815-0.301-1.221-0.456
						c-0.892-0.34-1.78-0.692-2.661-1.059c-3.832-1.592-7.56-3.435-11.145-5.523c-0.892-0.52-1.776-1.054-2.65-1.604
						c-0.291-0.183-0.581-0.368-0.87-0.554c-0.117-0.076-1.098-0.733-1.188-0.788c-1.591-1.099-3.15-2.246-4.666-3.446
						c-3.166-2.505-6.161-5.249-9.036-8.08c-1.464-1.443-2.823-2.984-4.246-4.451c-0.707-0.729-1.428-1.448-2.103-2.207
						c-0.702-0.79-1.482-1.298-2.306-1.942c-2.084-1.629-4.749,0.251-4.154,2.745c0.485,2.033,1.278,3.717,2.276,5.552
						c0.951,1.749,2.072,3.361,3.256,4.964c2.389,3.234,5.04,6.23,7.926,9.028c5.71,5.536,12.211,10.285,19.112,14.229
						C53.595,33.553,69.227,37.64,85.33,37.83c17.064,0.201,34.86-4.402,49.031-14.08c13.696-9.354,22.482-23.953,26.031-40.006
						c1.866-8.441,2.37-17.286,1.707-25.899c-0.36-4.683-1.131-9.326-2.14-13.912C159.521-58.058,159.071-60.049,158.275-61.932z"/>
					<path style="fill:#72565E;" d="M148.735-28.214c-0.037,0.376-0.052,0.53-0.05,0.521c0.015-0.157,0.031-0.315,0.046-0.472
						C148.732-28.181,148.734-28.197,148.735-28.214z"/>
				</g>
			</g>
		</g>
		<path style="clip-path:url(#SVGID_00000098914022670131857640000004078253146295760259_);fill:#B1B3EB;" d="M594.924,114.679
			c10.301-4.396,23.505-2.297,30.758,6.237c6.423,7.558,7.331,18.494,5.49,28.24c-1.078,5.711-3.142,11.502-7.4,15.457
			c-4.259,3.955-11.145,5.504-16.01,2.326c-5.181-3.384-6.44-10.575-10.99-14.769c-5.369-4.947-21.95-5.995-21.314-15.407
			C576.069,127.715,587.308,117.93,594.924,114.679z"/>
		<path style="clip-path:url(#SVGID_00000098914022670131857640000004078253146295760259_);fill:#9FD3C4;" d="M204.947,335.181
			c-9.133,2.467-15.523,11.225-17.673,20.437c-2.135,9.148-0.585,19.309,5.056,26.82c13.03,17.348,42.547,10.54,47.143-10.65
			C243.367,353.834,223.912,330.059,204.947,335.181z"/>
		<path style="clip-path:url(#SVGID_00000098914022670131857640000004078253146295760259_);fill:#F9D49D;" d="M580.328,591.212
			c-27.984-50.771-23.496-117.68,11.019-164.259c34.515-46.578,97.221-70.348,153.939-58.353
			c56.718,11.995,104.432,59.116,117.134,115.68c-31.66,8.818-60.276,18.87-91.936,27.688c-7.954-22.902-22.34-46.753-45.152-54.963
			c-22.812-8.21-50.956-2.391-66.115,16.529c-15.16,18.92-13.392,50.255,5.822,65.04
			C639.686,553.157,605.681,576.63,580.328,591.212z"/>
		<path style="clip-path:url(#SVGID_00000098914022670131857640000004078253146295760259_);fill:#72565E;" d="M586.122,579.327
			c-31.544-59.084-18.96-136.422,31.283-181.098c23.674-21.052,54.398-34.669,85.935-37.887
			c31.387-3.203,62.703,4.064,89.705,20.324c30.015,18.074,53.845,46.303,65.345,79.507c2.14,6.18,12.021,3.523,9.859-2.718
			c-21.969-63.434-85.036-109.463-152.617-108.092c-34.266,0.695-68.223,12.724-95.476,33.459
			c-27.904,21.231-47.765,51.113-56.418,85.123c-9.9,38.911-5.389,81.06,13.555,116.543
			C580.393,590.295,589.223,585.136,586.122,579.327L586.122,579.327z"/>
		<path style="clip-path:url(#SVGID_00000098914022670131857640000004078253146295760259_);fill:#72565E;" d="M640.297,532.235
			c-3.731,10.746-14.644,18.366-25.982,18.572c-11.384,0.206-21.411-7.812-25.266-18.308c-4.173-11.362,0.008-23.502,9.77-30.546
			c4.632-3.342,10.214-5.405,15.951-5.4c3.773,0.003,13.727,2.292,10.142,8.049c-3.742,6.01-11.628,2.27-15.523-1.306
			c-4.558-4.185-7.694-9.772-9.397-15.686c-3.236-11.241-1.492-24.118,5.762-33.483c7.186-9.276,19.056-14.405,30.678-14.264
			c5.658,0.069,11.952,1.283,16.592,4.695c2.012,1.479,4.779,4.003,4.653,6.752c-0.132,2.867-3.097,4.147-5.664,4.063
			c-6.025-0.196-9.87-7.231-11.557-12.185c-1.839-5.397-2.281-11.278-1.303-16.895c2.032-11.669,9.614-21.755,20.887-25.858
			c11.28-4.105,24.713-2.581,33.918,5.461c8.583,7.499,13.361,19.497,11.77,30.858c-0.301,2.151-0.801,6.754-3.332,7.378
			c-3.251,0.801-4.938-3.82-5.368-6.177c-1.051-5.76,0.388-12.205,2.892-17.408c5.221-10.845,15.865-18.882,28.119-19.175
			c11.345-0.271,23.054,5.253,29.23,14.947c6.48,10.17,6.556,23.882,0.66,34.333c-1.364,2.419-2.998,4.968-5.229,6.675
			c-3.191,2.441-2.76-0.191-1.947-2.839c1.605-5.227,5.128-9.824,9.258-13.325c8.53-7.231,21.036-10.074,31.501-5.561
			c10.274,4.431,18.008,15.006,19.083,26.148c1.135,11.767-5.628,22.852-15.601,28.762c-4.934,2.924-10.329,4.37-16.056,4.326
			c-6.581-0.05-6.588,10.175,0,10.225c17.356,0.133,33.439-11.211,39.592-27.385c6.046-15.892-0.039-34.381-12.86-45.103
			c-13.45-11.247-32.225-12.166-47.067-2.952c-6.67,4.141-12.387,10.111-15.752,17.242c-3.146,6.668-5.251,17.104,3.099,21
			c8.615,4.02,16.552-4.807,20.466-11.443c4.355-7.384,6.448-16.254,5.971-24.806c-0.998-17.863-12.655-32.604-29.56-38.245
			c-16.896-5.637-35.403-0.067-46.471,13.838c-8.855,11.125-17.562,38.492,0.384,46.062c8.979,3.788,16.199-2.575,18.317-11.109
			c2.022-8.147,1.363-17.096-1.524-24.951c-6.155-16.742-20.948-28.259-38.895-29.17c-17.393-0.884-34.369,8.6-41.763,24.514
			c-6.965,14.993-6.372,36.757,7.088,48.203c6.246,5.311,15.455,6.669,22.299,1.61c7.192-5.316,6.897-14.872,1.647-21.434
			c-11.192-13.989-33.773-13.48-48.699-6.741c-16.018,7.233-26.106,22.718-26.951,40.185c-0.797,16.463,7.914,38.23,25.385,42.906
			c8.12,2.173,17.492-1.278,20.971-9.27c3.509-8.059-1.262-16.013-8.779-19.415c-15.908-7.201-35.364,2.764-43.745,16.81
			c-8.901,14.915-5.029,34.214,7.513,45.838c12.713,11.783,31.784,12.772,45.964,2.878c6.87-4.794,11.842-11.259,14.59-19.174
			C652.319,528.724,642.445,526.047,640.297,532.235L640.297,532.235z"/>
		<g style="clip-path:url(#SVGID_00000098914022670131857640000004078253146295760259_);">
			<path style="fill:#F9D49D;" d="M383.094,496.296c0.825,7.375,1.372,14.94,6.297,20.766c2.789-8.103,7.65-15.21,12.612-22.325
				c6.71-9.622,13.8-18.945,21.385-27.911c14.873-17.64,31.777-32.688,49.217-47.697c3.042-2.61,7.821,2.302,4.921,5.149
				c-15.86,15.636-30.007,33.324-43.701,50.882c-6.901,8.846-13.582,17.882-19.94,27.126c-4.941,7.18-9.484,14.583-15.588,20.735
				c4.565,1.49,9.611,1.496,14.654,1.31c5.914-0.232,11.83-0.503,17.748-0.799c14.008,1.202,28.108,0.785,42.333-1.12
				c2.418-0.328,4.179-1.314,5.42-2.646c9.116-5.045,7.166-20.434-5.475-21.901c-5.298-0.606-10.595-1.225-15.893-1.831
				c23.913-11.291,46.184-25.844,66.484-43.421c9.196-7.966-0.675-21.025-10.902-19.115c-7.389,1.386-14.68,3.109-21.847,5.158
				c18.501-17.883,36.163-36.637,52.908-56.228c8.569-10.016-1.999-24.77-14.115-18.468c-28.705,14.952-54.702,34.036-78.117,55.969
				c3.919-10.82,7.487-21.76,10.576-32.839c2.247-8.002-5.536-17.279-14.085-14.404c-20.438,6.901-27.436,36.109-31.851,55.682
				c-0.426-5.362-1.262-10.693-2.763-15.992c-2.534-8.992-12.928-11.178-19.653-5.39
				C369.087,428.208,379.985,468.647,383.094,496.296z M477.601,461.884c4.586-2.048,9.086-4.446,13.262-7.255
				c3.885-2.619,7.78,2.875,4.248,5.844c-4.386,3.693-9.097,6.745-14.324,9.106c-2.418,1.095-4.893,2.071-7.446,2.802
				c-2.786,0.795-5.877,1.806-8.783,1.918c-1.229,0.042-2.754-0.378-3.412-1.535c-0.552-0.973-0.797-1.713-0.679-2.806
				c0.154-1.321,1.182-2.471,2.406-2.935c2.448-0.94,5.092-1.435,7.577-2.335C472.854,463.822,475.262,462.932,477.601,461.884z
				 M430.366,425.058c0.045-0.918,0.103-1.822,0.173-2.726c0.277-3.551,0.719-7.068,1.314-10.578
				c0.251-1.47,1.755-2.686,3.286-2.381c1.53,0.318,2.612,1.7,2.381,3.286c-0.501,3.425-0.85,6.87-1.033,10.324l-0.092,1.873
				c-0.001,0.026,0.003,0.192-0.002,0.307c-0.006,0.115-0.01,0.459-0.012,0.498c-0.01,0.191-0.019,0.382-0.016,0.574
				c-0.008,0.677,0.047,1.382-0.151,2.024c-0.064,0.252-0.179,0.515-0.242,0.767c-0.001,0.013-0.02,0.152-0.025,0.241
				c-0.034,0.42-0.106,0.851-0.165,1.27c-0.114,1.016-0.209,1.906-0.69,2.841c-0.607,1.171-2.577,1.738-3.365,0.358
				c-0.283-0.487-0.567-0.948-0.707-1.479c-0.118-0.466-0.157-0.966-0.223-1.442c-0.066-0.476-0.119-0.951-0.172-1.427
				c-0.019-0.141-0.036-0.296-0.055-0.45c-0.011-0.039-0.078-0.234-0.098-0.337C430.145,427.475,430.309,426.231,430.366,425.058z
				 M393.877,461.577c0.018-0.114,0.074-0.214,0.105-0.327c0.029-0.075,0.047-0.164,0.076-0.239l0.015-0.038
				c0.279-0.727,0.743-1.343,1.531-1.764c0.761-0.41,1.543-0.461,2.302-0.295c0.064,0.003,0.139,0.032,0.202,0.048
				c0.138,0.045,0.265,0.064,0.404,0.109c0.567,0.156,1.092,0.386,1.558,0.792c0.184,0.162,0.341,0.336,0.551,0.487
				c0.345,0.26,0.663,0.556,0.989,0.93c0.133,0.147,0.266,0.307,0.399,0.454c0.23,0.267,0.422,0.506,0.599,0.809
				c0.542,0.934,1.231,1.977,1.617,2.967c0.635,1.628,1.317,3.349,1.499,5.095c0.143,1.502-0.682,2.956-1.995,3.671
				c-1.299,0.703-2.969,0.608-4.135-0.344c-1.376-1.116-2.438-2.637-3.466-4.068c-0.61-0.848-1.066-1.956-1.557-2.888
				c-0.432-0.839-0.723-1.914-0.776-2.913c0-0.256-0.065-0.489-0.104-0.733C393.604,462.713,393.696,462.143,393.877,461.577z"/>
		</g>
		<g style="clip-path:url(#SVGID_00000098914022670131857640000004078253146295760259_);">
			<path style="fill:#DCB0FF;" d="M392.116,1.383c-0.825-7.375-1.372-14.94-6.297-20.766c-2.789,8.103-7.65,15.21-12.613,22.325
				c-6.71,9.622-13.8,18.945-21.385,27.911c-14.873,17.639-31.777,32.688-49.217,47.697c-3.042,2.61-7.821-2.302-4.921-5.149
				c15.86-15.636,30.007-33.324,43.701-50.882c6.901-8.846,13.582-17.882,19.94-27.126c4.941-7.18,9.484-14.583,15.588-20.735
				c-4.564-1.49-9.611-1.496-14.654-1.31c-5.914,0.232-11.831,0.503-17.748,0.799c-14.008-1.202-28.108-0.785-42.333,1.12
				c-2.418,0.328-4.179,1.314-5.42,2.646c-9.116,5.045-7.166,20.434,5.475,21.901c5.298,0.606,10.595,1.225,15.893,1.831
				c-23.912,11.291-46.184,25.844-66.484,43.421c-9.196,7.966,0.675,21.026,10.902,19.115c7.389-1.386,14.68-3.109,21.847-5.158
				c-18.501,17.882-36.163,36.637-52.908,56.228c-8.569,10.016,1.999,24.77,14.115,18.468
				c28.705-14.952,54.702-34.036,78.117-55.969c-3.919,10.82-7.487,21.76-10.576,32.839c-2.247,8.003,5.536,17.279,14.085,14.404
				c20.438-6.901,27.436-36.109,31.851-55.682c0.426,5.362,1.262,10.692,2.764,15.992c2.534,8.992,12.928,11.178,19.653,5.39
				C406.123,69.471,395.225,29.032,392.116,1.383z M297.609,35.795c-4.586,2.048-9.086,4.445-13.262,7.255
				c-3.885,2.619-7.78-2.875-4.248-5.844c4.386-3.694,9.097-6.745,14.325-9.106c2.418-1.095,4.893-2.071,7.446-2.802
				c2.786-0.795,5.877-1.806,8.783-1.918c1.228-0.042,2.754,0.378,3.412,1.535c0.553,0.973,0.797,1.713,0.679,2.806
				c-0.155,1.321-1.182,2.472-2.406,2.935c-2.448,0.94-5.092,1.436-7.577,2.335C302.355,33.856,299.948,34.747,297.609,35.795z
				 M344.843,72.621c-0.045,0.918-0.103,1.822-0.173,2.726c-0.277,3.551-0.719,7.068-1.314,10.578
				c-0.251,1.47-1.755,2.686-3.286,2.381c-1.53-0.318-2.612-1.7-2.38-3.286c0.501-3.425,0.85-6.87,1.033-10.324l0.092-1.874
				c0.001-0.025-0.003-0.192,0.002-0.307c0.006-0.115,0.01-0.459,0.012-0.498c0.009-0.191,0.019-0.382,0.016-0.574
				c0.008-0.677-0.047-1.382,0.151-2.024c0.064-0.252,0.179-0.515,0.242-0.767c0.001-0.013,0.02-0.152,0.025-0.242
				c0.033-0.42,0.106-0.851,0.165-1.27c0.114-1.017,0.209-1.906,0.689-2.841c0.607-1.171,2.577-1.738,3.365-0.358
				c0.283,0.487,0.567,0.948,0.707,1.479c0.117,0.466,0.157,0.966,0.223,1.442c0.066,0.476,0.119,0.951,0.172,1.427
				c0.019,0.142,0.036,0.296,0.055,0.45c0.011,0.039,0.078,0.234,0.098,0.337C345.065,70.204,344.901,71.448,344.843,72.621z
				 M381.333,36.102c-0.018,0.114-0.074,0.214-0.105,0.327c-0.029,0.075-0.046,0.164-0.076,0.239l-0.015,0.038
				c-0.279,0.727-0.743,1.343-1.531,1.764c-0.761,0.41-1.543,0.461-2.302,0.295c-0.064-0.003-0.139-0.032-0.202-0.048
				c-0.138-0.045-0.265-0.064-0.404-0.109c-0.567-0.156-1.092-0.386-1.558-0.792c-0.184-0.162-0.341-0.336-0.551-0.487
				c-0.345-0.26-0.662-0.557-0.989-0.93c-0.133-0.147-0.266-0.307-0.399-0.454c-0.23-0.267-0.422-0.506-0.599-0.809
				c-0.542-0.934-1.231-1.977-1.617-2.967c-0.635-1.628-1.317-3.349-1.499-5.095c-0.143-1.502,0.682-2.956,1.995-3.671
				c1.299-0.703,2.969-0.608,4.135,0.344c1.376,1.115,2.438,2.637,3.466,4.068c0.61,0.848,1.066,1.956,1.557,2.888
				c0.431,0.839,0.723,1.914,0.776,2.913c0,0.256,0.065,0.489,0.105,0.733C381.606,34.966,381.514,35.536,381.333,36.102z"/>
		</g>
	</g>
</g>
</svg>
