<?xml version="1.0" encoding="UTF-8" standalone="no"?>
<!-- Created with Inkscape (http://www.inkscape.org/) -->

<svg
   width="210mm"
   height="297mm"
   viewBox="0 0 210 297"
   version="1.1"
   id="svg5"
   inkscape:version="1.2.2 (732a01da63, 2022-12-09)"
   sodipodi:docname="cont_2.svg"
   xmlns:inkscape="http://www.inkscape.org/namespaces/inkscape"
   xmlns:sodipodi="http://sodipodi.sourceforge.net/DTD/sodipodi-0.dtd"
   xmlns="http://www.w3.org/2000/svg"
   xmlns:svg="http://www.w3.org/2000/svg">
  <sodipodi:namedview
     id="namedview7"
     pagecolor="#ffffff"
     bordercolor="#000000"
     borderopacity="0.25"
     inkscape:showpageshadow="2"
     inkscape:pageopacity="0.0"
     inkscape:pagecheckerboard="0"
     inkscape:deskcolor="#d1d1d1"
     inkscape:document-units="mm"
     showgrid="false"
     inkscape:zoom="0.45484018"
     inkscape:cx="202.26885"
     inkscape:cy="463.89921"
     inkscape:window-width="1366"
     inkscape:window-height="745"
     inkscape:window-x="-8"
     inkscape:window-y="-8"
     inkscape:window-maximized="1"
     inkscape:current-layer="layer1" />
  <defs
     id="defs2" />
  <g
     inkscape:label="Capa 1"
     inkscape:groupmode="layer"
     id="layer1">
    <path
       style="fill:#b5ecf0;fill-opacity:0.576812;stroke:none;stroke-width:5.51478;stroke-linecap:round;stroke-linejoin:round;stroke-opacity:1"
       d="m 0,148.5 c 0,0 17.275792,-70.537502 56.763313,-65.896877 39.487525,4.640625 79.797707,5.568749 96.250837,-14.849999 C 169.46729,47.334376 210,0 210,0 H 0 Z"
       id="path1183" />
    <path
       style="fill:#cfb5f0;fill-opacity:0.576812;stroke:none;stroke-width:5.51478;stroke-linecap:round;stroke-linejoin:round;stroke-opacity:1"
       d="M 210,148.5 C 210,145.25156 195.7923,62.184375 154.65947,50.118749 113.52663,38.053125 125.45515,59.864061 86.790285,65.432813 48.125419,71.001562 39.487522,40.8375 31.672284,37.124998 23.857045,33.4125 0,37.589062 0,42.693751 0,47.798436 0,148.5 0,148.5 Z"
       id="path3237" />
    <path
       style="fill:#d8f0b5;fill-opacity:0.576812;stroke:none;stroke-width:5.51478;stroke-linecap:round;stroke-linejoin:round;stroke-opacity:1"
       d="m 105,0 c 0,0 -19.838304,35.147474 0,41.765623 19.8383,6.618152 31.02144,18.892208 28.6176,38.682041 C 131.21375,100.2375 210,148.5 210,148.5 210,148.5 210,0 210,0 Z"
       id="path4967" />
    <path
       style="fill:#b5ecf0;fill-opacity:0.576812;stroke:none;stroke-width:5.51478;stroke-linecap:round;stroke-linejoin:round;stroke-opacity:1"
       d="m 0,148.5 c 0,0 17.275792,70.5375 56.763313,65.89687 39.487525,-4.64062 79.797707,-5.56875 96.250837,14.85001 C 169.46729,249.66562 210,297 210,297 H 0 Z"
       id="path6535" />
    <path
       style="fill:#cfb5f0;fill-opacity:0.576812;stroke:none;stroke-width:5.51478;stroke-linecap:round;stroke-linejoin:round;stroke-opacity:1"
       d="m 210,148.5 c 0,3.24844 -14.2077,86.31563 -55.34053,98.38125 -41.13284,12.06562 -29.20432,-9.74532 -67.869185,-15.31407 C 48.125419,225.99843 39.487522,256.16249 31.672284,259.87501 23.857045,263.58749 0,259.41094 0,254.30624 0,249.20156 0,148.5 0,148.5 Z"
       id="path6537" />
    <path
       style="fill:#d8f0b5;fill-opacity:0.576812;stroke:none;stroke-width:5.51478;stroke-linecap:round;stroke-linejoin:round;stroke-opacity:1"
       d="m 105,297 c 0,0 -19.838304,-35.14748 0,-41.76562 19.8383,-6.61815 31.02144,-18.89221 28.6176,-38.68204 C 131.21375,196.7625 210,148.5 210,148.5 c 0,0 0,148.5 0,148.5 z"
       id="path6539" />
  </g>
</svg>
