<?xml version="1.0" encoding="UTF-8" standalone="no"?>
<!-- Created with Inkscape (http://www.inkscape.org/) -->

<svg
   width="210mm"
   height="297mm"
   viewBox="0 0 210 297"
   version="1.1"
   id="svg1"
   sodipodi:docname="moon pattern.svg"
   inkscape:version="1.2.2 (732a01da63, 2022-12-09)"
   xmlns:inkscape="http://www.inkscape.org/namespaces/inkscape"
   xmlns:sodipodi="http://sodipodi.sourceforge.net/DTD/sodipodi-0.dtd"
   xmlns:xlink="http://www.w3.org/1999/xlink"
   xmlns="http://www.w3.org/2000/svg"
   xmlns:svg="http://www.w3.org/2000/svg">
  <sodipodi:namedview
     id="namedview1"
     pagecolor="#ffffff"
     bordercolor="#000000"
     borderopacity="0.25"
     inkscape:showpageshadow="2"
     inkscape:pageopacity="0.0"
     inkscape:pagecheckerboard="0"
     inkscape:deskcolor="#d1d1d1"
     inkscape:document-units="mm"
     inkscape:zoom="0.48907828"
     inkscape:cx="543.88022"
     inkscape:cy="500.94231"
     inkscape:window-width="1366"
     inkscape:window-height="745"
     inkscape:window-x="-8"
     inkscape:window-y="-8"
     inkscape:window-maximized="1"
     inkscape:current-layer="layer1"
     showgrid="false" />
  <defs
     id="defs1">
    <linearGradient
       inkscape:collect="always"
       id="linearGradient1074">
      <stop
         style="stop-color:#ffd0d0;stop-opacity:1;"
         offset="0"
         id="stop1070" />
      <stop
         style="stop-color:#ffffff;stop-opacity:1;"
         offset="0.5"
         id="stop1078" />
      <stop
         style="stop-color:#ffd0d0;stop-opacity:1;"
         offset="1"
         id="stop1072" />
    </linearGradient>
    <linearGradient
       inkscape:collect="always"
       xlink:href="#linearGradient1074"
       id="linearGradient1076"
       x1="105"
       y1="0"
       x2="105"
       y2="297"
       gradientUnits="userSpaceOnUse" />
  </defs>
  <g
     inkscape:label="Capa 1"
     inkscape:groupmode="layer"
     id="layer1">
    <rect
       style="fill:url(#linearGradient1076);fill-opacity:1;stroke-width:5.192;stroke-linecap:round;stroke-linejoin:round"
       id="rect1045"
       width="210"
       height="297"
       x="0"
       y="0" />
    <path
       style="fill:#dddddd;fill-opacity:1;stroke:none;stroke-width:0.915677;stroke-linejoin:bevel;stroke-dasharray:none;stroke-dashoffset:0;stroke-opacity:1"
       d="m 166.58999,104.78093 c 0,0 -15.72489,17.33137 -23.4879,15.8288 -7.76301,-1.50258 -10.72274,-15.8288 -10.72274,-15.8288 0,0 -13.81131,7.41851 -19.40303,6.12727 -5.59174,-1.29124 -10.21213,-9.70152 -10.21213,-9.70152 0,0 -24.175813,25.28248 -34.721243,23.4879 -10.54543,-1.79458 -13.27577,-17.87122 -13.27577,-17.87122 0,0 -15.20111,8.90602 -21.95607,7.14849 -6.75495,-1.75754 -11.87253,-6.90246 -14.8076,-11.74395 -2.93505,-4.841488 -5.57344,-9.696527 -3.06362,-16.339416 2.50984,-6.64288 16.77941,-14.21182 23.99851,-13.27576 7.2191,0.93606 11.74394,11.23334 11.74394,11.23334 0,0 19.70087,-19.0033 28.33866,-17.10532 8.63781,1.898 14.04168,13.53107 14.04168,13.53107 0,0 15.230333,-17.05881 21.956063,-15.57349 6.72573,1.48533 7.14848,12.50986 7.14848,12.50986 0,0 16.85742,-9.18482 23.48792,-7.14849 6.6305,2.03632 10.72272,13.27577 10.72272,13.27577 0,0 11.98625,-6.53169 18.38183,-5.61667 6.39561,0.91501 14.77366,3.14085 16.33942,10.72273 1.56575,7.581877 -8.5543,21.118336 -14.80758,22.466676 -6.25328,1.34835 -9.70154,-6.12727 -9.70154,-6.12727 z"
       id="path73"
       sodipodi:nodetypes="czczczczzzzczczczczzzc" />
    <path
       style="fill:#959595;fill-opacity:1;stroke:none;stroke-width:0.440775;stroke-linejoin:bevel;stroke-dasharray:none;stroke-dashoffset:0;stroke-opacity:1"
       d="m 125.89394,16.268032 c 0,0 7.56941,-8.3427114 11.30625,-7.6194244 3.73684,0.723286 5.16155,7.6194244 5.16155,7.6194244 0,0 6.64828,-3.57101 9.33994,-2.949452 2.69167,0.621558 4.91576,4.669971 4.91576,4.669971 0,0 11.63739,-12.1700975 16.71359,-11.3062484 5.0762,0.863848 6.39049,8.6025764 6.39049,8.6025764 0,0 7.31728,-4.287046 10.56888,-3.441029 3.2516,0.846017 5.71502,3.322601 7.12786,5.653124 1.41283,2.330522 2.68286,4.667568 1.47472,7.865218 -1.20815,3.197651 -8.07702,6.841075 -11.55204,6.390488 -3.47502,-0.450586 -5.65312,-5.407339 -5.65312,-5.407339 0,0 -9.48331,9.14753 -13.64124,8.233901 -4.15794,-0.913629 -6.75917,-6.513382 -6.75917,-6.513382 0,0 -7.33135,8.211517 -10.56888,7.496532 -3.23753,-0.714986 -3.44103,-6.021806 -3.44103,-6.021806 0,0 -8.11457,4.421247 -11.30626,3.441032 -3.19169,-0.980215 -5.16154,-6.390488 -5.16154,-6.390488 0,0 -5.76976,3.144125 -8.84837,2.703667 -3.07862,-0.440457 -7.11152,-1.511897 -7.86522,-5.161546 -0.7537,-3.649649 4.11774,-10.165624 7.12785,-10.814671 3.01011,-0.649048 4.66998,2.949452 4.66998,2.949452 z"
       id="path72"
       sodipodi:nodetypes="czczczczzzzczczczczzzc" />
    <path
       sodipodi:type="star"
       style="fill:#e9e9e9;fill-opacity:1;stroke:none;stroke-width:0.328999;stroke-linejoin:bevel"
       id="path58"
       inkscape:flatsided="false"
       sodipodi:sides="5"
       sodipodi:cx="130.63509"
       sodipodi:cy="18.170326"
       sodipodi:r1="4.2768512"
       sodipodi:r2="2.1912856"
       sodipodi:arg1="-0.1798535"
       sodipodi:arg2="0.44846503"
       inkscape:rounded="0"
       inkscape:randomized="0"
       d="m 134.84295,17.40526 -2.23327,1.71517 0.0533,2.815395 -2.32134,-1.593947 -2.66112,0.920721 0.7986,-2.700284 -1.69799,-2.246358 2.8149,-0.07492 1.61171,-2.309047 0.9411,2.653981 z"
       inkscape:transform-center-x="2.099936"
       inkscape:transform-center-y="3.4716531"
       transform="matrix(0.79921196,-2.4180106,2.4180106,0.79921196,-60.726451,327.26426)" />
    <path
       sodipodi:type="star"
       style="fill:#cccccc;fill-opacity:1;stroke:none;stroke-width:0.328999;stroke-linejoin:bevel"
       id="path59"
       inkscape:flatsided="false"
       sodipodi:sides="5"
       sodipodi:cx="130.44382"
       sodipodi:cy="18.265959"
       sodipodi:r1="4.3913283"
       sodipodi:r2="2.2499392"
       sodipodi:arg1="0.61518624"
       sodipodi:arg2="1.2435048"
       inkscape:rounded="0"
       inkscape:randomized="0"
       d="m 134.03007,20.800241 -2.86294,-0.403778 -2.02535,2.063357 -0.50068,-2.847591 -2.58823,-1.288604 2.5535,-1.35613 0.42572,-2.859758 2.07884,2.009457 2.85134,-0.478824 -1.26871,2.598043 z"
       inkscape:transform-center-x="-2.8778534"
       inkscape:transform-center-y="-4.2878328"
       transform="matrix(0.79921196,-2.4180106,2.4180106,0.79921196,-54.318139,318.35265)" />
    <path
       style="fill:#e9e9e9;fill-opacity:1;stroke:none;stroke-width:0.328999;stroke-linejoin:bevel"
       d="M 77.634498,45.258322 51.734914,58.580045 h 22.281764 l 4.26024,-12.679304 z"
       id="path57" />
    <path
       style="fill:#acacac;fill-opacity:1;stroke:none;stroke-width:0.328999;stroke-linejoin:bevel"
       d="m 51.546346,58.575391 h 27.829292 v 4.255683 H 51.402894 Z"
       id="path19" />
    <path
       style="fill:#bebebe;stroke:#bebebe;stroke-width:0.492117;stroke-linejoin:bevel"
       d="m 29.323903,5.4429976 c 0,0 -40.641563,36.2659594 -9.013047,66.2715224 31.628516,30.00557 66.652992,-14.090701 66.652992,-14.090701 0,0 -29.646383,14.665814 -49.540833,-5.228636 C 17.528565,32.500733 29.323903,5.4429976 29.323903,5.4429976 Z"
       id="path1"
       sodipodi:nodetypes="czczc" />
    <path
       style="fill:#bebebe;stroke:#bebebe;stroke-width:0.328999;stroke-linejoin:bevel"
       d="m 20.08299,69.238504 v 36.723186 l 0.41012,-0.0794 0.135247,-36.584018 z"
       id="path2" />
    <path
       style="fill:#bebebe;stroke:#bebebe;stroke-width:0.328999;stroke-linejoin:bevel"
       d="m 28.068372,76.315367 c 0,0 0.334133,9.809792 4.972347,12.104991 4.638215,2.2952 7.364348,-9.283807 7.364348,-9.283807 h -0.573802 c 0,0 -2.72613,10.95739 -6.503645,8.805642 -3.777517,-2.15175 -4.781083,-11.626826 -4.781083,-11.626826 z"
       id="path3"
       sodipodi:nodetypes="csccscc" />
    <path
       style="fill:#bebebe;stroke:#bebebe;stroke-width:0.328999;stroke-linejoin:bevel"
       d="m 81.353768,62.8741 v 24.614756 l 0.45856,-0.122869 V 62.806478 Z"
       id="path4" />
    <path
       style="fill:#a4a4a4;fill-opacity:1;stroke:none;stroke-width:0.328999;stroke-linejoin:bevel"
       d="m 63.238964,62.600691 c 0,0 -0.407891,-1.012849 0.644074,-1.012849 1.051968,0 3.634065,2.773365 4.494766,4.972931 0.8607,2.199566 1.587232,7.230092 1.243232,7.650662 -0.488152,0.596809 -0.980385,0.05713 -0.980385,0.05713 l 0.439547,-0.257812 c 0,0 0.05598,0.09104 0.219777,-0.04649 0.150357,-0.126244 -0.456456,-4.902662 -1.301742,-6.998975 -0.845288,-2.096309 -2.569674,-4.395491 -3.65164,-4.868852 -1.081968,-0.473361 -0.718494,0.524078 -0.718494,0.524078 z"
       id="path5"
       sodipodi:nodetypes="csssccssscc" />
    <path
       style="fill:#a4a4a4;fill-opacity:1;stroke:none;stroke-width:0.328999;stroke-linejoin:bevel"
       d="m 64.743738,76.602268 v 19.126658 l -0.350004,0.202079 -0.065,-19.108468 z"
       id="path6"
       sodipodi:nodetypes="ccccc" />
    <path
       sodipodi:type="star"
       style="fill:#bebebe;fill-opacity:1;stroke:none;stroke-width:0.328999;stroke-linejoin:bevel"
       id="path7"
       inkscape:flatsided="false"
       sodipodi:sides="5"
       sodipodi:cx="38.779301"
       sodipodi:cy="112.51257"
       sodipodi:r1="4.6676984"
       sodipodi:r2="2.3915401"
       sodipodi:arg1="0.90885469"
       sodipodi:arg2="1.5371732"
       inkscape:rounded="0"
       inkscape:randomized="0"
       d="m 41.6483,116.19446 -2.788603,-1.2917 -2.695505,1.47616 0.366748,-3.05128 -2.236864,-2.10742 3.015266,-0.59409 1.313046,-2.77862 1.496788,2.6841 3.048372,0.39015 -2.090199,2.25296 z"
       inkscape:transform-center-x="0.048489262"
       inkscape:transform-center-y="-0.39935945"
       transform="translate(-18.457226,-2.5342822)" />
    <path
       sodipodi:type="star"
       style="fill:#bebebe;fill-opacity:1;stroke:none;stroke-width:0.328999;stroke-linejoin:bevel"
       id="path8"
       inkscape:flatsided="false"
       sodipodi:sides="5"
       sodipodi:cx="38.779301"
       sodipodi:cy="112.51257"
       sodipodi:r1="4.6676984"
       sodipodi:r2="2.3915401"
       sodipodi:arg1="0.90885469"
       sodipodi:arg2="1.5371732"
       inkscape:rounded="0"
       inkscape:randomized="0"
       d="m 41.6483,116.19446 -2.788603,-1.2917 -2.695505,1.47616 0.366748,-3.05128 -2.236864,-2.10742 3.015266,-0.59409 1.313046,-2.77862 1.496788,2.6841 3.048372,0.39015 -2.090199,2.25296 z"
       inkscape:transform-center-x="0.028411868"
       inkscape:transform-center-y="-0.23399748"
       transform="matrix(0.58593198,0,0,0.58593198,58.996617,23.588052)" />
    <path
       sodipodi:type="star"
       style="fill:#a2a2a2;fill-opacity:1;stroke:none;stroke-width:0.328999;stroke-linejoin:bevel"
       id="path9"
       inkscape:flatsided="false"
       sodipodi:sides="5"
       sodipodi:cx="38.779301"
       sodipodi:cy="112.51257"
       sodipodi:r1="4.6676984"
       sodipodi:r2="2.3915401"
       sodipodi:arg1="0.90885469"
       sodipodi:arg2="1.5371732"
       inkscape:rounded="0"
       inkscape:randomized="0"
       d="m 41.6483,116.19446 -2.788603,-1.2917 -2.695505,1.47616 0.366748,-3.05128 -2.236864,-2.10742 3.015266,-0.59409 1.313046,-2.77862 1.496788,2.6841 3.048372,0.39015 -2.090199,2.25296 z"
       inkscape:transform-center-x="0.028411868"
       inkscape:transform-center-y="-0.23399748"
       transform="matrix(0.58593198,0,0,0.58593198,42.069524,31.908149)" />
    <path
       style="fill:#bebebe;fill-opacity:1;stroke:none;stroke-width:0.328999;stroke-linejoin:bevel"
       d="M 51.329176,62.738856 V 48.605658 h 28.334012 v 13.997951 h -0.54098 V 49.011397 H 51.734914 V 62.8741 Z"
       id="path18" />
    <path
       style="fill:#acacac;fill-opacity:1;stroke:none;stroke-width:0.328999;stroke-linejoin:bevel"
       d="m 52.8579,58.613856 v -9.602459 h 0.405739 l 0.03381,9.63627 z"
       id="path21" />
    <path
       style="fill:#acacac;fill-opacity:1;stroke:none;stroke-width:0.328999;stroke-linejoin:bevel"
       d="m 54.435849,58.613856 v -9.602459 h 0.405739 l 0.03381,9.63627 z"
       id="path23" />
    <path
       style="fill:#acacac;fill-opacity:1;stroke:none;stroke-width:0.328999;stroke-linejoin:bevel"
       d="m 55.942074,58.613856 v -9.602459 h 0.405739 l 0.03381,9.63627 z"
       id="path25" />
    <path
       style="fill:#acacac;fill-opacity:1;stroke:none;stroke-width:0.328999;stroke-linejoin:bevel"
       d="m 57.496115,58.613856 v -9.602459 h 0.405739 l 0.03381,9.63627 z"
       id="path27" />
    <path
       style="fill:#acacac;fill-opacity:1;stroke:none;stroke-width:0.328999;stroke-linejoin:bevel"
       d="m 59.050156,58.613856 v -9.602459 h 0.405739 l 0.03381,9.63627 z"
       id="path29" />
    <path
       style="fill:#acacac;fill-opacity:1;stroke:none;stroke-width:0.328999;stroke-linejoin:bevel"
       d="m 60.556381,58.613856 v -9.602459 h 0.405739 l 0.03381,9.63627 z"
       id="path31" />
    <path
       style="fill:#acacac;fill-opacity:1;stroke:none;stroke-width:0.328999;stroke-linejoin:bevel"
       d="m 62.014788,58.613856 v -9.602459 h 0.405739 l 0.03381,9.63627 z"
       id="path33" />
    <path
       style="fill:#acacac;fill-opacity:1;stroke:none;stroke-width:0.328999;stroke-linejoin:bevel"
       d="m 63.616645,58.613856 v -9.602459 h 0.405739 l 0.03381,9.63627 z"
       id="path35" />
    <path
       style="fill:#acacac;fill-opacity:1;stroke:none;stroke-width:0.328999;stroke-linejoin:bevel"
       d="m 65.12287,58.613856 v -9.602459 h 0.405739 l 0.03381,9.63627 z"
       id="path37" />
    <path
       style="fill:#acacac;fill-opacity:1;stroke:none;stroke-width:0.328999;stroke-linejoin:bevel"
       d="m 66.653002,58.613856 v -9.602459 h 0.405739 l 0.03381,9.63627 z"
       id="path39" />
    <path
       style="fill:#acacac;fill-opacity:1;stroke:none;stroke-width:0.328999;stroke-linejoin:bevel"
       d="m 68.302676,58.613856 v -9.602459 h 0.405739 l 0.03381,9.63627 z"
       id="path41" />
    <path
       style="fill:#acacac;fill-opacity:1;stroke:none;stroke-width:0.328999;stroke-linejoin:bevel"
       d="m 69.808901,58.613856 v -9.602459 h 0.405739 l 0.03381,9.63627 z"
       id="path43" />
    <path
       style="fill:#acacac;fill-opacity:1;stroke:none;stroke-width:0.328999;stroke-linejoin:bevel"
       d="m 71.339033,58.613856 v -9.602459 h 0.405739 l 0.03381,9.63627 z"
       id="path45" />
    <path
       style="fill:#acacac;fill-opacity:1;stroke:none;stroke-width:0.328999;stroke-linejoin:bevel"
       d="m 72.964798,58.613856 v -9.602459 h 0.40574 l 0.0338,9.63627 z"
       id="path47" />
    <path
       style="fill:#acacac;fill-opacity:1;stroke:none;stroke-width:0.328999;stroke-linejoin:bevel"
       d="m 74.471028,58.613856 v -9.602459 h 0.40574 l 0.0338,9.63627 z"
       id="path49" />
    <path
       style="fill:#acacac;fill-opacity:1;stroke:none;stroke-width:0.328999;stroke-linejoin:bevel"
       d="m 76.025068,58.613856 v -9.602459 h 0.40574 l 0.0338,9.63627 z"
       id="path51" />
    <path
       style="fill:#acacac;fill-opacity:1;stroke:none;stroke-width:0.328999;stroke-linejoin:bevel"
       d="m 77.579108,58.613856 v -9.602459 h 0.40574 l 0.0338,9.63627 z"
       id="path53" />
    <path
       style="fill:#acacac;fill-opacity:1;stroke:none;stroke-width:0.328999;stroke-linejoin:bevel"
       d="m 79.085338,58.613856 v -9.602459 h 0.40574 l 0.0338,9.63627 z"
       id="path55" />
    <path
       style="fill:#acacac;fill-opacity:1;stroke:none;stroke-width:0.328999;stroke-linejoin:bevel"
       d="m 79.663188,49.079019 0.77767,-1.251024 -1.99488,-1.994876 0.13102,-0.131019 -0.67623,-0.67623 -0.24513,0.245134 2.58235,2.582349 -0.60236,1.043313 z"
       id="path56" />
    <circle
       style="fill:none;fill-opacity:1;stroke:#bebebe;stroke-width:0.328999;stroke-linejoin:bevel;stroke-dasharray:0.328999, 0.328999;stroke-dashoffset:0;stroke-opacity:1"
       id="path64"
       cx="165.92494"
       cy="14.822335"
       r="10.13713" />
    <circle
       style="fill:none;fill-opacity:1;stroke:#bebebe;stroke-width:0.328999;stroke-linejoin:bevel;stroke-dasharray:none;stroke-dashoffset:0;stroke-opacity:1"
       id="path65"
       cx="165.87909"
       cy="14.877048"
       r="8.7233601" />
    <circle
       style="fill:none;fill-opacity:1;stroke:#bebebe;stroke-width:0.328999;stroke-linejoin:bevel;stroke-dasharray:0.32899901,0.32899901;stroke-dashoffset:0;stroke-opacity:1"
       id="path66"
       cx="178.16483"
       cy="32.706585"
       r="21.80439" />
    <circle
       style="fill:none;fill-opacity:1;stroke:#bebebe;stroke-width:0.343;stroke-linejoin:bevel;stroke-dasharray:none;stroke-dashoffset:0;stroke-opacity:1"
       id="circle66"
       cx="178.16483"
       cy="32.706585"
       r="19.705364" />
    <path
       style="fill:#cccccc;fill-opacity:1;stroke:none;stroke-width:0.85964;stroke-linejoin:bevel;stroke-dasharray:none;stroke-dashoffset:0;stroke-opacity:1"
       d="m 173.46844,38.660863 c 0.0757,0.355591 0.71758,1.700074 2.68375,1.762981 1.07207,0.0343 1.10247,-1.541747 3.78015,-2.642386 2.36912,-0.973799 3.43004,0.747628 4.60157,-0.460057 1.19472,-1.231593 0.95074,-3.011629 0.75691,-3.592368 -0.19382,-0.580739 -4.11471,-5.427437 -8.35325,-3.931602 -4.23854,1.495835 -3.5448,8.50784 -3.46913,8.863432 z"
       id="path67"
       sodipodi:nodetypes="zssszzz" />
    <path
       style="fill:#cccccc;fill-opacity:1;stroke:none;stroke-width:1.22435;stroke-linejoin:bevel;stroke-dasharray:none;stroke-dashoffset:0;stroke-opacity:1"
       d="m 172.58655,34.574528 c -0.49428,0.59028 -1.83484,0.487427 -2.57325,-0.1707 -0.73841,-0.658109 -0.0915,-2.192196 0.13935,-2.487237 0.23057,-0.295059 1.14627,-0.88982 2.24187,-0.174659 1.09563,0.71515 0.68631,2.242311 0.19198,2.832588 z"
       id="path68"
       sodipodi:nodetypes="zzzzz" />
    <path
       style="fill:#cccccc;fill-opacity:1;stroke:none;stroke-width:1.22435;stroke-linejoin:bevel;stroke-dasharray:none;stroke-dashoffset:0;stroke-opacity:1"
       d="m 175.01805,29.571226 c -0.49428,0.59028 -1.83484,0.487427 -2.57325,-0.170699 -0.73841,-0.658109 -0.0915,-2.192197 0.13934,-2.487238 0.23058,-0.295059 1.14628,-0.88982 2.24188,-0.174659 1.09562,0.715151 0.68631,2.242311 0.19198,2.832589 z"
       id="path69"
       sodipodi:nodetypes="zzzzz" />
    <path
       style="fill:#cccccc;fill-opacity:1;stroke:none;stroke-width:1.22435;stroke-linejoin:bevel;stroke-dasharray:none;stroke-dashoffset:0;stroke-opacity:1"
       d="m 180.03788,27.757488 c -0.16641,0.751707 -1.40329,1.27865 -2.362,1.035205 -0.95871,-0.243431 -1.09211,-1.902995 -1.02337,-2.271236 0.0684,-0.36814 0.60679,-1.318165 1.90872,-1.188831 1.30197,0.129321 1.64304,1.673153 1.4766,2.42488 z"
       id="path70"
       sodipodi:nodetypes="zzzzz" />
    <path
       style="fill:#cccccc;fill-opacity:1;stroke:none;stroke-width:1.22435;stroke-linejoin:bevel;stroke-dasharray:none;stroke-dashoffset:0;stroke-opacity:1"
       d="m 184.94604,28.815925 c -0.10677,0.762474 -1.29828,1.385172 -2.27316,1.217967 -0.9749,-0.167191 -1.23858,-1.811097 -1.19903,-2.183608 0.0394,-0.372394 0.5011,-1.361849 1.8092,-1.335426 1.3081,0.02639 1.76965,1.538591 1.66294,2.301087 z"
       id="path71"
       sodipodi:nodetypes="zzzzz" />
    <path
       style="fill:#dddddd;fill-opacity:1;stroke:none;stroke-width:0.343001;stroke-linejoin:bevel;stroke-dasharray:none;stroke-dashoffset:0;stroke-opacity:1"
       d="m 65.413172,122.21935 v 48.39044 l 1.118542,-0.29971 v -47.89946 z"
       id="path74" />
    <path
       sodipodi:type="star"
       style="fill:#dddddd;fill-opacity:1;stroke:none;stroke-width:0.328999;stroke-linejoin:bevel"
       id="path75"
       inkscape:flatsided="false"
       sodipodi:sides="5"
       sodipodi:cx="38.779301"
       sodipodi:cy="112.51257"
       sodipodi:r1="4.6676984"
       sodipodi:r2="2.3915401"
       sodipodi:arg1="0.90885469"
       sodipodi:arg2="1.5371732"
       inkscape:rounded="0"
       inkscape:randomized="0"
       d="m 41.6483,116.19446 -2.788603,-1.2917 -2.695505,1.47616 0.366748,-3.05128 -2.236864,-2.10742 3.015266,-0.59409 1.313046,-2.77862 1.496788,2.6841 3.048372,0.39015 -2.090199,2.25296 z"
       inkscape:transform-center-x="0.048489262"
       inkscape:transform-center-y="-0.39935945"
       transform="translate(27.255489,60.583692)" />
    <text
       xml:space="preserve"
       style="font-style:normal;font-variant:normal;font-weight:normal;font-stretch:normal;font-size:29.1276px;font-family:'Century Gothic';-inkscape-font-specification:'Century Gothic, Normal';font-variant-ligatures:normal;font-variant-caps:normal;font-variant-numeric:normal;font-variant-east-asian:normal;fill:#acacac;fill-opacity:0.62318838;stroke-width:0.760548;stroke-linecap:round;stroke-linejoin:round"
       x="5.7153325"
       y="44.708282"
       id="text399"><tspan
         sodipodi:role="line"
         id="tspan397"
         style="font-style:normal;font-variant:normal;font-weight:normal;font-stretch:normal;font-size:29.1276px;font-family:'Century Gothic';-inkscape-font-specification:'Century Gothic, Normal';font-variant-ligatures:normal;font-variant-caps:normal;font-variant-numeric:normal;font-variant-east-asian:normal;fill:#acacac;fill-opacity:0.62318838;stroke-width:0.760548"
         x="5.7153325"
         y="44.708282">LITTLEREGRESS</tspan></text>
  </g>
</svg>
