<?xml version="1.0" encoding="UTF-8" standalone="no"?>
<!-- Created with Inkscape (http://www.inkscape.org/) -->

<svg
   width="41.875988mm"
   height="99.296646mm"
   viewBox="0 0 41.875988 99.296646"
   version="1.1"
   id="svg1"
   xmlns:xlink="http://www.w3.org/1999/xlink"
   xmlns="http://www.w3.org/2000/svg"
   xmlns:svg="http://www.w3.org/2000/svg">
  <defs
     id="defs1">
    <linearGradient
       xlink:href="#linearGradient39"
       id="linearGradient40"
       x1="97.227516"
       y1="43.854565"
       x2="89.807831"
       y2="43.855957"
       gradientUnits="userSpaceOnUse"
       gradientTransform="matrix(-0.4927312,0.70092142,-0.70092142,-0.4927312,118.55808,4.8975319)" />
    <linearGradient
       id="linearGradient39">
      <stop
         style="stop-color:#452b06;stop-opacity:1;"
         offset="0"
         id="stop39" />
      <stop
         style="stop-color:#efac4a;stop-opacity:1;"
         offset="1"
         id="stop40" />
    </linearGradient>
    <linearGradient
       xlink:href="#linearGradient41"
       id="linearGradient42"
       x1="32.358223"
       y1="44.017857"
       x2="24.087139"
       y2="44.068333"
       gradientUnits="userSpaceOnUse"
       gradientTransform="matrix(-0.49792686,-0.69724008,0.69724008,-0.49792686,-0.38793614,93.980403)" />
    <linearGradient
       id="linearGradient41">
      <stop
         style="stop-color:#efac4a;stop-opacity:1;"
         offset="0"
         id="stop41" />
      <stop
         style="stop-color:#452b06;stop-opacity:1;"
         offset="1"
         id="stop42" />
    </linearGradient>
    <linearGradient
       xlink:href="#linearGradient44"
       id="linearGradient45"
       x1="62.061695"
       y1="49.738552"
       x2="62.070137"
       y2="58.213455"
       gradientUnits="userSpaceOnUse"
       gradientTransform="translate(-33.705095,-4.1902441)" />
    <linearGradient
       id="linearGradient44">
      <stop
         style="stop-color:#ffb37d;stop-opacity:1;"
         offset="0"
         id="stop44" />
      <stop
         style="stop-color:#ffafaa;stop-opacity:1;"
         offset="1"
         id="stop45" />
    </linearGradient>
    <linearGradient
       xlink:href="#linearGradient41"
       id="linearGradient49"
       x1="68.386505"
       y1="94.910995"
       x2="69.962265"
       y2="107.4262"
       gradientUnits="userSpaceOnUse"
       gradientTransform="translate(-33.628848,-4.7498821)" />
    <linearGradient
       xlink:href="#linearGradient41"
       id="linearGradient47"
       x1="55.665142"
       y1="96.22184"
       x2="52.86882"
       y2="106.52995"
       gradientUnits="userSpaceOnUse"
       gradientTransform="translate(-33.574852,-4.2514951)" />
    <linearGradient
       xlink:href="#linearGradient51"
       id="linearGradient52"
       x1="92.005463"
       y1="65.750931"
       x2="89.90773"
       y2="84.73568"
       gradientUnits="userSpaceOnUse"
       gradientTransform="matrix(-0.98405583,0.17785982,0.17785982,0.98405583,107.6639,-14.000989)" />
    <linearGradient
       id="linearGradient51">
      <stop
         style="stop-color:#ffafaa;stop-opacity:1;"
         offset="0"
         id="stop51" />
      <stop
         style="stop-color:#452b06;stop-opacity:1;"
         offset="1"
         id="stop52" />
    </linearGradient>
  </defs>
  <g
     id="layer1"
     transform="translate(-7.7525236,-6.3644369)">
    <path
       d="m 32.796753,59.584763 3.01199,3.00457 c 0,0 -3.31245,6.61408 -2.61263,10.46809 0.89979,4.95525 5.33665,9.02662 7.3053,12.09218 0.71449,1.11259 1.07168,4.9788 -0.91653,6.25155 -3.75086,2.40111 -7.12864,-0.9907 -8.25363,-1.91736 -3.655269,-3.01088 -4.945025,-8.58979 -6.469368,-15.15227 -1.600109,-6.88869 7.934868,-14.74676 7.934868,-14.74676 z"
       style="fill:url(#linearGradient52);fill-opacity:1;stroke-width:0.1;stroke-linecap:round;stroke-linejoin:round"
       id="path50" />
    <path
       style="fill:#efac4a;fill-opacity:1;stroke:none;stroke-width:0.1;stroke-linecap:round;stroke-linejoin:round;stroke-dasharray:none;stroke-opacity:1"
       d="m 34.955953,32.419439 c 0,0 1.95482,10.784094 2.16204,15.814724 0.20723,5.03064 0.8975,9.23453 0.94304,15.08405 0.0215,2.75739 0.29544,3.94008 0.1831,4.54911 -0.0576,0.31231 -4.98003,3.92467 -10.311484,3.9081 -5.065277,-0.0157 -10.554606,-3.65305 -10.554606,-3.65305 0,0 -0.04975,-2.16768 0.06488,-4.17929 0.342544,-6.01136 1.309409,-14.2711 1.801303,-16.5697 0.656498,-3.0678 2.372562,-14.933443 2.372562,-14.933443 l 0.01984,-0.06242 c 0,0 5.00802,1.489013 7.293085,1.429713 2.28506,-0.0593 6.02623,-1.387796 6.02623,-1.387796 z"
       id="path33" />
    <path
       style="fill:#efac4a;fill-opacity:1;stroke:none;stroke-width:0.0856782;stroke-linecap:round;stroke-linejoin:round;stroke-dasharray:none;stroke-opacity:1"
       d="m 34.239503,34.746993 13.72747,4.51387 c 0,0 2.27085,1.8422 1.503,4.04211 -0.7679,2.19988 -3.58145,2.27882 -3.58145,2.27882 l -13.72986,-4.51464 c 0,0 -2.14079,-1.76132 -1.52355,-3.75799 0.61729,-1.99666 3.60439,-2.56217 3.60439,-2.56217 z"
       id="path34" />
    <path
       style="fill:#efac4a;fill-opacity:1;stroke:none;stroke-width:0.0856782;stroke-linecap:round;stroke-linejoin:round;stroke-dasharray:none;stroke-opacity:1"
       d="m 21.34764,35.866743 -12.5358711,7.18821 c 0,0 -1.852921,2.26212 -0.657398,4.2621 1.195516,1.99998 3.9672731,1.51016 3.9672731,1.51016 l 12.538046,-7.18945 c 0,0 1.741831,-2.15669 0.734789,-3.98796 -1.007026,-1.83129 -4.046839,-1.78306 -4.046839,-1.78306 z"
       id="path36" />
    <path
       style="fill:url(#linearGradient45);fill-opacity:1;stroke:none;stroke-width:0.1;stroke-linecap:round;stroke-linejoin:round;stroke-dasharray:none;stroke-opacity:1"
       d="m 23.596828,33.170623 c 0,0 -1.866263,13.18488 -1.605374,17.62831 0.26089,4.44343 4.633313,4.8416 6.229188,4.88574 1.595881,0.0441 5.889371,-0.63959 6.089901,-4.9201 0.20053,-4.28051 -1.73226,-17.71734 -1.73226,-17.71734 z"
       id="path42" />
    <path
       style="fill:url(#linearGradient49);fill-opacity:1;stroke:none;stroke-width:0.1;stroke-linecap:round;stroke-linejoin:round;stroke-dasharray:none;stroke-opacity:1"
       d="m 38.281213,67.247253 -0.0722,16.01969 -5.26814,12.91109 c 0,0 2.31317,4.445457 1.44801,5.887157 -0.86516,1.4417 -2.62535,1.85832 -2.62535,1.85832 0,0 -2.90749,-0.006 -3.923478,-1.19184 -1.01598,-1.18584 -1.777835,-3.265347 -1.85466,-4.617567 -0.24822,-4.36897 4.775578,-9.14143 4.648438,-14.76416 -0.18856,-8.33945 -0.2596,-15.82338 -0.2596,-15.82338 0,0 1.7719,-3.08663 4.0106,-3.15886 2.2387,-0.0722 3.8964,2.87955 3.8964,2.87955 z"
       id="path45" />
    <path
       style="fill:url(#linearGradient47);fill-opacity:1;stroke:none;stroke-width:0.1;stroke-linecap:round;stroke-linejoin:round;stroke-dasharray:none;stroke-opacity:1"
       d="m 17.338634,67.745643 0.136009,30.16996 c 0,0 -2.313168,4.445457 -1.448004,5.887157 0.865163,1.4417 2.625351,1.85832 2.625351,1.85832 0,0 2.907491,-0.006 3.923475,-1.19184 1.015984,-1.18584 1.777834,-3.26535 1.854659,-4.617567 0.61637,-10.84888 0.815517,-31.82672 0.815517,-31.82672 0,0 -1.824449,-2.6654 -3.649769,-2.54957 -1.82532,0.11582 -4.257238,2.27026 -4.257238,2.27026 z"
       id="path46" />
    <path
       style="display:inline;fill:#efac4a;fill-opacity:1;stroke:none;stroke-width:1.5;stroke-linecap:round;stroke-linejoin:round"
       d="m 29.829783,16.041815 c 0,0 -0.0453,-1.408614 0.52043,-2.531277 0.56566,-1.122662 4.84251,-6.0129321 5.5241,-6.6117511 0.56922,-0.500099 1.40667,-0.951129 1.94798,0.127216 0.5704,1.136298 1.53661,2.078395 1.87448,6.5288001 0.33789,4.450404 0.36694,6.486023 0.0312,7.301731 -0.33578,0.815709 -9.89817,-4.814719 -9.89817,-4.814719 z"
       id="path2" />
    <path
       style="display:inline;fill:#efac4a;fill-opacity:1;stroke:none;stroke-width:1.5;stroke-linecap:round;stroke-linejoin:round"
       d="m 25.356928,16.424279 c 0,0 -0.194569,-1.395848 -0.942616,-2.406177 -0.748048,-1.010329 -5.79306,-5.1035081 -6.566419,-5.5779171 -0.645866,-0.3962 -1.420834,-0.652092 -1.8981,0.456085 -0.511391,1.1874111 -1.161445,2.3090991 -0.73885,6.7522601 0.4226,4.44316 0.739544,6.454163 1.208924,7.201024 0.469382,0.746862 8.937061,-6.425275 8.937061,-6.425275 z"
       id="path3" />
    <path
       style="display:inline;fill:#ffffff;fill-opacity:1;stroke:none;stroke-width:1.5;stroke-linecap:round;stroke-linejoin:round"
       d="m 35.066773,17.656548 c 0,0 -0.20569,-7.8809141 1.12407,-9.8479191 1.32977,-1.967005 2.19054,1.077943 2.50967,2.6268191 0.31912,1.548877 0.91142,7.229712 0.61752,8.797785 -0.29391,1.568073 -0.47138,2.182653 -0.47138,2.182653 z"
       id="path4" />
    <path
       style="display:inline;fill:#ffffff;fill-opacity:1;stroke:none;stroke-width:1.5;stroke-linecap:round;stroke-linejoin:round"
       d="m 20.574208,18.895773 c 0,0 -1.135258,-7.801428 -2.77967,-9.5141191 -1.644412,-1.712689 -1.975733,1.4341921 -2.027266,3.0147621 -0.05153,1.58057 0.329224,7.279495 0.885078,8.774907 0.555855,1.495412 0.835096,2.070939 0.835096,2.070939 z"
       id="path5" />
    <path
       style="display:inline;fill:#efac4a;fill-opacity:1;stroke:none;stroke-width:1.5;stroke-linecap:round;stroke-linejoin:round"
       d="m 27.825154,14.930546 c 1.421739,-0.08591 4.523689,-0.614378 8.482229,2.398426 1.60106,1.218545 2.89653,1.976296 3.68322,3.917422 0.0126,0.02998 0.41852,0.22986 0.28236,0.305602 -0.0956,0.05321 -0.22061,-0.148236 -0.20801,-0.114487 0.0271,0.07273 0.59089,0.681337 0.45761,0.756269 -0.14009,0.07876 -0.31327,-0.18612 -0.28189,-0.141526 0.14941,0.212271 0.10689,0.133765 0.24652,0.359743 0.0665,0.107679 0.80216,0.881359 0.56229,1.815357 -0.0687,0.267349 -0.43064,-0.731554 -0.4106,-0.609189 0.0416,0.254359 0.11996,0.486216 0.20219,0.746105 0.0356,0.112611 0.32169,0.897634 0.10127,1.037573 -0.0929,0.05899 -0.18916,-0.49525 -0.18198,-0.376113 0.10006,1.659641 -1.51938,4.223849 -2.77581,5.288659 -2.21691,1.878794 -6.60617,4.930066 -7.42597,5.174536 -0.42128,0.12565 -1.05475,0.2072 -1.61863,0.2568 -0.533469,0.0466 -1.184419,0.0617 -1.491359,0.0441 -0.618202,-0.0355 -6.941922,-2.02772 -8.201448,-3.267928 -1.259528,-1.240204 -3.133416,-3.108972 -3.3349,-4.92256 -0.01409,-0.12718 -0.02779,-0.276931 -0.03841,-0.446424 -0.0054,-0.08567 -0.01707,0.234597 -0.104877,0.197161 -0.09262,-0.03948 0.01711,-0.696639 0.02271,-0.792469 0.01287,-0.220392 0.06338,-0.416033 0.07684,-0.673632 0.0067,-0.128234 -0.0026,0.536253 -0.271141,0.48416 -0.401484,-0.07789 0.03676,-0.9996 0.200742,-1.397646 0.12353,-0.299846 0.234178,-0.535804 0.311536,-0.889013 0.01059,-0.04835 -0.08016,0.505522 -0.232614,0.368018 -0.147343,-0.132899 0.289229,-0.613226 0.3017,-0.663288 0.02761,-0.11082 -0.163138,0.260226 -0.271959,0.217231 -0.304717,-0.120393 0.446646,-0.85442 0.479528,-0.957537 0.218424,-0.684967 0.498842,-1.295489 0.922381,-1.992586 1.605761,-2.642906 9.094785,-6.036933 10.516524,-6.122839 z"
       id="path1" />
    <path
       style="display:inline;fill:#ffffff;fill-opacity:1;stroke:none;stroke-width:1.37724;stroke-linecap:round;stroke-linejoin:round"
       d="m 31.790693,25.762741 c -0.36235,-1.211553 0.16924,-2.62698 0.47658,-2.947739 0.37146,-0.387677 1.20247,-1.305191 2.0116,-1.392184 0.80913,-0.087 3.31115,-0.197869 3.59208,2.197438 0.37962,3.236767 -1.2397,3.976763 -1.86963,4.100295 -3.11395,0.610667 -3.84827,-0.746259 -4.21063,-1.95781 z"
       id="path6" />
    <path
       style="display:inline;fill:#ffffff;fill-opacity:1;stroke:none;stroke-width:1.3347;stroke-linecap:round;stroke-linejoin:round"
       d="m 24.913481,26.423993 c 0.146728,-1.216712 -0.536339,-2.591555 -0.882639,-2.84733 -0.418546,-0.309133 -1.42067,-0.938173 -2.207745,-0.88813 -0.787074,0.05004 -3.194866,0.355816 -3.069063,2.689672 0.169995,3.153732 1.838277,3.594036 2.460215,3.608374 3.074455,0.07087 3.552505,-1.345876 3.699232,-2.562586 z"
       id="path7" />
    <path
       style="display:inline;fill:#ffbe92;fill-opacity:1;stroke:none;stroke-width:1.5;stroke-linecap:round;stroke-linejoin:round"
       d="m 29.882293,15.243045 c 0,0 0.20835,2.553969 0.67898,5.616282 0.47013,3.062357 1.21109,5.228912 1.50715,5.527037 0.29607,0.298125 1.07263,1.415874 2.02676,1.334289 0.95413,-0.08159 1.71985,0.309786 2.64028,-0.363788 0.27388,-0.200428 0.70856,-0.623281 0.94721,-1.221083 0.0831,-0.01212 0.16321,-0.02379 0.24052,-0.03501 0.0653,-0.0095 0.21086,-0.307747 0.61998,-0.367951 0.21834,-0.03213 -0.3068,0.322989 -0.24813,0.314691 0.0702,-0.0099 0.44141,-0.314233 0.54236,-0.240917 0.18578,0.134927 -0.27441,0.203482 -0.24275,0.199129 0.10817,-0.01487 0.20885,-0.02838 0.30288,-0.04065 0.0655,-0.0085 0.10735,-0.325253 0.30479,-0.358039 0.0727,-0.01204 -0.0337,0.287684 0.0249,0.232735 0.0518,-0.04882 0.11159,-0.107839 0.17749,-0.159696 0.0334,-0.02627 0.0683,-0.05071 0.10464,-0.07105 0.0319,-0.01789 0.0649,-0.03263 0.0988,-0.04267 0.08,-0.02372 0.165,-0.02123 0.25287,0.02776 0.18085,0.100809 -0.26844,0.290258 -0.19997,0.284367 0.15219,-0.0131 0.23986,-0.01479 0.35597,-0.01756 0.008,-1.59e-4 -0.0746,-0.141678 -0.0558,-0.14322 0.0169,-0.0014 0.1357,0.137133 0.1433,0.137044 0.0601,-7.19e-4 0.0236,-0.145517 0.2479,-0.209597 0.0854,-0.02441 -0.003,0.202362 0.0327,0.200258 0.33616,-0.02001 0.30989,-0.06239 0.30989,-0.06239 0,0 -0.32382,2.168313 -2.2552,4.118775 -1.49957,1.514389 -2.28788,1.982201 -4.15465,3.279472 -1.86242,1.29425 -2.54764,1.71723 -3.09772,2.03186 -0.53609,0.30663 -1.0902,0.44885 -2.29334,0.53485 -1.203139,0.086 -1.569433,0.14544 -2.769872,-0.2872 -0.759765,-0.27379 -2.84241,-0.83668 -3.858695,-1.3355 -1.028458,-0.50479 -2.448347,-0.9661 -3.418052,-1.889796 -0.520207,-0.495521 -2.154847,-2.174742 -2.685767,-3.661812 -0.308782,-0.864879 -0.265381,-1.15626 -0.265381,-1.15626 0,0 0.123656,0.02529 0.3615,0.04496 0.04747,0.004 -0.212677,-0.11559 -0.126175,-0.15898 0.152899,-0.0767 0.404796,0.176076 0.473318,0.178149 0.178908,0.0054 0.390368,0.0055 0.632863,-0.0048 0.05369,-0.0023 -0.292533,-0.214804 -0.133978,-0.304004 0.04848,-0.02728 0.40883,0.293578 0.465115,0.291747 0.03619,-0.0012 0.13848,-0.216769 0.230754,-0.263466 0.08924,-0.04517 -0.05684,0.258199 -0.02432,0.257311 0.07146,-0.002 0.142624,-0.0038 0.212839,-0.0054 0.06371,-0.0014 -0.01948,-0.06229 0.05396,-0.153804 0.04965,-0.06186 0.290869,0.146771 0.365009,0.145553 0.09887,-0.0016 -0.320216,-0.265983 -0.246592,-0.309383 0.220478,-0.129965 0.697776,0.303388 0.768062,0.302752 0.161271,-0.0015 0.259617,-0.0018 0.259617,-0.0018 0,0 0.624302,1.210107 1.275795,1.392469 0.651495,0.182362 1.515164,0.244852 2.323825,0.02707 0.808661,-0.217782 1.638093,-0.569568 1.898679,-1.47254 0.260583,-0.902975 0.635814,-5.040426 0.570727,-6.248873 -0.08111,-1.505835 -0.108046,-2.251299 -0.11639,-5.622487 1.930285,-0.482224 2.698614,-0.721173 4.769019,-0.658197 0.0581,0.05171 -0.0273,0.389344 -0.0273,0.389344 z"
       id="path8" />
    <path
       style="display:inline;fill:#dff3f2;fill-opacity:1;stroke:none;stroke-width:1.5;stroke-linecap:round;stroke-linejoin:round"
       d="m 24.787534,25.099702 c 0,0 -0.224119,-1.181973 -0.607301,-1.526168 -0.375379,-0.337185 -0.918661,-0.709884 -1.302461,-0.848781 -0.232277,-0.112011 -0.607233,-0.225195 -0.763715,-0.233532 -0.156481,-0.0083 -1.499575,0.0244 -2.162806,0.443847 -0.663231,0.419449 -1.067526,0.935918 -1.151068,1.537617 -0.08571,0.617329 -0.04971,0.73222 -0.04971,0.73222 0,0 1.508261,-1.394396 2.593345,-1.33959 1.085086,0.0548 2.421777,0.198831 3.443718,1.234387 z"
       id="path24" />
    <path
       style="display:inline;fill:#5d2500;fill-opacity:1;stroke:none;stroke-width:1.5;stroke-linecap:round;stroke-linejoin:round"
       d="m 20.814926,26.407662 c 0,0 -0.289521,-1.945459 1.743942,-2.063112 2.03346,-0.117652 2.113236,1.675041 2.135795,1.953491 0.02251,0.278458 0.05029,2.284638 -1.613394,2.381096 -1.663685,0.09646 -2.190006,-1.070148 -2.266343,-2.271475 z"
       id="path10" />
    <path
       style="display:inline;fill:#5d2500;fill-opacity:1;stroke:none;stroke-width:1.5;stroke-linecap:round;stroke-linejoin:round"
       d="m 25.70092,28.177218 c 0.145415,-0.631088 0.647509,-1.077867 2.703494,-1.282248 1.830529,-0.181967 2.693379,0.09308 2.878669,0.763993 -0.0187,0.312086 -0.28794,0.817657 -0.66703,1.310223 -0.10115,0.131417 -0.37874,0.157117 -0.49285,0.282759 -0.13715,0.151005 -0.11309,0.399798 -0.26046,0.52999 -0.37726,0.333297 -0.77285,0.576093 -1.10891,0.61417 -0.289289,0.03277 -0.663239,-0.06109 -1.049739,-0.234638 -0.173759,-0.07802 -0.237494,-0.373354 -0.409769,-0.479319 -0.166351,-0.102321 -0.441514,-0.01448 -0.594469,-0.13503 -0.537158,-0.423365 -0.955328,-0.93547 -0.998936,-1.3699 z"
       id="path11" />
    <path
       style="display:inline;fill:#5d2500;fill-opacity:1;stroke:none;stroke-width:1.5;stroke-linecap:round;stroke-linejoin:round"
       d="m 28.656743,30.37508 0.10013,1.17095 0.0869,0.05119 0.0743,-0.06227 -0.12385,-1.169053 z"
       id="path12" />
    <path
       style="display:inline;fill:#5d2500;fill-opacity:1;stroke:none;stroke-width:1.5;stroke-linecap:round;stroke-linejoin:round"
       d="m 31.869643,30.599 c -0.004,0.044 -0.37245,0.854979 -1.13341,1.129493 -0.76097,0.274513 -1.90346,-0.226906 -1.90346,-0.226906 0,0 -0.991339,0.503864 -1.647668,0.519865 -0.656327,0.01601 -1.436982,-0.611601 -1.436982,-0.611601 0,0 0.06575,0.142294 0.218747,0.565307 0.286997,0.165749 1.251734,1.367325 2.984193,1.352535 1.51066,-0.39297 2.14772,-0.763333 2.82887,-2.07529 0.0886,-0.465942 0.0897,-0.653352 0.0897,-0.653352 z"
       id="path13" />
    <path
       style="display:inline;fill:#ffccaa;fill-opacity:1;stroke:none;stroke-width:1.5;stroke-linecap:round;stroke-linejoin:round"
       d="m 32.177153,20.842007 c 0,0 0.76415,-0.361597 0.70795,-0.736799 -0.0562,-0.375204 -0.2714,-0.567335 -0.53193,-0.449865 -0.26054,0.117475 -0.58892,0.308804 -0.70772,0.520535 -0.11879,0.21173 -0.15113,0.475992 -0.027,0.575086 0.12412,0.09909 0.20863,0.109067 0.30765,0.105938 0.099,-0.0031 0.25105,-0.01484 0.25105,-0.01484 z"
       id="path14" />
    <path
       style="display:inline;fill:#ffccaa;fill-opacity:1;stroke:none;stroke-width:1.5;stroke-linecap:round;stroke-linejoin:round"
       d="m 24.1274,21.530323 c 0,0 -0.814444,-0.226615 -0.822762,-0.605912 -0.0083,-0.379295 0.171141,-0.605176 0.447839,-0.533642 0.2767,0.07154 0.632786,0.204338 0.785807,0.392827 0.153018,0.188487 0.229745,0.443424 0.124246,0.562152 -0.105501,0.118729 -0.18708,0.142904 -0.285202,0.156632 -0.09813,0.01371 -0.249923,0.02799 -0.249923,0.02799 z"
       id="path15" />
    <path
       style="display:inline;fill:#ffbe92;fill-opacity:1;stroke:none;stroke-width:1.80133;stroke-linecap:round;stroke-linejoin:round"
       d="m 29.891543,15.251737 c -0.0352,-0.08431 0.001,-0.892599 -0.25706,-1.465441 -0.19617,-0.434834 -0.55431,-1.270746 -0.76177,-1.118668 -0.20747,0.152078 0.0282,1.178493 -0.0185,1.127693 -0.0466,-0.0508 -0.0987,-0.920344 -0.380699,-0.755262 -0.28205,0.165082 -0.19156,0.792627 -0.19156,0.792627 0,0 -1.097197,-1.272239 -1.425348,-0.881353 -0.328157,0.390886 0.574688,0.797897 0.574688,0.797897 0,0 -1.911183,-0.115846 -1.939768,0.355325 -0.02858,0.47117 0.821157,0.256136 0.821157,0.256136 0,0 -1.533698,0.555813 -1.361897,0.793917 0.171801,0.238106 0.657918,0.144736 0.657918,0.144736 l -0.418908,0.497533 z"
       id="path16" />
    <path
       style="display:inline;fill:#ffbe92;fill-opacity:1;stroke:none;stroke-width:1.5;stroke-linecap:round;stroke-linejoin:round"
       d="m 20.101073,16.114915 c 0,0 -1.357371,-0.832531 -1.752213,-0.735258 -0.394843,0.09727 1.186988,0.943751 1.186988,0.943751 0,0 -0.99048,-0.08581 -1.032519,0.221683 -0.04204,0.307488 0.71375,0.37453 0.71375,0.37453 0,0 -1.003638,0.274884 -0.930423,0.709958 0.07321,0.435074 1.402586,0.462254 1.402586,0.462254 0,0 -0.659132,0.160411 -0.605726,0.376527 0.05341,0.216115 0.620884,0.04455 0.620884,0.04455 l 0.333258,0.05195 0.457884,-0.281447 z"
       id="path17" />
    <path
       style="display:inline;fill:#ffbe92;fill-opacity:1;stroke:none;stroke-width:1.5;stroke-linecap:round;stroke-linejoin:round"
       d="m 35.061793,14.289349 c 0,0 1.19633,-1.050892 1.60195,-1.022064 0.40563,0.02883 -1.00953,1.131569 -1.00953,1.131569 0,0 0.96154,-0.252718 1.05517,0.04317 0.0936,0.295887 -0.63981,0.490269 -0.63981,0.490269 0,0 1.03574,0.100502 1.03745,0.54169 0.002,0.44119 -1.30375,0.693667 -1.30375,0.693667 0,0 0.67681,0.04618 0.66087,0.268224 -0.016,0.222045 -0.60431,0.149317 -0.60431,0.149317 l -0.3196,0.107771 -0.49902,-0.199624 z"
       id="path19" />
    <path
       style="display:inline;fill:#6f2d00;fill-opacity:1;stroke:none;stroke-width:0.960019;stroke-linecap:round;stroke-linejoin:round"
       d="m 21.518124,26.446685 c 0,0 -0.185294,-1.245119 1.116147,-1.320418 1.30144,-0.07529 1.352497,1.072048 1.366937,1.25026 0.0144,0.178215 0.03219,1.462196 -1.032594,1.523932 -1.064781,0.06173 -1.401632,-0.68491 -1.45049,-1.453774 z"
       id="path21" />
    <path
       style="display:inline;fill:#6f2d00;fill-opacity:1;stroke:none;stroke-width:1.5;stroke-linecap:round;stroke-linejoin:round"
       d="m 25.70663,28.174701 c 0,0 0.118977,-0.66508 0.844562,-0.896883 0.725587,-0.231803 1.150632,-0.335441 1.893122,-0.387518 0.742479,-0.05207 1.494919,-0.100207 2.033529,0.07259 0.65926,0.211494 0.79011,0.521092 0.81131,0.683114 0.0209,0.16205 -0.48311,-0.317641 -0.72678,-0.352083 -0.24368,-0.03444 -1.44063,-0.176255 -1.79131,-0.127909 -0.350689,0.04833 -2.205551,0.269034 -2.621766,0.647621 -0.416218,0.37858 -0.442667,0.361071 -0.442667,0.361071 z"
       id="path22" />
    <path
       style="display:inline;fill:#dff3f2;fill-opacity:1;stroke:none;stroke-width:1.5;stroke-linecap:round;stroke-linejoin:round"
       d="m 31.686663,24.512939 c 0,0 0.18832,-1.220406 0.50751,-1.624658 0.31269,-0.39602 0.78481,-0.855544 1.13945,-1.057584 0.20989,-0.14982 0.56019,-0.325018 0.71298,-0.359801 0.1528,-0.03478 1.48196,-0.230541 2.20677,0.07022 0.72482,0.30076 1.26996,0.748368 1.45445,1.327148 0.18927,0.593816 0.15772,0.695407 0.15772,0.695407 0,0 -1.76661,-1.107615 -2.82664,-0.869386 -1.06003,0.238227 -2.52099,0.624641 -3.35228,1.818663 z"
       id="path23" />
    <path
       style="display:inline;fill:#5d2500;fill-opacity:1;stroke:none;stroke-width:1.5;stroke-linecap:round;stroke-linejoin:round"
       d="m 36.090779,25.066711 c 0,0 -0.045,-1.96637 -2.06889,-1.737085 -2.02391,0.229285 -1.79818,2.009497 -1.77314,2.287735 0.0248,0.278262 0.33832,2.260009 1.99423,2.072617 1.6559,-0.187389 1.97653,-1.426419 1.8478,-2.623267 z"
       id="path9" />
    <path
       style="display:inline;fill:#6f2d00;fill-opacity:1;stroke:none;stroke-width:0.898259;stroke-linecap:round;stroke-linejoin:round"
       d="m 35.325329,25.247117 c 0,0 -0.0269,-1.177542 -1.23893,-1.040237 -1.212,0.137308 -1.07682,1.203367 -1.06183,1.369987 0.015,0.166621 0.20264,1.35338 1.19422,1.241166 0.99163,-0.112211 1.18362,-0.854197 1.10654,-1.570916 z"
       id="path20" />
    <path
       style="display:inline;fill:#a24100;fill-opacity:1;stroke:none;stroke-width:1.5;stroke-linecap:round;stroke-linejoin:round"
       d="m 33.417349,24.26936 c 0.29196,-0.02155 0.48848,0.07716 0.53375,0.177531 0.0637,0.141228 -0.29771,0.353224 -0.51036,0.371407 -0.36378,0.03111 -0.50866,-0.145805 -0.51295,-0.236413 -0.008,-0.171422 0.21533,-0.29232 0.48956,-0.312525 z"
       id="path25" />
    <path
       style="display:inline;fill:#a24100;fill-opacity:1;stroke:none;stroke-width:1.5;stroke-linecap:round;stroke-linejoin:round"
       d="m 23.416877,25.154764 c -0.291379,0.02833 -0.468282,0.158973 -0.495859,0.265572 -0.0388,0.149989 0.353351,0.297552 0.566002,0.279369 0.363784,-0.03111 0.476524,-0.230046 0.465366,-0.320067 -0.02108,-0.170271 -0.261835,-0.251519 -0.535509,-0.224874 z"
       id="path26" />
    <circle
       style="display:inline;fill:#a24100;fill-opacity:1;stroke:none;stroke-width:1.84078;stroke-linecap:round;stroke-linejoin:round"
       id="path27"
       cx="27.733524"
       cy="32.469418"
       r="0.077701695"
       transform="rotate(-4.8873409)" />
    <circle
       style="display:inline;fill:#a24100;fill-opacity:1;stroke:none;stroke-width:1.84078;stroke-linecap:round;stroke-linejoin:round"
       id="circle27"
       cx="28.646404"
       cy="32.62096"
       r="0.077701695"
       transform="rotate(-4.8873409)" />
    <circle
       style="display:inline;fill:#a24100;fill-opacity:1;stroke:none;stroke-width:1.84078;stroke-linecap:round;stroke-linejoin:round"
       id="circle28"
       cx="27.938114"
       cy="33.163357"
       r="0.077701695"
       transform="rotate(-4.8873409)" />
    <circle
       style="display:inline;fill:#a24100;fill-opacity:1;stroke:none;stroke-width:2.09381;stroke-linecap:round;stroke-linejoin:round"
       id="circle29"
       cx="-24.541454"
       cy="32.630657"
       r="0.088382423"
       transform="matrix(-0.99636414,0.08519679,0.08519679,0.99636414,0,0)" />
    <circle
       style="display:inline;fill:#a24100;fill-opacity:1;stroke:none;stroke-width:2.09381;stroke-linecap:round;stroke-linejoin:round"
       id="circle30"
       cx="-23.503094"
       cy="32.803036"
       r="0.088382423"
       transform="matrix(-0.99636414,0.08519679,0.08519679,0.99636414,0,0)" />
    <circle
       style="display:inline;fill:#a24100;fill-opacity:1;stroke:none;stroke-width:2.09381;stroke-linecap:round;stroke-linejoin:round"
       id="circle31"
       cx="-24.30875"
       cy="33.419987"
       r="0.088382423"
       transform="matrix(-0.99636414,0.08519679,0.08519679,0.99636414,0,0)" />
    <rect
       style="display:inline;fill:#98bbd1;fill-opacity:1;stroke:none;stroke-width:0.0919827;stroke-linecap:round;stroke-linejoin:round;stroke-dasharray:none;stroke-opacity:1"
       id="rect56"
       width="17.851067"
       height="17.851067"
       x="9.0464954"
       y="44.634781"
       ry="3.1838036"
       transform="rotate(-11.530293)" />
    <path
       style="fill:url(#linearGradient42);fill-opacity:1;stroke:none;stroke-width:0.0856782;stroke-linecap:round;stroke-linejoin:round;stroke-dasharray:none;stroke-opacity:1"
       d="m 8.0313859,47.136743 8.6619361,12.1292 c 0,0 2.435014,1.61899 4.30633,0.2307 1.871304,-1.3883 1.108534,-4.09768 1.108534,-4.09768 l -8.663391,-12.13123 c 0,0 -2.319064,-1.51894 -4.0412251,-0.33495 -1.722164,1.184 -1.372184,4.20396 -1.372184,4.20396 z"
       id="path37" />
    <path
       style="fill:#452b06;fill-opacity:1;stroke:none;stroke-width:0.0856782;stroke-linecap:round;stroke-linejoin:round;stroke-dasharray:none;stroke-opacity:1"
       d="m 16.434113,58.863083 c 0,0 0.946296,-1.33369 2.239739,-2.28324 1.293424,-0.94957 3.134265,-1.55454 3.134265,-1.55454 0,0 1.198187,1.29598 2.068523,2.43224 0.870303,1.13627 1.872419,2.18776 1.183211,3.09188 -0.689232,0.9041 -1.342603,0.91946 -1.342603,0.91946 0,0 -0.0053,0.55218 -0.699289,1.02283 -0.694032,0.47062 -1.217962,0.27383 -1.217962,0.27383 0,0 -0.235282,0.46449 -1.117587,0.98755 -0.882354,0.52305 -1.816638,-0.65399 -2.566964,-1.69168 -0.749886,-1.03801 -1.681382,-3.19842 -1.681382,-3.19842 z"
       id="path39" />
    <path
       style="display:inline;fill:#ffffff;fill-opacity:1;stroke-width:0.565713"
       d="m 25.571423,55.243063 c -0.05897,0.003 -0.506013,-0.0419 -0.725841,-0.0721 -0.913876,-0.12593 -1.886023,-0.39118 -2.859259,-0.78025 -0.279326,-0.11167 -0.567769,-0.23673 -0.609318,-0.26424 -0.05039,-0.0333 -0.07489,-0.0905 -0.141358,-0.33073 -0.111335,-0.402 -0.144647,-0.54235 -0.24105,-1.01433 -0.126178,-0.61805 -0.17431,-0.94702 -0.219019,-1.4971 -0.162203,-1.99566 0.146186,-3.94372 0.956741,-6.04357 0.08846,-0.22914 0.113557,-0.27881 0.165776,-0.32799 0.05574,-0.0525 0.79146,-0.49469 1.193035,-0.71705 0.549068,-0.30403 1.559054,-0.7975 1.706399,-0.83373 l 0.0471,-0.0114 0.02789,0.019 c 0.04452,0.0304 0.32396,0.3763 0.525506,0.65063 0.02766,0.0375 0.05526,0.0674 0.06135,0.0662 0.006,-10e-4 0.09981,-0.0344 0.208241,-0.0737 0.203353,-0.0737 0.409393,-0.13997 0.718379,-0.23103 l 0.178082,-0.0524 0.598117,-0.12201 0.598108,-0.122 0.184471,-0.021 c 0.319927,-0.0374 0.535492,-0.057 0.75145,-0.0689 0.11513,-0.007 0.21399,-0.0124 0.21963,-0.0136 0.006,-10e-4 0.0282,-0.0752 0.0502,-0.16442 0.0472,-0.19176 0.15209,-0.57127 0.18274,-0.66116 0.0118,-0.0348 0.0339,-0.0727 0.0489,-0.0842 l 0.0273,-0.021 0.14407,10e-4 c 0.86939,0.007 1.93703,0.0991 2.93719,0.25401 0.21459,0.033 0.26587,0.0538 0.35957,0.14454 0.3595,0.3478 0.91333,0.9746 1.29944,1.47066 1.1303,1.45217 1.85236,2.90245 2.32376,4.66731 0.0549,0.20554 0.23232,1.07448 0.26512,1.2989 0.0503,0.34043 0.0789,0.57663 0.0781,0.63479 -0.001,0.0763 -0.0199,0.10331 -0.20231,0.2932 -0.98669,1.0268 -1.95336,1.78265 -3.0108,2.35425 -0.2253,0.12183 -0.29653,0.14707 -0.35204,0.12502 -0.0186,-0.008 -0.11526,-0.0948 -0.2147,-0.19416 -0.24202,-0.24187 -0.8405,-0.89272 -0.83228,-0.90515 0.002,-0.003 0.0803,-0.0571 0.17415,-0.12053 0.23972,-0.16181 0.34995,-0.24122 0.53631,-0.38638 0.18948,-0.14761 0.44173,-0.36433 0.43937,-0.37752 -0.001,-0.0103 -0.0626,-0.0466 -0.20763,-0.12439 -0.0544,-0.0291 -0.10988,-0.059 -0.12328,-0.0665 l -0.0245,-0.0131 -0.12632,0.10768 c -0.65242,0.55601 -1.62474,1.02444 -2.85095,1.3735 -0.24914,0.0709 -1.20508,0.26592 -1.462054,0.29828 -1.264457,0.15913 -2.343125,0.10899 -3.160348,-0.14676 l -0.157609,-0.0493 -0.02953,0.0355 c -0.110626,0.13302 -0.220604,0.27785 -0.218747,0.28808 0.0046,0.0254 0.557101,0.18865 0.872835,0.25794 0.067,0.015 0.21274,0.0449 0.323966,0.0659 0.111199,0.0212 0.204585,0.0405 0.207493,0.043 0.01296,0.008 -0.276761,0.82401 -0.417174,1.17453 -0.101335,0.25297 -0.126119,0.28487 -0.224646,0.28916 z m 0.688116,-3.9759 c 0.267519,-0.10516 0.488051,-0.29021 0.651217,-0.54634 0.168519,-0.26452 0.247787,-0.55496 0.244386,-0.89536 l -0.0011,-0.11305 -0.03869,-0.1872 -0.03869,-0.18719 -0.05122,-0.11777 c -0.253214,-0.5822 -0.759479,-0.94333 -1.329713,-0.94854 l -0.105573,-9e-4 -0.156975,0.0326 -0.156974,0.0326 -0.09244,0.0404 c -0.623605,0.273 -0.961322,0.99209 -0.811589,1.72808 l 0.02726,0.13383 0.05094,0.12773 c 0.183858,0.46112 0.532939,0.79605 0.970601,0.93124 0.267614,0.0827 0.579983,0.0714 0.838571,-0.0303 z m 5.251614,-1.09439 c 0.4263,-0.20995 0.722,-0.64807 0.7853,-1.1635 0.007,-0.0533 0.0104,-0.16131 0.009,-0.23995 l -0.003,-0.14297 -0.0281,-0.13991 c -0.11589,-0.56713 -0.50118,-1.02256 -1.01274,-1.19715 -0.10867,-0.0371 -0.2906,-0.0677 -0.40969,-0.0689 l -0.10084,-9.4e-4 -0.15719,0.0314 -0.1572,0.0314 -0.0968,0.0423 c -0.23304,0.10179 -0.41777,0.25456 -0.5721,0.47331 -0.18217,0.25822 -0.27709,0.57041 -0.2798,0.92028 l -0.001,0.12844 0.0378,0.18737 0.0378,0.1874 0.0433,0.10443 c 0.13021,0.31454 0.3169,0.55071 0.57556,0.7281 0.24575,0.16853 0.52015,0.2534 0.80669,0.24951 l 0.09,-10e-4 0.16222,-0.0378 0.16222,-0.0378 z"
       id="path57" />
    <path
       style="fill:#452b06;fill-opacity:1;stroke:none;stroke-width:0.0856782;stroke-linecap:round;stroke-linejoin:round;stroke-dasharray:none;stroke-opacity:1"
       d="m 41.046843,55.867393 c 0,0 -0.9562,-1.32662 -2.25665,-2.26653 -1.30044,-0.93998 -3.14574,-1.5312 -3.14574,-1.5312 0,0 -1.18854,1.30484 -2.05038,2.44755 -0.86186,1.14269 -1.85614,2.20159 -1.16021,3.10057 0.69591,0.89896 1.34938,0.90947 1.34938,0.90947 0,0 0.009,0.55212 0.70691,1.0176 0.6975,0.46545 1.21997,0.26473 1.21997,0.26473 0,0 0.23874,0.46272 1.12489,0.97923 0.88621,0.51649 1.81172,-0.66748 2.55432,-1.71071 0.74214,-1.04357 1.65756,-3.21082 1.65756,-3.21082 z"
       id="path38" />
    <path
       style="fill:url(#linearGradient40);fill-opacity:1;stroke:none;stroke-width:0.0856782;stroke-linecap:round;stroke-linejoin:round;stroke-dasharray:none;stroke-opacity:1"
       d="m 49.107333,44.441463 -8.57158,12.19324 c 0,0 -2.42292,1.63706 -4.30449,0.2627 -1.8816,-1.37429 -1.13895,-4.08931 -1.13895,-4.08931 l 8.57301,-12.1953 c 0,0 2.3077,-1.53614 4.03861,-0.36498 1.7309,1.17119 1.4034,4.19365 1.4034,4.19365 z"
       id="path35" />
  </g>
</svg>
