<?xml version="1.0" encoding="UTF-8" standalone="no"?>
<!-- Created with Inkscape (http://www.inkscape.org/) -->

<svg
   width="41.875984mm"
   height="98.861984mm"
   viewBox="0 0 41.875984 98.861984"
   version="1.1"
   id="svg1"
   xmlns:xlink="http://www.w3.org/1999/xlink"
   xmlns="http://www.w3.org/2000/svg"
   xmlns:svg="http://www.w3.org/2000/svg">
  <defs
     id="defs1">
    <linearGradient
       id="linearGradient91">
      <stop
         style="stop-color:#e2a03c;stop-opacity:1;"
         offset="0"
         id="stop91" />
      <stop
         style="stop-color:#eca335;stop-opacity:0;"
         offset="1"
         id="stop92" />
    </linearGradient>
    <linearGradient
       id="linearGradient39">
      <stop
         style="stop-color:#452b06;stop-opacity:1;"
         offset="0"
         id="stop39" />
      <stop
         style="stop-color:#efac4a;stop-opacity:1;"
         offset="1"
         id="stop40" />
    </linearGradient>
    <linearGradient
       id="linearGradient41">
      <stop
         style="stop-color:#efac4a;stop-opacity:1;"
         offset="0"
         id="stop41" />
      <stop
         style="stop-color:#452b06;stop-opacity:1;"
         offset="1"
         id="stop42" />
    </linearGradient>
    <linearGradient
       id="linearGradient44">
      <stop
         style="stop-color:#ffb37d;stop-opacity:1;"
         offset="0"
         id="stop44" />
      <stop
         style="stop-color:#ffafaa;stop-opacity:1;"
         offset="1"
         id="stop45" />
    </linearGradient>
    <linearGradient
       id="linearGradient51">
      <stop
         style="stop-color:#ffafaa;stop-opacity:1;"
         offset="0"
         id="stop51" />
      <stop
         style="stop-color:#452b06;stop-opacity:1;"
         offset="1"
         id="stop52" />
    </linearGradient>
    <linearGradient
       xlink:href="#linearGradient39"
       id="linearGradient79"
       gradientUnits="userSpaceOnUse"
       gradientTransform="matrix(-0.4927312,0.70092142,-0.70092142,-0.4927312,170.34019,4.8975319)"
       x1="97.227516"
       y1="43.854565"
       x2="89.807831"
       y2="43.855957" />
    <linearGradient
       xlink:href="#linearGradient41"
       id="linearGradient80"
       gradientUnits="userSpaceOnUse"
       gradientTransform="matrix(-0.49792686,-0.69724008,0.69724008,-0.49792686,51.39417,93.980403)"
       x1="32.358223"
       y1="44.017857"
       x2="24.087139"
       y2="44.068333" />
    <linearGradient
       xlink:href="#linearGradient41"
       id="linearGradient81"
       gradientUnits="userSpaceOnUse"
       gradientTransform="translate(18.207254,-4.2514951)"
       x1="55.665142"
       y1="96.22184"
       x2="52.86882"
       y2="106.52995" />
    <linearGradient
       xlink:href="#linearGradient41"
       id="linearGradient82"
       gradientUnits="userSpaceOnUse"
       gradientTransform="translate(18.153258,-4.7498821)"
       x1="68.386505"
       y1="94.910995"
       x2="69.962265"
       y2="107.4262" />
    <linearGradient
       xlink:href="#linearGradient44"
       id="linearGradient83"
       gradientUnits="userSpaceOnUse"
       gradientTransform="translate(18.077011,-4.1902441)"
       x1="62.061695"
       y1="49.738552"
       x2="62.070137"
       y2="58.213455" />
    <linearGradient
       xlink:href="#linearGradient51"
       id="linearGradient84"
       gradientUnits="userSpaceOnUse"
       gradientTransform="matrix(-0.98405583,0.17785982,0.17785982,0.98405583,159.44601,-14.000989)"
       x1="92.005463"
       y1="65.750931"
       x2="89.90773"
       y2="84.73568" />
    <linearGradient
       xlink:href="#linearGradient91"
       id="linearGradient92"
       x1="86.966614"
       y1="26.386812"
       x2="87.041122"
       y2="25.06937"
       gradientUnits="userSpaceOnUse" />
    <linearGradient
       xlink:href="#linearGradient91"
       id="linearGradient93"
       gradientUnits="userSpaceOnUse"
       x1="86.966614"
       y1="26.386812"
       x2="87.041122"
       y2="25.06937"
       gradientTransform="matrix(-0.98695085,-0.16102178,-0.16102178,0.98695085,163.70709,13.264647)" />
  </defs>
  <g
     id="layer1"
     transform="translate(-59.534631,-6.2385018)">
    <path
       d="m 84.578859,59.584763 3.01199,3.00457 c 0,0 -3.31245,6.61408 -2.61263,10.46809 0.89979,4.95525 5.33665,9.02662 7.3053,12.09218 0.71449,1.11259 1.07168,4.9788 -0.91653,6.25155 -3.75086,2.40111 -7.12864,-0.9907 -8.25363,-1.91736 -3.655269,-3.01088 -4.945025,-8.58979 -6.469368,-15.15227 -1.600109,-6.88869 7.934868,-14.74676 7.934868,-14.74676 z"
       style="fill:url(#linearGradient84);fill-opacity:1;stroke-width:0.1;stroke-linecap:round;stroke-linejoin:round"
       id="path18" />
    <path
       style="fill:#efac4a;fill-opacity:1;stroke:none;stroke-width:0.1;stroke-linecap:round;stroke-linejoin:round;stroke-dasharray:none;stroke-opacity:1"
       d="m 86.738059,32.419439 c 0,0 1.95482,10.784094 2.16204,15.814724 0.20723,5.03064 0.8975,9.23453 0.94304,15.08405 0.0215,2.75739 0.29544,3.94008 0.1831,4.54911 -0.0576,0.31231 -4.98003,3.92467 -10.311484,3.9081 -5.065277,-0.0157 -10.554606,-3.65305 -10.554606,-3.65305 0,0 -0.04975,-2.16768 0.06488,-4.17929 0.342544,-6.01136 1.309409,-14.2711 1.801303,-16.5697 0.656498,-3.0678 2.372562,-14.933443 2.372562,-14.933443 l 0.01984,-0.06242 c 0,0 5.00802,1.489013 7.293085,1.429713 2.28506,-0.0593 6.02623,-1.387796 6.02623,-1.387796 z"
       id="path28" />
    <path
       style="fill:#efac4a;fill-opacity:1;stroke:none;stroke-width:0.0856782;stroke-linecap:round;stroke-linejoin:round;stroke-dasharray:none;stroke-opacity:1"
       d="m 86.021609,34.746993 13.72747,4.51387 c 0,0 2.270851,1.8422 1.503001,4.04211 -0.7679,2.19988 -3.581451,2.27882 -3.581451,2.27882 l -13.72986,-4.51464 c 0,0 -2.14079,-1.76132 -1.52355,-3.75799 0.61729,-1.99666 3.60439,-2.56217 3.60439,-2.56217 z"
       id="path29" />
    <path
       style="fill:#efac4a;fill-opacity:1;stroke:none;stroke-width:0.0856782;stroke-linecap:round;stroke-linejoin:round;stroke-dasharray:none;stroke-opacity:1"
       d="m 73.129746,35.866743 -12.535871,7.18821 c 0,0 -1.852921,2.26212 -0.657398,4.2621 1.195516,1.99998 3.967273,1.51016 3.967273,1.51016 l 12.538046,-7.18945 c 0,0 1.741831,-2.15669 0.734789,-3.98796 -1.007026,-1.83129 -4.046839,-1.78306 -4.046839,-1.78306 z"
       id="path30" />
    <path
       style="fill:url(#linearGradient83);fill-opacity:1;stroke:none;stroke-width:0.1;stroke-linecap:round;stroke-linejoin:round;stroke-dasharray:none;stroke-opacity:1"
       d="m 75.378934,33.170623 c 0,0 -1.866263,13.18488 -1.605374,17.62831 0.26089,4.44343 4.633313,4.8416 6.229188,4.88574 1.595881,0.0441 5.889371,-0.63959 6.089901,-4.9201 0.20053,-4.28051 -1.73226,-17.71734 -1.73226,-17.71734 z"
       id="path31" />
    <path
       style="fill:url(#linearGradient82);fill-opacity:1;stroke:none;stroke-width:0.1;stroke-linecap:round;stroke-linejoin:round;stroke-dasharray:none;stroke-opacity:1"
       d="m 90.063319,67.247253 -0.0722,16.01969 0.55534,14.08806 c 0,0 2.31317,4.445457 1.44801,5.887157 -0.86516,1.4417 -2.62535,1.85832 -2.62535,1.85832 0,0 -2.90749,-0.006 -3.923478,-1.19184 -1.01598,-1.18584 -1.777835,-3.26535 -1.85466,-4.617567 -0.24822,-4.36897 -1.047902,-10.3184 -1.175042,-15.94113 -0.18856,-8.33945 -0.2596,-15.82338 -0.2596,-15.82338 0,0 1.7719,-3.08663 4.0106,-3.15886 2.2387,-0.0722 3.8964,2.87955 3.8964,2.87955 z"
       id="path32" />
    <path
       style="fill:url(#linearGradient81);fill-opacity:1;stroke:none;stroke-width:0.1;stroke-linecap:round;stroke-linejoin:round;stroke-dasharray:none;stroke-opacity:1"
       d="m 69.12074,67.745643 0.07808,17.319373 2.80588,11.835366 c 0,0 -2.313168,4.445458 -1.448004,5.887158 0.865163,1.4417 2.625351,1.85832 2.625351,1.85832 0,0 2.907491,-0.006 3.923475,-1.19184 1.015984,-1.18584 1.777834,-3.26535 1.854659,-4.617568 0.238232,-4.193179 -2.333812,-8.884288 -2.207645,-14.307665 0.200261,-8.608355 0.275214,-16.503834 0.275214,-16.503834 0,0 -1.824449,-2.6654 -3.649769,-2.54957 -1.82532,0.11582 -4.257238,2.27026 -4.257238,2.27026 z"
       id="path40" />
    <path
       style="display:inline;fill:#efac4a;fill-opacity:1;stroke:none;stroke-width:1.5;stroke-linecap:round;stroke-linejoin:round"
       d="m 83.41827,16.485283 c 0,0 0.220576,-1.391974 0.987456,-2.388125 0.766812,-0.996163 5.887487,-4.9942732 6.669583,-5.4541362 0.653158,-0.3840518 1.56052,-0.6694368 1.889241,0.4915051 0.346388,1.2233341 1.118057,2.3304181 0.612435,6.7648981 -0.505603,4.434482 -0.860125,6.439202 -1.343363,7.177159 -0.483278,0.737952 -8.815333,-6.591297 -8.815333,-6.591297 z"
       id="path41" />
    <path
       style="display:inline;fill:#efac4a;fill-opacity:1;stroke:none;stroke-width:1.5;stroke-linecap:round;stroke-linejoin:round"
       d="m 78.95335,16.019233 c 0,0 0.07157,-1.407524 -0.472993,-2.540568 C 77.935791,12.34562 73.751141,7.3762166 73.08087,6.7647556 72.521098,6.2540975 71.808126,5.856947 71.130855,6.8555172 70.405159,7.9254846 69.555643,8.90481 69.134595,13.348118 c -0.421043,4.443308 -0.488177,6.478027 -0.167728,7.299871 0.320455,0.821846 9.986483,-4.628756 9.986483,-4.628756 z"
       id="path43" />
    <path
       style="display:inline;fill:#ffffff;fill-opacity:1;stroke:none;stroke-width:1.5;stroke-linecap:round;stroke-linejoin:round"
       d="m 88.25785,19.056642 c 0,0 1.280978,-7.778831 2.957125,-9.460469 1.676156,-1.6816354 1.948564,1.470893 1.970533,3.052151 0.02196,1.581258 -0.465292,7.272065 -1.049038,8.756819 -0.583732,1.484753 -0.873681,2.054959 -0.873681,2.054959 z"
       id="path44" />
    <path
       style="display:inline;fill:#ffffff;fill-opacity:1;stroke:none;stroke-width:1.5;stroke-linecap:round;stroke-linejoin:round"
       d="m 73.790997,17.546585 c 0,0 0.353059,-7.8756863 -0.93969,-9.8672195 -1.292749,-1.9915303 -2.210317,1.0367867 -2.558353,2.5794245 -0.348034,1.542637 -1.046479,7.211402 -0.781955,8.784697 0.264525,1.573295 0.430477,2.191087 0.430477,2.191087 z"
       id="path47" />
    <path
       style="display:inline;fill:#efac4a;fill-opacity:1;stroke:none;stroke-width:1.5;stroke-linecap:round;stroke-linejoin:round"
       d="m 81.658566,15.016645 c 1.412507,0.183158 4.558486,0.247845 7.879373,3.951725 1.343158,1.498057 2.472895,2.486047 2.880259,4.54053 0.0067,0.03181 0.367789,0.304509 0.219808,0.353276 -0.103904,0.03427 -0.188773,-0.187101 -0.18275,-0.151584 0.01292,0.07654 0.452123,0.780356 0.307124,0.82887 -0.152408,0.05099 -0.272651,-0.241745 -0.250223,-0.192043 0.106798,0.236595 0.07981,0.151489 0.174422,0.399706 0.04505,0.118268 0.62198,1.01656 0.21064,1.888735 -0.117782,0.249646 -0.285286,-0.799521 -0.288631,-0.675571 -0.007,0.257645 0.02632,0.500104 0.05818,0.770824 0.01378,0.117298 0.14703,0.942131 -0.09579,1.038093 -0.102336,0.04045 -0.09259,-0.521997 -0.107954,-0.403638 -0.214031,1.648821 -2.287061,3.862482 -3.721417,4.67184 -2.530848,1.428062 -7.41587,3.598875 -8.267028,3.684711 -0.437399,0.04413 -1.074897,0.005 -1.638038,-0.05237 -0.532708,-0.05462 -1.17487,-0.16228 -1.473015,-0.237325 -0.600478,-0.151195 -6.436341,-3.297794 -7.439989,-4.752857 -1.003652,-1.455061 -2.492407,-3.643064 -2.349019,-5.462168 0.01012,-0.127557 0.02486,-0.277209 0.04629,-0.445676 0.01083,-0.08515 -0.06092,0.227194 -0.140104,0.173904 -0.08354,-0.0562 0.147894,-0.680974 0.171427,-0.774039 0.05412,-0.214033 0.140535,-0.396674 0.202229,-0.647139 0.03071,-0.124682 -0.103465,0.526185 -0.357405,0.42449 -0.379655,-0.152048 0.224203,-0.974826 0.460158,-1.334903 0.177747,-0.271245 0.33082,-0.482166 0.473261,-0.814509 0.0195,-0.04549 -0.173855,0.481408 -0.29771,0.317672 -0.119703,-0.158251 0.399456,-0.547845 0.421124,-0.594666 0.04797,-0.103645 -0.209191,0.224878 -0.307978,0.162174 -0.276618,-0.175582 0.599449,-0.755108 0.651146,-0.850195 0.343417,-0.631629 0.73371,-1.178476 1.28086,-1.783421 2.074404,-2.293526 10.068313,-4.217671 11.480818,-4.034506 z"
       id="path48" />
    <path
       style="display:inline;fill:#ffbe92;fill-opacity:1;stroke:none;stroke-width:1.5;stroke-linecap:round;stroke-linejoin:round"
       d="m 83.620151,15.710664 c 0,0 -0.275966,2.54755 -0.39,5.643717 -0.11453,3.096116 0.394337,4.127096 0.629009,4.475606 0.234681,0.348512 0.700106,1.060498 1.316707,1.405306 0.835804,0.467388 1.408651,0.624915 2.679555,0.565751 0.339018,-0.01578 0.587217,0.224795 1.376009,0.0756 0.08389,0.0037 0.164769,0.0074 0.242814,0.01085 0.06592,0.003 0.265003,-0.262571 0.678143,-0.244713 0.220487,0.0095 -0.362098,0.259486 -0.302914,0.262377 0.07081,0.0035 0.492656,-0.225557 0.578005,-0.134555 0.157072,0.167476 -0.307797,0.14821 -0.275884,0.149893 0.109037,0.0057 0.210462,0.01139 0.305116,0.01712 0.06593,0.004 0.166637,-0.299242 0.366719,-0.294289 0.07367,0.0019 -0.08723,0.276204 -0.01936,0.233262 0.06006,-0.0382 0.129889,-0.08491 0.20437,-0.123444 0.03775,-0.01951 0.07662,-0.03695 0.116141,-0.05009 0.03469,-0.01157 0.06988,-0.01983 0.105064,-0.02331 0.08303,-0.0082 0.166047,0.0102 0.243129,0.07484 0.158649,0.13304 -0.318264,0.234559 -0.249909,0.241658 0.151937,0.01578 0.238358,0.03061 0.352916,0.04974 0.0079,0.0014 -0.0466,-0.153184 -0.02785,-0.151161 0.01686,0.0018 0.107471,0.160218 0.114952,0.161561 0.05917,0.01058 0.05056,-0.138477 0.282913,-0.159205 0.08847,-0.0079 -0.04102,0.198184 -0.0056,0.202833 0.333919,0.0436 0.316094,-0.003 0.316094,-0.003 0,0 -0.726058,2.068642 -2.989964,3.620822 -1.757752,1.205153 -2.620009,1.516268 -4.697544,2.439083 -2.072695,0.920667 -2.825269,1.207149 -3.424728,1.412647 -0.584213,0.200274 -1.155186,0.235683 -2.353015,0.09374 -1.197829,-0.141938 -1.568764,-0.152482 -2.666346,-0.803291 -0.694671,-0.411867 -2.634189,-1.356604 -3.538453,-2.037753 -0.915096,-0.689303 -2.222812,-1.40956 -3.001376,-2.499228 -0.417669,-0.584559 -1.707119,-2.54138 -1.948725,-4.101791 -0.140517,-0.907534 -0.04306,-1.185543 -0.04306,-1.185543 0,0 0.116689,0.04811 0.346582,0.112183 0.04587,0.01284 -0.187126,-0.153546 -0.094,-0.179883 0.164601,-0.04656 0.364432,0.249104 0.43134,0.264033 0.174695,0.03897 0.382358,0.07886 0.62246,0.114372 0.05316,0.0079 -0.246886,-0.266014 -0.07438,-0.323785 0.05275,-0.01766 0.346283,0.365265 0.401906,0.374059 0.03578,0.0056 0.176797,-0.186838 0.27621,-0.215337 0.09615,-0.02757 -0.10441,0.242891 -0.07231,0.248138 0.07056,0.0115 0.14079,0.02311 0.210053,0.03474 0.06283,0.01061 -0.0074,-0.06484 0.08194,-0.140902 0.0604,-0.05141 0.258053,0.198883 0.331099,0.211638 0.0974,0.01703 -0.264444,-0.321488 -0.183969,-0.350259 0.240995,-0.08615 0.62822,0.429273 0.697371,0.441874 0.158672,0.02888 0.255317,0.04708 0.255317,0.04708 0,0 1.137768,0.02476 1.743306,0.326462 0.605541,0.3017 1.143749,0.188056 1.975721,0.283885 0.91059,0.104885 1.534896,-0.106924 1.960744,-0.944729 0.425845,-0.837808 1.303216,-3.513765 1.466692,-4.712871 0.2037,-1.494197 0.317523,-2.231412 0.943703,-5.543946 1.986544,-0.110376 2.786111,-0.200476 4.807679,0.250971 0.04734,0.06172 -0.100076,0.377251 -0.100076,0.377251 z"
       id="path52" />
    <path
       style="display:inline;fill:#5d2500;fill-opacity:1;stroke:none;stroke-width:1.5;stroke-linecap:round;stroke-linejoin:round"
       d="m 77.079583,27.626942 c 0.261573,-0.59245 0.83877,-0.936766 2.896485,-0.75061 1.832069,0.165745 2.627748,0.598244 2.683478,1.292039 -0.07709,0.302992 -0.436659,0.748867 -0.901665,1.161298 -0.124073,0.110036 -0.401539,0.08304 -0.537254,0.184966 -0.163115,0.122499 -0.186302,0.371374 -0.355538,0.471509 -0.433239,0.256352 -0.86745,0.42037 -1.204672,0.394529 -0.290285,-0.02229 -0.639894,-0.184804 -0.986833,-0.427981 -0.155973,-0.109319 -0.162995,-0.411375 -0.312252,-0.547865 -0.144124,-0.131796 -0.430902,-0.0973 -0.55844,-0.244482 -0.447895,-0.516882 -0.762228,-1.098528 -0.723309,-1.533403 z"
       id="path55" />
    <path
       style="display:inline;fill:#5d2500;fill-opacity:1;stroke:none;stroke-width:1.5;stroke-linecap:round;stroke-linejoin:round"
       d="m 79.569018,30.341753 -0.121998,1.168874 0.07571,0.06662 0.08469,-0.04717 0.09835,-1.171475 z"
       id="path56" />
    <path
       style="display:inline;fill:#5d2500;fill-opacity:1;stroke:none;stroke-width:1.5;stroke-linecap:round;stroke-linejoin:round"
       d="m 82.682385,31.166262 c -0.01222,0.04246 -0.526682,0.769619 -1.325704,0.896035 -0.799033,0.126414 -1.826758,-0.581037 -1.826758,-0.581037 0,0 -1.068444,0.308318 -1.716059,0.200528 -0.647615,-0.107777 -1.296223,-0.87108 -1.296223,-0.87108 0,0 0.0378,0.152125 0.108462,0.596371 0.250681,0.216794 1.212124,0.788411 2.820917,0.368986 1.528882,0.608306 2.408476,0.868325 3.324336,-0.292014 0.174695,-0.440946 0.366048,-1.179195 0.366048,-1.179195 z"
       id="path58" />
    <path
       style="display:inline;fill:#ffccaa;fill-opacity:1;stroke:none;stroke-width:1.5;stroke-linecap:round;stroke-linejoin:round"
       d="m 84.820428,21.641439 c 0,0 0.818541,-0.211343 0.83395,-0.590418 0.01541,-0.379076 -0.159794,-0.60827 -0.437774,-0.541924 -0.277991,0.06634 -0.636509,0.192467 -0.793029,0.378061 -0.156511,0.185593 -0.238,0.439049 -0.134738,0.559731 0.103255,0.120676 0.184378,0.146377 0.282219,0.161938 0.09782,0.01554 0.249357,0.03267 0.249357,0.03267 z"
       id="path59" />
    <path
       style="display:inline;fill:#ffccaa;fill-opacity:1;stroke:none;stroke-width:1.5;stroke-linecap:round;stroke-linejoin:round"
       d="m 76.784955,20.802693 c 0,0 -0.75725,-0.375825 -0.694045,-0.74991 0.06322,-0.374082 0.281962,-0.562161 0.540256,-0.439837 0.258295,0.12233 0.58303,0.319762 0.697849,0.533679 0.114815,0.213914 0.142199,0.478735 0.01624,0.575489 -0.125958,0.09675 -0.210629,0.105147 -0.309581,0.100166 -0.09895,-0.005 -0.250724,-0.01957 -0.250724,-0.01957 z"
       id="path60" />
    <path
       style="display:inline;fill:#ffbe92;fill-opacity:1;stroke:none;stroke-width:1.80133;stroke-linecap:round;stroke-linejoin:round"
       d="m 83.627599,15.720941 c -0.01871,-0.08943 0.168948,-0.876464 0.02329,-1.487634 -0.110841,-0.463981 -0.305285,-1.352352 -0.537656,-1.24203 -0.23238,0.110321 -0.194067,1.162746 -0.230373,1.104066 -0.03621,-0.05866 0.07625,-0.922475 -0.231776,-0.813408 -0.308076,0.109058 -0.337291,0.742421 -0.337291,0.742421 0,0 -0.838192,-1.455977 -1.234036,-1.133824 -0.39585,0.322152 0.414276,0.891785 0.414276,0.891785 0,0 -1.85524,-0.473414 -1.971978,-0.01604 -0.11673,0.457375 0.758289,0.406081 0.758289,0.406081 0,0 -1.610889,0.257281 -1.486962,0.523459 0.123926,0.266181 0.618928,0.265955 0.618928,0.265955 l -0.505047,0.409817 z"
       id="path61" />
    <path
       style="display:inline;fill:#ffbe92;fill-opacity:1;stroke:none;stroke-width:1.5;stroke-linecap:round;stroke-linejoin:round"
       d="m 73.849604,14.726374 c 0,0 -1.176461,-1.073082 -1.582554,-1.051847 -0.406093,0.02124 0.988192,1.150253 0.988192,1.150253 0,0 -0.956638,-0.27066 -1.055789,0.02343 -0.09915,0.294084 0.630522,0.502149 0.630522,0.502149 0,0 -1.037435,0.08111 -1.047397,0.522193 -0.01,0.441077 1.290544,0.717927 1.290544,0.717927 0,0 -0.677543,0.03352 -0.665758,0.255818 0.01179,0.222306 0.601409,0.16059 0.601409,0.16059 l 0.317528,0.11373 0.502667,-0.190257 z"
       id="path62" />
    <path
       style="display:inline;fill:#ffbe92;fill-opacity:1;stroke:none;stroke-width:1.5;stroke-linecap:round;stroke-linejoin:round"
       d="m 88.886583,15.748659 c 0,0 1.37271,-0.806998 1.76566,-0.702357 0.392958,0.104643 -1.204429,0.921385 -1.204429,0.921385 0,0 0.991917,-0.06727 1.028196,0.240955 0.03625,0.308216 -0.720637,0.361115 -0.720637,0.361115 0,0 0.998325,0.293608 0.916984,0.727235 -0.08105,0.433685 -1.41099,0.435942 -1.41099,0.435942 0,0 0.656029,0.172713 0.59859,0.387792 -0.0575,0.215067 -0.621611,0.03293 -0.621611,0.03293 l -0.33417,0.0457 -0.452542,-0.28996 z"
       id="path63" />
    <path
       style="display:inline;fill:#6f2d00;fill-opacity:1;stroke:none;stroke-width:1.5;stroke-linecap:round;stroke-linejoin:round"
       d="m 77.085665,27.625545 c 0,0 0.242003,-0.630811 0.998246,-0.721935 0.756244,-0.09112 1.193197,-0.112928 1.932223,-0.02436 0.739014,0.08857 1.487069,0.182894 1.983542,0.453952 0.607684,0.331773 0.677938,0.660463 0.66827,0.82358 -0.01,0.163087 -0.414707,-0.402876 -0.647543,-0.482555 -0.232845,-0.07968 -1.381727,-0.444197 -1.735239,-0.462704 -0.353521,-0.01849 -2.216775,-0.150824 -2.696796,0.142699 -0.480022,0.293495 -0.502704,0.271321 -0.502704,0.271321 z"
       id="path65" />
    <circle
       style="display:inline;fill:#a24100;fill-opacity:1;stroke:none;stroke-width:1.84078;stroke-linecap:round;stroke-linejoin:round"
       id="circle70"
       cx="84.057861"
       cy="21.68055"
       r="0.077701695"
       transform="rotate(5.9589777)" />
    <circle
       style="display:inline;fill:#a24100;fill-opacity:1;stroke:none;stroke-width:1.84078;stroke-linecap:round;stroke-linejoin:round"
       id="circle71"
       cx="84.970741"
       cy="21.832092"
       r="0.077701695"
       transform="rotate(5.9589777)" />
    <circle
       style="display:inline;fill:#a24100;fill-opacity:1;stroke:none;stroke-width:1.84078;stroke-linecap:round;stroke-linejoin:round"
       id="circle72"
       cx="84.262451"
       cy="22.374489"
       r="0.077701695"
       transform="rotate(5.9589777)" />
    <circle
       style="display:inline;fill:#a24100;fill-opacity:1;stroke:none;stroke-width:2.09381;stroke-linecap:round;stroke-linejoin:round"
       id="circle73"
       cx="-80.865791"
       cy="21.841789"
       r="0.088382423"
       transform="matrix(-0.99459648,-0.10381638,-0.10381638,0.99459648,0,0)" />
    <circle
       style="display:inline;fill:#a24100;fill-opacity:1;stroke:none;stroke-width:2.09381;stroke-linecap:round;stroke-linejoin:round"
       id="circle74"
       cx="-79.827431"
       cy="22.014168"
       r="0.088382423"
       transform="matrix(-0.99459648,-0.10381638,-0.10381638,0.99459648,0,0)" />
    <circle
       style="display:inline;fill:#a24100;fill-opacity:1;stroke:none;stroke-width:2.09381;stroke-linecap:round;stroke-linejoin:round"
       id="circle75"
       cx="-80.633087"
       cy="22.631119"
       r="0.088382423"
       transform="matrix(-0.99459648,-0.10381638,-0.10381638,0.99459648,0,0)" />
    <rect
       style="display:inline;fill:#d0e0ea;fill-opacity:1;stroke:none;stroke-width:0.0919827;stroke-linecap:round;stroke-linejoin:round;stroke-dasharray:none;stroke-opacity:1"
       id="rect75"
       width="17.851067"
       height="17.851067"
       x="59.783596"
       y="54.985298"
       ry="3.1838036"
       transform="rotate(-11.530293)" />
    <path
       style="fill:url(#linearGradient80);fill-opacity:1;stroke:none;stroke-width:0.0856782;stroke-linecap:round;stroke-linejoin:round;stroke-dasharray:none;stroke-opacity:1"
       d="m 59.813492,47.136743 8.661936,12.1292 c 0,0 2.435014,1.61899 4.30633,0.2307 1.871304,-1.3883 1.108534,-4.09768 1.108534,-4.09768 l -8.663391,-12.13123 c 0,0 -2.319064,-1.51894 -4.041225,-0.33495 -1.722164,1.184 -1.372184,4.20396 -1.372184,4.20396 z"
       id="path75" />
    <path
       style="fill:#452b06;fill-opacity:1;stroke:none;stroke-width:0.0856782;stroke-linecap:round;stroke-linejoin:round;stroke-dasharray:none;stroke-opacity:1"
       d="m 68.216219,58.863083 c 0,0 0.946296,-1.33369 2.239739,-2.28324 1.293424,-0.94957 3.134265,-1.55454 3.134265,-1.55454 0,0 1.198187,1.29598 2.068523,2.43224 0.870303,1.13627 1.872419,2.18776 1.183211,3.09188 -0.689232,0.9041 -1.342603,0.91946 -1.342603,0.91946 0,0 -0.0053,0.55218 -0.699289,1.02283 -0.694032,0.47062 -1.217962,0.27383 -1.217962,0.27383 0,0 -0.235282,0.46449 -1.117587,0.98755 -0.882354,0.52305 -1.816638,-0.65399 -2.566964,-1.69168 -0.749886,-1.03801 -1.681382,-3.19842 -1.681382,-3.19842 z"
       id="path76" />
    <path
       style="display:inline;fill:#747474;fill-opacity:1;stroke-width:0.565713"
       d="m 77.353529,55.243063 c -0.05897,0.003 -0.506013,-0.0419 -0.725841,-0.0721 -0.913876,-0.12593 -1.886023,-0.39118 -2.859259,-0.78025 -0.279326,-0.11167 -0.567769,-0.23673 -0.609318,-0.26424 -0.05039,-0.0333 -0.07489,-0.0905 -0.141358,-0.33073 -0.111335,-0.402 -0.144647,-0.54235 -0.24105,-1.01433 -0.126178,-0.61805 -0.17431,-0.94702 -0.219019,-1.4971 -0.162203,-1.99566 0.146186,-3.94372 0.956741,-6.04357 0.08846,-0.22914 0.113557,-0.27881 0.165776,-0.32799 0.05574,-0.0525 0.79146,-0.49469 1.193035,-0.71705 0.549068,-0.30403 1.559054,-0.7975 1.706399,-0.83373 l 0.0471,-0.0114 0.02789,0.019 c 0.04452,0.0304 0.32396,0.3763 0.525506,0.65063 0.02766,0.0375 0.05526,0.0674 0.06135,0.0662 0.006,-10e-4 0.09981,-0.0344 0.208241,-0.0737 0.203353,-0.0737 0.409393,-0.13997 0.718379,-0.23103 l 0.178082,-0.0524 0.598117,-0.12201 0.598108,-0.122 0.184471,-0.021 c 0.319927,-0.0374 0.535492,-0.057 0.75145,-0.0689 0.11513,-0.007 0.21399,-0.0124 0.21963,-0.0136 0.006,-10e-4 0.0282,-0.0752 0.0502,-0.16442 0.0472,-0.19176 0.15209,-0.57127 0.18274,-0.66116 0.0118,-0.0348 0.0339,-0.0727 0.0489,-0.0842 l 0.0273,-0.021 0.14407,10e-4 c 0.86939,0.007 1.93703,0.0991 2.93719,0.25401 0.21459,0.033 0.26587,0.0538 0.35957,0.14454 0.3595,0.3478 0.91333,0.9746 1.29944,1.47066 1.1303,1.45217 1.85236,2.90245 2.32376,4.66731 0.0549,0.20554 0.23232,1.07448 0.26512,1.2989 0.0503,0.34043 0.0789,0.57663 0.0781,0.63479 -0.001,0.0763 -0.0199,0.10331 -0.20231,0.2932 -0.98669,1.0268 -1.95336,1.78265 -3.0108,2.35425 -0.2253,0.12183 -0.29653,0.14707 -0.35204,0.12502 -0.0186,-0.008 -0.11526,-0.0948 -0.2147,-0.19416 -0.24202,-0.24187 -0.8405,-0.89272 -0.83228,-0.90515 0.002,-0.003 0.0803,-0.0571 0.17415,-0.12053 0.23972,-0.16181 0.34995,-0.24122 0.53631,-0.38638 0.18948,-0.14761 0.44173,-0.36433 0.43937,-0.37752 -0.001,-0.0103 -0.0626,-0.0466 -0.20763,-0.12439 -0.0544,-0.0291 -0.10988,-0.059 -0.12328,-0.0665 l -0.0245,-0.0131 -0.12632,0.10768 c -0.65242,0.55601 -1.62474,1.02444 -2.85095,1.3735 -0.24914,0.0709 -1.20508,0.26592 -1.462054,0.29828 -1.264457,0.15913 -2.343125,0.10899 -3.160348,-0.14676 l -0.157609,-0.0493 -0.02953,0.0355 c -0.110626,0.13302 -0.220604,0.27785 -0.218747,0.28808 0.0046,0.0254 0.557101,0.18865 0.872835,0.25794 0.067,0.015 0.21274,0.0449 0.323966,0.0659 0.111199,0.0212 0.204585,0.0405 0.207493,0.043 0.01296,0.008 -0.276761,0.82401 -0.417174,1.17453 -0.101335,0.25297 -0.126119,0.28487 -0.224646,0.28916 z m 0.688116,-3.9759 c 0.267519,-0.10516 0.488051,-0.29021 0.651217,-0.54634 0.168519,-0.26452 0.247787,-0.55496 0.244386,-0.89536 l -0.0011,-0.11305 -0.03869,-0.1872 -0.03869,-0.18719 -0.05122,-0.11777 c -0.253214,-0.5822 -0.759479,-0.94333 -1.329713,-0.94854 l -0.105573,-9e-4 -0.156975,0.0326 -0.156974,0.0326 -0.09244,0.0404 c -0.623605,0.273 -0.961322,0.99209 -0.811589,1.72808 l 0.02726,0.13383 0.05094,0.12773 c 0.183858,0.46112 0.532939,0.79605 0.970601,0.93124 0.267614,0.0827 0.579983,0.0714 0.838571,-0.0303 z m 5.251614,-1.09439 c 0.4263,-0.20995 0.722,-0.64807 0.7853,-1.1635 0.007,-0.0533 0.0104,-0.16131 0.009,-0.23995 l -0.003,-0.14297 -0.0281,-0.13991 c -0.11589,-0.56713 -0.50118,-1.02256 -1.01274,-1.19715 -0.10867,-0.0371 -0.2906,-0.0677 -0.40969,-0.0689 l -0.10084,-9.4e-4 -0.15719,0.0314 -0.1572,0.0314 -0.0968,0.0423 c -0.23304,0.10179 -0.41777,0.25456 -0.5721,0.47331 -0.18217,0.25822 -0.27709,0.57041 -0.2798,0.92028 l -0.001,0.12844 0.0378,0.18737 0.0378,0.1874 0.0433,0.10443 c 0.13021,0.31454 0.3169,0.55071 0.57556,0.7281 0.24575,0.16853 0.52015,0.2534 0.80669,0.24951 l 0.09,-10e-4 0.16222,-0.0378 0.16222,-0.0378 z"
       id="path77" />
    <path
       style="fill:#452b06;fill-opacity:1;stroke:none;stroke-width:0.0856782;stroke-linecap:round;stroke-linejoin:round;stroke-dasharray:none;stroke-opacity:1"
       d="m 92.828949,55.867393 c 0,0 -0.9562,-1.32662 -2.25665,-2.26653 -1.30044,-0.93998 -3.14574,-1.5312 -3.14574,-1.5312 0,0 -1.18854,1.30484 -2.05038,2.44755 -0.86186,1.14269 -1.85614,2.20159 -1.16021,3.10057 0.69591,0.89896 1.34938,0.90947 1.34938,0.90947 0,0 0.009,0.55212 0.70691,1.0176 0.6975,0.46545 1.21997,0.26473 1.21997,0.26473 0,0 0.23874,0.46272 1.12489,0.97923 0.88621,0.51649 1.81172,-0.66748 2.55432,-1.71071 0.74214,-1.04357 1.65756,-3.21082 1.65756,-3.21082 z"
       id="path78" />
    <path
       style="fill:url(#linearGradient79);fill-opacity:1;stroke:none;stroke-width:0.0856782;stroke-linecap:round;stroke-linejoin:round;stroke-dasharray:none;stroke-opacity:1"
       d="m 100.88944,44.441463 -8.571581,12.19324 c 0,0 -2.42292,1.63706 -4.30449,0.2627 -1.8816,-1.37429 -1.13895,-4.08931 -1.13895,-4.08931 l 8.57301,-12.1953 c 0,0 2.3077,-1.53614 4.03861,-0.36498 1.730901,1.17119 1.403401,4.19365 1.403401,4.19365 z"
       id="path79" />
    <path
       style="fill:#e4a0ff;fill-opacity:1;stroke-width:0.1;stroke-linecap:round;stroke-linejoin:round"
       d="m 78.739017,31.916401 c 0,0 0.738508,2.105684 1.737892,2.026682 0.999382,-0.079 1.780199,-0.405376 1.676599,-0.80768 -0.103601,-0.402307 -0.485148,-0.868622 -0.485148,-0.868622 0,0 -0.951577,0.101769 -2.233491,-0.503113 -0.581823,0.133385 -0.695852,0.152733 -0.695852,0.152733 z"
       id="path84" />
    <path
       style="fill:none;fill-opacity:1;stroke:#da7eff;stroke-width:0.1;stroke-linecap:round;stroke-linejoin:round;stroke-opacity:1"
       d="M 81.176301,33.757203 80.346716,32.368709"
       id="path85" />
    <path
       style="fill:url(#linearGradient92);fill-opacity:1;stroke:#5d2500;stroke-width:0.2;stroke-linecap:round;stroke-linejoin:round;stroke-dasharray:none;stroke-opacity:1"
       d="m 84.55017,25.246151 c 0,0 0.367912,1.267907 2.408651,1.30878 1.99554,0.03997 2.471477,-1.514521 2.471477,-1.514521"
       id="path90" />
    <path
       style="fill:none;fill-opacity:1;stroke:#5d2500;stroke-width:0.2;stroke-linecap:round;stroke-linejoin:round;stroke-dasharray:none;stroke-opacity:1"
       d="m 89.461712,25.030002 c 0,0 0.07994,0.137313 -0.0051,0.453073 -0.085,0.31576 -0.150923,-0.126994 -0.150923,-0.126994 0,0 -0.174392,0.638042 -0.234188,0.751735 -0.0598,0.113693 -0.06493,-0.319156 -0.06493,-0.319156"
       id="path91" />
    <path
       style="fill:url(#linearGradient93);fill-opacity:1;stroke:#5d2500;stroke-width:0.2;stroke-linecap:round;stroke-linejoin:round;stroke-dasharray:none;stroke-opacity:1"
       d="m 76.195049,24.566937 c 0,0 -0.567272,1.19212 -2.587962,0.903856 -1.975936,-0.281877 -2.195356,-1.892719 -2.195356,-1.892719"
       id="path92" />
    <path
       style="fill:none;fill-opacity:1;stroke:#5d2500;stroke-width:0.2;stroke-linecap:round;stroke-linejoin:round;stroke-dasharray:none;stroke-opacity:1"
       d="m 71.382403,23.562743 c 0,0 -0.101007,0.122649 -0.06792,0.447982 0.03305,0.325326 0.169403,-0.101035 0.169403,-0.101035 0,0 0.06938,0.657797 0.110086,0.779635 0.04071,0.121838 0.115474,-0.304536 0.115474,-0.304536"
       id="path93" />
  </g>
</svg>
