<?xml version="1.0" encoding="UTF-8" standalone="no"?>
<!-- Created with Inkscape (http://www.inkscape.org/) -->

<svg
   width="210mm"
   height="297mm"
   viewBox="0 0 210 297"
   version="1.1"
   id="svg1"
   inkscape:version="1.3 (0e150ed6c4, 2023-07-21)"
   sodipodi:docname="patron_th_bg.svg"
   xmlns:inkscape="http://www.inkscape.org/namespaces/inkscape"
   xmlns:sodipodi="http://sodipodi.sourceforge.net/DTD/sodipodi-0.dtd"
   xmlns="http://www.w3.org/2000/svg"
   xmlns:svg="http://www.w3.org/2000/svg">
  <sodipodi:namedview
     id="namedview1"
     pagecolor="#ffffff"
     bordercolor="#000000"
     borderopacity="0.25"
     inkscape:showpageshadow="2"
     inkscape:pageopacity="0.0"
     inkscape:pagecheckerboard="0"
     inkscape:deskcolor="#d1d1d1"
     inkscape:document-units="mm"
     inkscape:zoom="6.4909738"
     inkscape:cx="741.18309"
     inkscape:cy="43.830095"
     inkscape:window-width="1366"
     inkscape:window-height="745"
     inkscape:window-x="-8"
     inkscape:window-y="-8"
     inkscape:window-maximized="1"
     inkscape:current-layer="layer1" />
  <defs
     id="defs1" />
  <g
     inkscape:label="Capa 1"
     inkscape:groupmode="layer"
     id="layer1">
    <circle
       style="fill:none;stroke:#bebebe;stroke-width:0.1841;stroke-linejoin:bevel;stroke-opacity:1"
       id="path1"
       cx="23.127048"
       cy="21.77459"
       r="2.554384" />
    <circle
       style="fill:none;stroke:#bebebe;stroke-width:0.214;stroke-linejoin:bevel;stroke-opacity:1;stroke-dasharray:none"
       id="circle1"
       cx="22.192633"
       cy="17.184433"
       r="1.5753213" />
    <circle
       style="fill:none;stroke:#bebebe;stroke-width:0.214;stroke-linejoin:bevel;stroke-opacity:1;stroke-dasharray:none"
       id="circle2"
       cx="18.866802"
       cy="19.813524"
       r="1.5753213" />
    <circle
       style="fill:none;stroke:#bebebe;stroke-width:0.214;stroke-linejoin:bevel;stroke-opacity:1;stroke-dasharray:none"
       id="circle3"
       cx="18.934425"
       cy="23.600409"
       r="1.5753213" />
    <circle
       style="fill:none;stroke:#bebebe;stroke-width:0.214;stroke-linejoin:bevel;stroke-opacity:1;stroke-dasharray:none"
       id="circle4"
       cx="21.909834"
       cy="26.237703"
       r="1.5753213" />
    <circle
       style="fill:none;stroke:#bebebe;stroke-width:0.214;stroke-linejoin:bevel;stroke-opacity:1;stroke-dasharray:none"
       id="circle5"
       cx="25.764341"
       cy="25.69672"
       r="1.5753213" />
    <circle
       style="fill:none;stroke:#bebebe;stroke-width:0.214;stroke-linejoin:bevel;stroke-opacity:1;stroke-dasharray:none"
       id="circle6"
       cx="27.721304"
       cy="22.040276"
       r="1.5753213" />
    <circle
       style="fill:none;stroke:#bebebe;stroke-width:0.214;stroke-linejoin:bevel;stroke-opacity:1;stroke-dasharray:none"
       id="circle7"
       cx="26.176874"
       cy="18.273195"
       r="1.5753213" />
    <path
       style="fill:none;stroke:#bebebe;stroke-width:0.214;stroke-linejoin:bevel;stroke-dasharray:none;stroke-opacity:1"
       d="m 11.725674,13.389709 c -0.05764,-0.432343 0.17113,-1.242911 1.230218,-1.392178 1.073653,-0.15132 1.512152,0.326028 1.63003,0.756451 0.120977,0.441736 -0.232118,1.369238 -1.067983,1.542175 -0.835864,0.172937 -1.734619,-0.474104 -1.792265,-0.906448 z"
       id="path23"
       sodipodi:nodetypes="zsssz" />
    <path
       style="fill:none;stroke:#bebebe;stroke-width:0.214;stroke-linejoin:bevel;stroke-dasharray:none;stroke-opacity:1"
       d="m 13.265738,11.968708 c 0,0 0.194555,-1.268208 1.188945,-0.850276 0.99439,0.417932 0.10088,1.48438 0.10088,1.48438 0,0 -0.324258,-0.461167 -0.533224,-0.511607 -0.208966,-0.05044 -0.756601,-0.122497 -0.756601,-0.122497 z"
       id="path24" />
    <path
       style="fill:none;stroke:#bebebe;stroke-width:0.214;stroke-linejoin:bevel;stroke-dasharray:none;stroke-opacity:1"
       d="m 12.271348,12.192085 c 0,0 -0.111127,-0.842535 -0.763806,-0.727778 -0.655721,0.115292 -0.936745,1.080859 0.09367,1.758197 0.01969,0.0014 0.05466,0.01916 0.05736,7.8e-4 0.0904,-0.616329 0.612775,-1.031199 0.612775,-1.031199 z"
       id="path25"
       sodipodi:nodetypes="cscscc" />
    <path
       style="fill:none;stroke:#bebebe;stroke-width:0.214;stroke-linejoin:bevel;stroke-dasharray:none;stroke-opacity:1"
       d="m 12.772146,13.856608 c 0.288229,0.1261 0.529621,-0.248598 0.529621,-0.248598 0,0 0.410726,0.248598 0.572855,-0.03242"
       id="path26" />
    <path
       style="fill:none;stroke:#bebebe;stroke-width:0.214;stroke-linejoin:bevel;stroke-dasharray:none;stroke-opacity:1"
       d="m 13.020826,13.354562 0.270046,0.196166 c 0,0 0.07133,-0.290427 0.06114,-0.285332 -0.01019,0.0051 -0.331189,0.08917 -0.331189,0.08917 z"
       id="path27" />
    <path
       style="fill:none;stroke:#bebebe;stroke-width:0.214;stroke-linejoin:bevel;stroke-dasharray:none;stroke-opacity:1"
       d="m 12.455094,12.746926 c 0,0 -0.17654,0.324258 -0.01802,0.443152 0.158526,0.118895 0.349477,0.02882 0.363889,-0.09007 0.01441,-0.118895 -0.05404,-0.331464 -0.1261,-0.363889 -0.07206,-0.03243 -0.219775,0.01081 -0.219775,0.01081 z"
       id="path28" />
    <path
       style="fill:none;stroke:#bebebe;stroke-width:0.214;stroke-linejoin:bevel;stroke-dasharray:none;stroke-opacity:1"
       d="m 13.485513,12.545166 c 0,0 -0.17654,0.324258 -0.01802,0.443152 0.158526,0.118895 0.349477,0.02882 0.363889,-0.09007 0.01441,-0.118895 -0.05404,-0.331464 -0.1261,-0.363889 -0.07206,-0.03243 -0.219775,0.01081 -0.219775,0.01081 z"
       id="path29" />
    <circle
       style="fill:none;stroke:#bebebe;stroke-width:0.729;stroke-linejoin:bevel;stroke-opacity:1;stroke-dasharray:none"
       id="circle29"
       cx="151.47733"
       cy="122.42872"
       r="7.37467" />
    <circle
       style="fill:none;stroke:#bebebe;stroke-width:0.61438318;stroke-linejoin:bevel;stroke-dasharray:none;stroke-opacity:1"
       id="circle30"
       cx="148.7796"
       cy="109.17664"
       r="4.5480533" />
    <circle
       style="fill:none;stroke:#bebebe;stroke-width:0.61438318;stroke-linejoin:bevel;stroke-dasharray:none;stroke-opacity:1"
       id="circle31"
       cx="139.1777"
       cy="116.76701"
       r="4.5480533" />
    <circle
       style="fill:none;stroke:#bebebe;stroke-width:0.61438318;stroke-linejoin:bevel;stroke-dasharray:none;stroke-opacity:1"
       id="circle32"
       cx="139.37294"
       cy="127.69996"
       r="4.5480533" />
    <circle
       style="fill:none;stroke:#bebebe;stroke-width:0.61438318;stroke-linejoin:bevel;stroke-dasharray:none;stroke-opacity:1"
       id="circle33"
       cx="147.96312"
       cy="135.31403"
       r="4.5480533" />
    <circle
       style="fill:none;stroke:#bebebe;stroke-width:0.61438318;stroke-linejoin:bevel;stroke-dasharray:none;stroke-opacity:1"
       id="circle34"
       cx="159.09134"
       cy="133.75217"
       r="4.5480533" />
    <circle
       style="fill:none;stroke:#bebebe;stroke-width:0.6147454;stroke-linejoin:bevel;stroke-dasharray:none;stroke-opacity:1"
       id="circle35"
       cx="164.74123"
       cy="123.19577"
       r="4.5480533" />
    <circle
       style="fill:none;stroke:#bebebe;stroke-width:0.61438318;stroke-linejoin:bevel;stroke-dasharray:none;stroke-opacity:1"
       id="circle36"
       cx="160.28235"
       cy="112.31996"
       r="4.5480533" />
    <circle
       style="fill:none;stroke:#bebebe;stroke-width:0.173486;stroke-linejoin:bevel;stroke-dasharray:none;stroke-opacity:1"
       id="path36"
       cx="140.3981"
       cy="142.91685"
       r="2.614172"
       transform="rotate(-43.596131)" />
    <path
       style="fill:none;stroke:#bebebe;stroke-width:0.173485;stroke-linejoin:bevel;stroke-dasharray:none;stroke-opacity:1"
       d="m 199.49379,8.4225691 c 0,0 1.03533,0.8691521 2.10941,-0.1535501 1.07409,-1.0227022 0.3727,-2.1801335 0.3727,-2.1801335"
       id="path37" />
    <circle
       style="fill:none;stroke:#bebebe;stroke-width:0.173485;stroke-linejoin:bevel;stroke-dasharray:none;stroke-opacity:1"
       id="path38"
       cx="139.47516"
       cy="142.3322"
       r="0.67706639"
       transform="rotate(-43.596131)" />
    <circle
       style="fill:none;stroke:#bebebe;stroke-width:0.173485;stroke-linejoin:bevel;stroke-dasharray:none;stroke-opacity:1"
       id="circle38"
       cx="141.19469"
       cy="142.36444"
       r="0.67706639"
       transform="rotate(-43.596131)" />
    <circle
       style="fill:#bebebe;fill-opacity:1;stroke:#bebebe;stroke-width:0.121704;stroke-linejoin:bevel;stroke-dasharray:none;stroke-opacity:1"
       id="circle39"
       cx="141.1035"
       cy="142.42523"
       r="0.47497705"
       transform="rotate(-43.596131)" />
    <circle
       style="fill:#bebebe;fill-opacity:1;stroke:#bebebe;stroke-width:0.121704;stroke-linejoin:bevel;stroke-dasharray:none;stroke-opacity:1"
       id="circle40"
       cx="139.61403"
       cy="142.44043"
       r="0.47497705"
       transform="rotate(-43.596131)" />
  </g>
</svg>
