<?xml version="1.0" encoding="UTF-8" standalone="no"?>
<!-- Created with Inkscape (http://www.inkscape.org/) -->

<svg
   width="2000"
   height="300"
   viewBox="0 0 529.16666 79.375"
   version="1.1"
   id="svg5"
   inkscape:version="1.2.2 (b0a8486541, 2022-12-01)"
   sodipodi:docname="clouds.svg"
   xmlns:inkscape="http://www.inkscape.org/namespaces/inkscape"
   xmlns:sodipodi="http://sodipodi.sourceforge.net/DTD/sodipodi-0.dtd"
   xmlns="http://www.w3.org/2000/svg"
   xmlns:svg="http://www.w3.org/2000/svg">
  <sodipodi:namedview
     id="namedview7"
     pagecolor="#ffffff"
     bordercolor="#000000"
     borderopacity="0.25"
     inkscape:showpageshadow="2"
     inkscape:pageopacity="0.0"
     inkscape:pagecheckerboard="0"
     inkscape:deskcolor="#d1d1d1"
     inkscape:document-units="mm"
     showgrid="false"
     inkscape:zoom="0.35212985"
     inkscape:cx="1164.3432"
     inkscape:cy="340.78338"
     inkscape:window-width="1362"
     inkscape:window-height="735"
     inkscape:window-x="2"
     inkscape:window-y="31"
     inkscape:window-maximized="1"
     inkscape:current-layer="layer1" />
  <defs
     id="defs2" />
  <g
     inkscape:label="Capa 1"
     inkscape:groupmode="layer"
     id="layer1">
    <path
       style="fill:#d8d8d8;fill-opacity:1;stroke-width:0.765"
       d="M -9.8537235,26.484699 15.603073,46.665212 33.684305,32.441786 c 0,0 4.075797,23.431958 14.598168,24.175844 10.522371,0.743886 22.158851,-27.157209 22.158851,-27.157209 0,0 6.875577,15.05217 15.383629,15.603088 8.508052,0.550918 23.045637,-18.002656 23.045637,-18.002656 0,0 4.24762,16.506238 13.41813,16.602336 9.17051,0.0961 21.71441,-25.744565 21.71441,-25.744565 0,0 8.32515,33.383221 19.78407,32.535416 11.45892,-0.847805 11.97981,-28.443155 11.97981,-28.443155 0,0 12.90545,27.815948 22.5983,29.05965 9.69285,1.243702 17.31083,-13.285954 17.31083,-13.285954 0,0 25.26975,21.068308 35.08938,16.36214 9.81963,-4.706168 6.34353,-25.851126 6.34353,-25.851126 0,0 26.57824,26.274492 38.5737,24.224682 11.99546,-2.04981 17.08941,-21.502486 17.08941,-21.502486 0,0 -2.6276,10.558189 8.28389,14.364977 10.91149,3.806788 49.06412,-19.389747 49.06412,-19.389747 0,0 1.41401,23.104296 9.52436,23.674828 8.11035,0.570532 11.61863,-20.154343 11.61863,-20.154343 0,0 7.15935,18.739035 17.64728,18.934939 10.48793,0.195904 26.2586,-26.144926 26.2586,-26.144926 0,0 4.59714,19.804996 11.32604,19.847084 6.7289,0.04209 8.87469,-15.109239 8.87469,-15.109239 l 22.63645,12.437402 20.51976,-11.573252 c 0,0 5.74314,24.984806 15.76964,25.576944 10.0265,0.592138 18.77523,-23.675022 18.77523,-23.675022 l 10.45001,-36.6491779 -551.2382372,1.075907 z"
       id="path996"
       sodipodi:nodetypes="ccczczczczczczczczczczczccczcccc" />
    <path
       style="fill:#dddddd;fill-opacity:1;stroke-width:0.765"
       d="M -9.8537235,22.077083 15.603073,42.257596 33.684305,28.03417 c 0,0 4.075797,23.431958 14.598168,24.175844 10.522371,0.743886 22.158851,-27.157209 22.158851,-27.157209 0,0 6.875577,15.05217 15.383629,15.603088 8.508052,0.550918 23.045637,-18.002656 23.045637,-18.002656 0,0 4.24762,16.506238 13.41813,16.602336 9.17051,0.0961 21.71441,-25.744565 21.71441,-25.744565 0,0 8.32515,33.383221 19.78407,32.535416 11.45892,-0.847805 11.97981,-28.443155 11.97981,-28.443155 0,0 12.90545,27.815948 22.5983,29.05965 9.69285,1.243702 17.31083,-13.285954 17.31083,-13.285954 0,0 25.26975,21.068308 35.08938,16.36214 9.81963,-4.706168 6.34353,-25.851126 6.34353,-25.851126 0,0 26.57824,26.274492 38.5737,24.224682 11.99546,-2.04981 17.08941,-21.502486 17.08941,-21.502486 0,0 -2.6276,10.558189 8.28389,14.364977 10.91149,3.806788 49.06412,-19.389747 49.06412,-19.389747 0,0 1.41401,23.104296 9.52436,23.674828 8.11035,0.570532 11.61863,-20.154343 11.61863,-20.154343 0,0 7.15935,18.739035 17.64728,18.934939 10.48793,0.195904 26.2586,-26.144926 26.2586,-26.144926 0,0 4.59714,19.804996 11.32604,19.847084 6.7289,0.04209 8.87469,-15.109239 8.87469,-15.109239 l 22.63645,12.437402 20.51976,-11.573252 c 0,0 5.74314,24.984806 15.76964,25.576944 10.0265,0.592138 18.77523,-23.675022 18.77523,-23.675022 l 10.45001,-36.649178 -551.2382372,1.075907 z"
       id="path236"
       sodipodi:nodetypes="ccczczczczczczczczczczczccczcccc" />
    <path
       style="fill:#eeeeee;fill-opacity:1;stroke-width:0.66124"
       d="M 543.52086,8.9016585 518.06406,23.979095 499.98283,13.352368 c 0,0 -4.0758,17.506683 -14.59817,18.062462 -10.52237,0.555778 -22.15885,-20.289925 -22.15885,-20.289925 0,0 -6.87557,11.245905 -15.38363,11.657512 -8.50805,0.411606 -23.04563,-13.4502974 -23.04563,-13.4502974 0,0 -4.24762,12.3322804 -13.41813,12.4040784 -9.17051,0.0718 -21.71441,-19.2344981 -21.71441,-19.2344981 0,0 -8.32515,24.9415551 -19.78407,24.3081361 -11.45892,-0.633419 -11.97981,-21.2506914 -11.97981,-21.2506914 0,0 -12.90545,20.7820874 -22.5983,21.7112924 -9.69285,0.929205 -17.31083,-9.926315 -17.31083,-9.926315 0,0 -25.26975,15.740733 -35.08938,12.224621 -9.81963,-3.516112 -6.34353,-19.314113 -6.34353,-19.314113 0,0 -26.57824,19.630422 -38.5737,18.098951 -11.99546,-1.531472 -17.08941,-16.06512 -17.08941,-16.06512 0,0 2.6276,7.888323 -8.28389,10.732483 -10.91149,2.84416 -49.06412,-14.4866321 -49.06412,-14.4866321 0,0 -1.41401,17.2618781 -9.52436,17.6881381 -8.11035,0.426261 -11.61863,-15.057884 -11.61863,-15.057884 0,0 -7.15935,14.000467 -17.64728,14.146833 C 114.26877,25.457764 98.498097,5.7777798 98.498097,5.7777798 c 0,0 -4.59714,14.7968772 -11.32604,14.8283222 -6.7289,0.03145 -8.87469,-11.2885432 -8.87469,-11.2885432 L 55.660917,18.609896 35.141157,9.9631899 c 0,0 -5.74314,18.6668601 -15.769641,19.1092631 C 9.3450165,29.514857 0.5962865,11.38417 0.5962865,11.38417 l -10.45001,-27.381645 551.2382335,0.803841 z"
       id="path998"
       sodipodi:nodetypes="ccczczczczczczczczczczczccczcccc" />
  </g>
</svg>
