<?xml version="1.0" encoding="UTF-8" standalone="no"?>
<!-- Created with Inkscape (http://www.inkscape.org/) -->

<svg
   width="210mm"
   height="297mm"
   viewBox="0 0 210 297"
   version="1.1"
   id="svg5"
   xml:space="preserve"
   inkscape:version="1.2.2 (b0a8486541, 2022-12-01)"
   sodipodi:docname="LR_snuggle_p.svg"
   xmlns:inkscape="http://www.inkscape.org/namespaces/inkscape"
   xmlns:sodipodi="http://sodipodi.sourceforge.net/DTD/sodipodi-0.dtd"
   xmlns="http://www.w3.org/2000/svg"
   xmlns:svg="http://www.w3.org/2000/svg"><sodipodi:namedview
     id="namedview7"
     pagecolor="#ffffff"
     bordercolor="#000000"
     borderopacity="0.25"
     inkscape:showpageshadow="2"
     inkscape:pageopacity="0.0"
     inkscape:pagecheckerboard="0"
     inkscape:deskcolor="#d1d1d1"
     inkscape:document-units="mm"
     showgrid="false"
     inkscape:zoom="0.49798681"
     inkscape:cx="627.52666"
     inkscape:cy="614.4741"
     inkscape:window-width="1362"
     inkscape:window-height="735"
     inkscape:window-x="2"
     inkscape:window-y="31"
     inkscape:window-maximized="1"
     inkscape:current-layer="layer31" /><defs
     id="defs2" /><g
     inkscape:label="Capa 1"
     inkscape:groupmode="layer"
     id="layer1"><g
       inkscape:groupmode="layer"
       id="layer7"
       inkscape:label="p"
       transform="matrix(1.1213945,0,0,1.1213945,-15.120216,-32.634195)"
       style="fill:#fcffdc;fill-opacity:0.77931666"><path
         style="fill:#fcffdc;fill-opacity:0.61740863;stroke-width:0.365001;stroke-linecap:round"
         d="m 105.67199,237.11362 c -14.162907,-0.34446 -25.712717,0.94892 -32.00824,2.74767 -6.295523,1.79875 -6.48364,2.69942 -6.376055,4.09465 0.107585,1.39523 7.474326,1.13438 7.255999,2.65509 -0.218327,1.52071 -21.133491,0.19183 -21.192445,1.8049 -0.05895,1.61307 9.837519,1.21046 10.107684,2.69143 0.270165,1.48097 -15.196381,2.64056 -15.15433,5.08674 0.04205,2.44619 8.72536,1.24202 8.565007,3.12774 -0.160353,1.88572 -3.909227,1.22228 -3.86044,3.76739 0.04879,2.54511 24.878681,-0.88866 25.18388,1.54403 0.305199,2.43269 -5.614009,0.39921 -5.711661,2.79582 -0.09765,2.39661 17.885928,3.5754 28.727921,3.63606 10.84199,0.0607 34.86905,-0.73289 35.56097,-2.60753 0.69192,-1.87465 -5.25518,-3.28919 -5.31484,-4.32566 -0.0597,-1.03647 26.71877,-0.23842 28.03166,-2.73514 1.3129,-2.49672 -7.06289,-3.62092 -7.03163,-4.2738 0.0313,-0.65288 13.02522,1.31562 12.46293,-3.97984 -0.56229,-5.29546 -18.00229,0.002 -17.949,-2.2771 0.0533,-2.27954 10.48604,-1.62482 10.82287,-4.93385 0.33683,-3.30903 -37.95737,-8.47413 -52.12028,-8.8186 z"
         id="path3857"
         sodipodi:nodetypes="zzzzzzzzzzzzzzzzzzzz" /></g><g
       inkscape:label="Cuerpo"
       id="layer1-3"
       transform="matrix(3.3718861,0,0,3.3718861,-3.6765843,-0.94813501)"><g
         inkscape:groupmode="layer"
         id="layer3"
         inkscape:label="tail"><path
           style="fill:#ccc2b3;fill-opacity:1;stroke-width:2.21886;stroke-linecap:round;stroke-linejoin:round"
           d="m 30.509207,49.000725 3.192112,-0.03491 c 0,0 0.415586,5.007988 1.474646,7.271978 1.05904,2.26398 2.18513,4.092112 3.769411,5.896459 1.584281,1.804347 1.563739,2.7988 3.645666,3.246179 2.081927,0.447379 3.913723,0.96493 4.89494,0.466592 0.981216,-0.498339 1.326759,-3.122972 1.326759,-3.122972 0,0 1.333015,3.56288 0.642015,4.715044 -0.691,1.152164 -1.213945,1.801776 -4.000981,2.083716 -2.787036,0.281939 -4.99176,0.168973 -7.967631,-0.963098 -2.975871,-1.132086 -5.004067,-4.308427 -5.914916,-6.241978 -0.910849,-1.93355 -1.882288,-6.364751 -1.679568,-9.149395 0.20272,-2.784644 0.227603,-3.661011 0.617543,-4.167613 z"
           id="path26"
           sodipodi:nodetypes="cczzzzczzzzzcc" /></g><g
         inkscape:groupmode="layer"
         id="layer17"
         inkscape:label="tronco"><g
           inkscape:groupmode="layer"
           id="layer4"
           inkscape:label="arms"
           transform="translate(-19.362466,0.03122891)"><g
             inkscape:groupmode="layer"
             id="g6132"
             inkscape:label="left"
             transform="matrix(-0.22875074,0.97348503,0.97348503,0.22875074,23.583834,-26.12926)"
             inkscape:transform-center-x="7.7730276"
             inkscape:transform-center-y="31.443344"><g
               inkscape:groupmode="layer"
               id="layer34"
               inkscape:label="hombro"
               inkscape:transform-center-x="32.404787"><g
                 inkscape:groupmode="layer"
                 id="g6082"
                 inkscape:label="down"
                 inkscape:transform-center-x="-9.5726715"
                 style="display:inline"
                 transform="translate(3.7786154e-6)"><path
                   style="fill:#f0ddc2;fill-opacity:1;stroke-width:1.17061;stroke-linecap:round;stroke-linejoin:round"
                   d="m 54.071302,37.243178 c 0.03292,-3.062161 2.89653,-3.029091 2.89653,-3.029091 h 5.530266 4.046905 c 0,0 2.90348,0.145437 2.87788,2.926324 -0.0256,2.780884 -3.151566,2.957777 -3.151566,2.957777 0,0 -1.314049,-0.0125 -3.905289,-0.0369 -1.519452,0.02423 -4.672767,-0.0089 -4.672767,-0.0089 0,0 -3.654875,0.252996 -3.621959,-2.809165 z"
                   id="path6070"
                   sodipodi:nodetypes="zczczccczz"
                   inkscape:transform-center-x="-8.1451157"
                   inkscape:transform-center-y="-0.035390917"
                   inkscape:label="brazo" /></g><g
                 inkscape:groupmode="layer"
                 id="g6098"
                 inkscape:label="back"
                 inkscape:transform-center-x="-9.2960976"
                 style="display:none"
                 transform="translate(3.7786154e-6)"><path
                   style="fill:#f0ddc2;fill-opacity:1;stroke-width:1.26003;stroke-linecap:round;stroke-linejoin:round"
                   d="m 53.703111,37.253967 c 0.03292,-3.547832 2.89653,-3.509517 2.89653,-3.509517 h 5.530266 4.046905 c 0,0 2.90348,0.168504 2.87788,3.390451 -0.0256,3.221943 -3.151566,3.426892 -3.151566,3.426892 0,0 -1.314049,-0.01448 -3.905289,-0.04275 -1.519452,0.02807 -4.672767,-0.01031 -4.672767,-0.01031 0,0 -3.654875,0.293122 -3.621959,-3.25471 z"
                   id="path6084"
                   sodipodi:nodetypes="zczczccczz"
                   inkscape:transform-center-x="-8.1451157"
                   inkscape:transform-center-y="-0.041004089"
                   inkscape:label="brazo" /></g><g
                 inkscape:groupmode="layer"
                 id="g6116"
                 inkscape:label="front"
                 inkscape:transform-center-x="-9.4563365"
                 style="display:none"
                 transform="translate(3.7786154e-6)"><path
                   style="fill:#f0ddc2;fill-opacity:1;stroke-width:1.26003;stroke-linecap:round;stroke-linejoin:round"
                   d="m 53.703111,37.563538 c 0.03292,-3.547832 2.89653,-3.509517 2.89653,-3.509517 h 5.530266 4.046905 c 0,0 2.90348,0.168504 2.87788,3.390451 -0.0256,3.221943 -3.151566,3.426892 -3.151566,3.426892 0,0 -1.314049,-0.01448 -3.905289,-0.04275 -1.519452,0.02807 -4.672767,-0.01031 -4.672767,-0.01031 0,0 -3.654875,0.293122 -3.621959,-3.25471 z"
                   id="path6100"
                   sodipodi:nodetypes="zczczccczz"
                   inkscape:transform-center-x="-8.1451157"
                   inkscape:transform-center-y="-0.041004089"
                   inkscape:label="brazo" /></g><g
                 inkscape:groupmode="layer"
                 id="g6130"
                 inkscape:label="up"
                 inkscape:transform-center-x="-9.53493"
                 style="display:none"
                 transform="translate(3.7786154e-6)"><path
                   style="fill:#f0ddc2;fill-opacity:1;stroke-width:1.17061;stroke-linecap:round;stroke-linejoin:round"
                   d="m 54.071302,37.198417 c 0.03292,3.062161 2.89653,3.029091 2.89653,3.029091 h 5.530266 4.046905 c 0,0 2.90348,-0.145437 2.87788,-2.926324 -0.0256,-2.780884 -3.151566,-2.957777 -3.151566,-2.957777 0,0 -1.314049,0.0125 -3.905289,0.0369 -1.519452,-0.02423 -4.672767,0.0089 -4.672767,0.0089 0,0 -3.654875,-0.252996 -3.621959,2.809165 z"
                   id="path6118"
                   sodipodi:nodetypes="zczczccczz"
                   inkscape:transform-center-x="-8.1451157"
                   inkscape:transform-center-y="0.035390865"
                   inkscape:label="brazo" /></g><g
                 inkscape:groupmode="layer"
                 id="layer35"
                 inkscape:label="antebrazo"
                 inkscape:transform-center-x="15.279008"><g
                   inkscape:groupmode="layer"
                   id="g6096"
                   inkscape:label="antebrazo_back"
                   inkscape:transform-center-x="-4.7976782"
                   style="display:none"
                   transform="translate(3.7786154e-6)"><path
                     style="fill:#f1e0c7;fill-opacity:1;stroke-width:1.25851;stroke-linecap:round;stroke-linejoin:round"
                     d="m 65.414141,40.520097 c 0,0 -3.516589,-0.01361 -3.535159,-3.206693 -0.0185,-3.193082 2.936269,-3.532832 2.936269,-3.532832 l 6.925759,0.0058 h 4.07343 c 0,0 2.90348,0.168098 2.87788,3.382268 -0.0256,3.214168 -3.38226,3.560276 -3.38226,3.560276 l -3.923158,-0.192039 z"
                     id="path6086"
                     sodipodi:nodetypes="czccczccc"
                     inkscape:label="antebrazo" /><path
                     style="fill:#e9e5df;fill-opacity:1;stroke-width:1.25851;stroke-linecap:round;stroke-linejoin:round"
                     d="m 72.3925,33.809425 c 0,0 -1.17838,1.102785 -1.25256,3.237352 -0.0742,2.134566 0.471415,3.495486 0.471415,3.495486 l 3.718375,0.204295 c 0,0 3.29278,-0.310663 3.36264,-3.525199 0.0699,-3.214536 -2.81377,-3.382266 -2.81377,-3.382266 z"
                     id="path6088"
                     sodipodi:nodetypes="czcczcc"
                     inkscape:label="white" /><path
                     style="fill:#6f604d;fill-opacity:1;stroke-width:0.765"
                     d="m 78.405002,35.597332 0.133427,0.283976 -1.891558,-0.05106 z"
                     id="path6090"
                     sodipodi:nodetypes="cccc"
                     inkscape:label="3" /><path
                     style="fill:#6f604d;fill-opacity:1;stroke-width:0.765"
                     d="m 78.690009,36.880417 -0.0015,0.276411 -1.936027,-0.05481 z"
                     id="path6092"
                     sodipodi:nodetypes="cccc"
                     inkscape:label="2" /><path
                     style="fill:#6f604d;fill-opacity:1;stroke-width:0.765"
                     d="m 78.542121,38.257967 -0.09066,0.263509 -1.953054,-0.05481 z"
                     id="path6094"
                     sodipodi:nodetypes="cccc"
                     inkscape:label="1" /></g><g
                   inkscape:groupmode="layer"
                   id="g6114"
                   inkscape:label="antebrazo_front"
                   inkscape:transform-center-x="-5.0304616"
                   style="display:none"
                   transform="translate(3.7786154e-6)"><path
                     style="fill:#f1e0c7;fill-opacity:1;stroke-width:1.25851;stroke-linecap:round;stroke-linejoin:round"
                     d="m 65.414141,40.829668 c 0,0 -3.516589,-0.01361 -3.535159,-3.206693 -0.0185,-3.193082 2.936269,-3.532832 2.936269,-3.532832 l 6.925759,0.0058 h 4.07343 c 0,0 2.90348,0.168098 2.87788,3.382268 -0.0256,3.214168 -3.38226,3.560276 -3.38226,3.560276 l -3.923158,-0.192039 z"
                     id="path6102"
                     sodipodi:nodetypes="czccczccc"
                     inkscape:label="antebrazo" /><path
                     style="fill:#e9e5df;fill-opacity:1;stroke-width:1.25851;stroke-linecap:round;stroke-linejoin:round"
                     d="m 72.3925,34.118996 c 0,0 -1.17838,1.102785 -1.25256,3.237352 -0.0742,2.134566 0.471415,3.495486 0.471415,3.495486 l 3.718375,0.204295 c 0,0 3.29278,-0.310663 3.36264,-3.525199 0.0699,-3.214536 -2.81377,-3.382266 -2.81377,-3.382266 z"
                     id="path6104"
                     sodipodi:nodetypes="czcczcc"
                     inkscape:label="white" /><path
                     style="fill:#ccc2b3;fill-opacity:1;stroke-width:1.33546;stroke-linecap:round;stroke-linejoin:round"
                     d="m 76.00306,34.814876 c -0.49288,-0.0056 -1.01913,0.541984 -1.03371,1.033691 -0.0143,0.491708 0.48846,1.097716 0.98915,1.11389 0.50069,0.01624 1.07063,-0.564374 1.0777,-1.066251 0.007,-0.501877 -0.54026,-1.075714 -1.03314,-1.08133 z"
                     id="path6106"
                     sodipodi:nodetypes="zzzzz"
                     inkscape:label="pad4" /><path
                     style="fill:#ccc2b3;fill-opacity:1;stroke-width:1.33546;stroke-linecap:round;stroke-linejoin:round"
                     d="m 77.2187,36.51573 c -0.49288,-0.0057 -1.01913,0.541984 -1.03371,1.033692 -0.0143,0.491708 0.48846,1.097715 0.98914,1.113888 0.5007,0.01624 1.07064,-0.564374 1.07771,-1.066251 0.007,-0.501875 -0.54028,-1.075712 -1.03314,-1.081329 z"
                     id="path6108"
                     sodipodi:nodetypes="zzzzz"
                     inkscape:label="pad3" /><path
                     style="fill:#ccc2b3;fill-opacity:1;stroke-width:1.33546;stroke-linecap:round;stroke-linejoin:round"
                     d="m 75.94997,38.114907 c -0.49287,-0.0057 -1.01912,0.541984 -1.0337,1.033692 -0.0143,0.491707 0.48846,1.097715 0.98914,1.11389 0.50069,0.01624 1.07063,-0.564375 1.07771,-1.066252 0.007,-0.501875 -0.54028,-1.075713 -1.03315,-1.08133 z"
                     id="path6110"
                     sodipodi:nodetypes="zzzzz"
                     inkscape:label="pad2" /><path
                     style="fill:#ccc2b3;fill-opacity:1;stroke-width:1.98199;stroke-linecap:round;stroke-linejoin:round"
                     d="m 74.04382,35.589426 c -0.6377,0.0097 -0.93579,0.312877 -1.07892,0.744033 -0.13933,0.419556 0.16107,0.52738 0.17618,1.09597 0.0158,0.568588 -0.46328,0.582236 -0.31031,1.051511 0.22184,0.680553 0.40927,0.956802 1.01599,0.969746 0.74328,0.01586 1.57047,-1.193318 1.581,-1.938162 0.007,-0.535609 -0.67124,-1.933884 -1.38394,-1.923098 z"
                     id="path6112"
                     sodipodi:nodetypes="sszsszs"
                     inkscape:label="pad1" /></g><g
                   inkscape:groupmode="layer"
                   id="g6128"
                   inkscape:label="antebrazo_up"
                   inkscape:transform-center-x="-4.5012282"
                   style="display:none"
                   transform="translate(3.7786154e-6)"><path
                     style="fill:#f0ddc2;fill-opacity:1;stroke-width:1.17061;stroke-linecap:round;stroke-linejoin:round"
                     d="m 64.065471,37.317944 c -0.02007,3.036479 2.577008,2.909564 2.577008,2.909564 h 5.226968 4.046905 c 0,0 2.90348,-0.145437 2.87788,-2.926324 -0.0256,-2.780884 -3.381314,-3.05821 -3.381314,-3.05821 0,0 -1.084301,0.112937 -3.675541,0.137338 -1.519452,-0.02423 -4.372535,-0.02654 -4.372535,-0.02654 0,0 -3.279306,-0.0723 -3.299371,2.964177 z"
                     id="path6120"
                     sodipodi:nodetypes="zczczccczz"
                     inkscape:transform-center-x="-4.492943"
                     inkscape:transform-center-y="0.084170763"
                     inkscape:label="antebrazo" /><path
                     style="fill:#e9e5df;fill-opacity:1;stroke-width:1.17061;stroke-linecap:round;stroke-linejoin:round"
                     d="m 72.491632,40.239926 c 0,0 -0.81692,-0.861079 -0.8911,-2.707897 -0.0742,-1.846818 0.168248,-3.156059 0.168248,-3.156059 l 3.660082,-0.138024 c 0,0 3.3021,0.2733 3.37196,3.054503 0.0699,2.781203 -2.82309,2.921807 -2.82309,2.921807 z"
                     id="path6122"
                     sodipodi:nodetypes="czcczcc"
                     inkscape:transform-center-x="-8.2573067"
                     inkscape:transform-center-y="0.098550608"
                     inkscape:label="white" /><path
                     style="fill:#ccc2b3;fill-opacity:1;stroke-width:1.33546;stroke-linecap:round;stroke-linejoin:round"
                     d="m 75.953354,34.323235 c -0.49287,-0.0057 -1.035656,0.194788 -1.0337,0.425971 0.002,0.231183 0.48846,0.490836 0.98914,0.507011 0.50069,0.01624 1.079782,-0.203467 1.07771,-0.459373 -0.0021,-0.255906 -0.54028,-0.467992 -1.03315,-0.473609 z"
                     id="path6124"
                     sodipodi:nodetypes="zzzzz"
                     inkscape:label="pad1" /><path
                     style="fill:#ccc2b3;fill-opacity:1;stroke-width:0.765"
                     d="m 72.808489,34.340593 c 0,0 0.298881,-0.191971 1.039291,-0.195962 0.74041,-0.004 1.077842,0.111126 1.077842,0.111126 0,0 -0.331387,0.607752 -1.091419,0.637708 -0.760032,0.02996 -1.025714,-0.552872 -1.025714,-0.552872 z"
                     id="path6126"
                     sodipodi:nodetypes="czczc"
                     inkscape:label="pad2" /></g><g
                   inkscape:groupmode="layer"
                   id="g6080"
                   inkscape:label="antebrazo_down"
                   inkscape:transform-center-x="-5.2140026"
                   style="display:inline"
                   transform="translate(3.7786154e-6)"><path
                     style="fill:#f0ddc2;fill-opacity:1;stroke-width:1.17061;stroke-linecap:round;stroke-linejoin:round"
                     d="m 64.065471,37.123651 c -0.02007,-3.036479 2.577008,-2.909564 2.577008,-2.909564 h 5.226968 4.046905 c 0,0 2.90348,0.145437 2.87788,2.926324 -0.0256,2.780884 -3.38226,3.080335 -3.38226,3.080335 0,0 -1.083355,-0.135062 -3.674595,-0.159463 -1.519452,0.02423 -4.372535,0.02654 -4.372535,0.02654 0,0 -3.279306,0.0723 -3.299371,-2.964177 z"
                     id="path6072"
                     sodipodi:nodetypes="zczczcccz"
                     inkscape:transform-center-x="-4.492943"
                     inkscape:transform-center-y="-0.084170815"
                     inkscape:label="antebrazo" /><path
                     style="fill:#e9e5df;fill-opacity:1;stroke-width:1.17061;stroke-linecap:round;stroke-linejoin:round"
                     d="m 72.491632,34.201669 c 0,0 -0.81692,0.861079 -0.8911,2.707897 -0.0742,1.846818 0.168248,3.156059 0.168248,3.156059 l 3.660082,0.138024 c 0,0 3.3021,-0.2733 3.37196,-3.054503 0.0699,-2.781203 -2.82309,-2.921807 -2.82309,-2.921807 z"
                     id="path6074"
                     sodipodi:nodetypes="czcczcc"
                     inkscape:transform-center-x="-8.2573067"
                     inkscape:transform-center-y="-0.09855066"
                     inkscape:label="white" /><path
                     style="fill:#6f604d;fill-opacity:1;stroke-width:0.922718;stroke-linecap:round;stroke-linejoin:round"
                     d="m 78.376032,38.640228 c 0,0 0.26806,-0.652112 0.2091,-1.186236 -0.0259,-0.234335 -0.12388,-0.638481 -0.37637,-0.897996 -0.31701,-0.325837 -0.70558,-0.513206 -0.70558,-0.513206 0,0 0.30081,0.389904 0.48162,0.638286 0.31289,0.429803 0.24544,0.622643 0.26424,0.857175 0.0611,0.761429 -0.25106,1.555703 -0.25106,1.555703 z"
                     id="path6076"
                     sodipodi:nodetypes="csscsscc"
                     inkscape:transform-center-x="-11.111459"
                     inkscape:transform-center-y="0.26716234"
                     inkscape:label="g2" /><path
                     style="fill:#6f604d;fill-opacity:1;stroke-width:0.922718;stroke-linecap:round;stroke-linejoin:round"
                     d="m 77.452398,39.541733 c 0,0 0.223801,-0.462196 0.196971,-0.913083 -0.0268,-0.450886 0.01673,-0.916253 -0.363503,-1.34959 -0.38023,-0.433337 -1.201981,-0.697758 -1.201981,-0.697758 0,0 0.545491,0.325206 0.856381,0.765103 0.31088,0.439898 0.193493,0.574601 0.210003,1.456535 0.0165,0.881935 -0.164667,0.986728 -0.164667,0.986728 z"
                     id="path6078"
                     sodipodi:nodetypes="czzczzcc"
                     inkscape:transform-center-x="-8.4802749"
                     inkscape:transform-center-y="0.91386634"
                     inkscape:label="g1" /></g></g></g></g><g
             inkscape:groupmode="layer"
             id="g2316"
             inkscape:label="right"
             transform="rotate(80.323116,56.398907,37.27243)"
             inkscape:transform-center-x="-5.8162959"
             inkscape:transform-center-y="31.868542"><g
               inkscape:groupmode="layer"
               id="g2314"
               inkscape:label="hombro"
               inkscape:transform-center-x="32.404787"><g
                 inkscape:groupmode="layer"
                 id="g2252"
                 inkscape:label="down"
                 inkscape:transform-center-x="-9.5726715"
                 style="display:inline"
                 transform="translate(3.7786154e-6)"><path
                   style="fill:#f0ddc2;fill-opacity:1;stroke-width:1.17061;stroke-linecap:round;stroke-linejoin:round"
                   d="m 54.071302,37.243178 c 0.03292,-3.062161 2.89653,-3.029091 2.89653,-3.029091 h 5.530266 4.046905 c 0,0 2.90348,0.145437 2.87788,2.926324 -0.0256,2.780884 -3.151566,2.957777 -3.151566,2.957777 0,0 -1.314049,-0.0125 -3.905289,-0.0369 -1.519452,0.02423 -4.672767,-0.0089 -4.672767,-0.0089 0,0 -3.654875,0.252996 -3.621959,-2.809165 z"
                   id="path2250"
                   sodipodi:nodetypes="zczczccczz"
                   inkscape:transform-center-x="-8.1451157"
                   inkscape:transform-center-y="-0.035390917"
                   inkscape:label="brazo" /></g><g
                 inkscape:groupmode="layer"
                 id="g2256"
                 inkscape:label="back"
                 inkscape:transform-center-x="-9.2960976"
                 style="display:none"
                 transform="translate(3.7786154e-6)"><path
                   style="fill:#f0ddc2;fill-opacity:1;stroke-width:1.26003;stroke-linecap:round;stroke-linejoin:round"
                   d="m 53.703111,37.253967 c 0.03292,-3.547832 2.89653,-3.509517 2.89653,-3.509517 h 5.530266 4.046905 c 0,0 2.90348,0.168504 2.87788,3.390451 -0.0256,3.221943 -3.151566,3.426892 -3.151566,3.426892 0,0 -1.314049,-0.01448 -3.905289,-0.04275 -1.519452,0.02807 -4.672767,-0.01031 -4.672767,-0.01031 0,0 -3.654875,0.293122 -3.621959,-3.25471 z"
                   id="path2254"
                   sodipodi:nodetypes="zczczccczz"
                   inkscape:transform-center-x="-8.1451157"
                   inkscape:transform-center-y="-0.041004089"
                   inkscape:label="brazo" /></g><g
                 inkscape:groupmode="layer"
                 id="g2260"
                 inkscape:label="front"
                 inkscape:transform-center-x="-9.4563365"
                 style="display:none"
                 transform="translate(3.7786154e-6)"><path
                   style="fill:#f0ddc2;fill-opacity:1;stroke-width:1.26003;stroke-linecap:round;stroke-linejoin:round"
                   d="m 53.703111,37.563538 c 0.03292,-3.547832 2.89653,-3.509517 2.89653,-3.509517 h 5.530266 4.046905 c 0,0 2.90348,0.168504 2.87788,3.390451 -0.0256,3.221943 -3.151566,3.426892 -3.151566,3.426892 0,0 -1.314049,-0.01448 -3.905289,-0.04275 -1.519452,0.02807 -4.672767,-0.01031 -4.672767,-0.01031 0,0 -3.654875,0.293122 -3.621959,-3.25471 z"
                   id="path2258"
                   sodipodi:nodetypes="zczczccczz"
                   inkscape:transform-center-x="-8.1451157"
                   inkscape:transform-center-y="-0.041004089"
                   inkscape:label="brazo" /></g><g
                 inkscape:groupmode="layer"
                 id="g2264"
                 inkscape:label="up"
                 inkscape:transform-center-x="-9.53493"
                 style="display:none"
                 transform="translate(3.7786154e-6)"><path
                   style="fill:#f0ddc2;fill-opacity:1;stroke-width:1.17061;stroke-linecap:round;stroke-linejoin:round"
                   d="m 54.071302,37.198417 c 0.03292,3.062161 2.89653,3.029091 2.89653,3.029091 h 5.530266 4.046905 c 0,0 2.90348,-0.145437 2.87788,-2.926324 -0.0256,-2.780884 -3.151566,-2.957777 -3.151566,-2.957777 0,0 -1.314049,0.0125 -3.905289,0.0369 -1.519452,-0.02423 -4.672767,0.0089 -4.672767,0.0089 0,0 -3.654875,-0.252996 -3.621959,2.809165 z"
                   id="path2262"
                   sodipodi:nodetypes="zczczccczz"
                   inkscape:transform-center-x="-8.1451157"
                   inkscape:transform-center-y="0.035390865"
                   inkscape:label="brazo" /></g><g
                 inkscape:groupmode="layer"
                 id="g2312"
                 inkscape:label="antebrazo"
                 inkscape:transform-center-x="15.279008"><g
                   inkscape:groupmode="layer"
                   id="g2276"
                   inkscape:label="antebrazo_back"
                   inkscape:transform-center-x="-4.7976782"
                   style="display:none"
                   transform="translate(3.7786154e-6)"><path
                     style="fill:#f1e0c7;fill-opacity:1;stroke-width:1.25851;stroke-linecap:round;stroke-linejoin:round"
                     d="m 65.414141,40.520097 c 0,0 -3.516589,-0.01361 -3.535159,-3.206693 -0.0185,-3.193082 2.936269,-3.532832 2.936269,-3.532832 l 6.925759,0.0058 h 4.07343 c 0,0 2.90348,0.168098 2.87788,3.382268 -0.0256,3.214168 -3.38226,3.560276 -3.38226,3.560276 l -3.923158,-0.192039 z"
                     id="path2266"
                     sodipodi:nodetypes="czccczccc"
                     inkscape:label="antebrazo" /><path
                     style="fill:#e9e5df;fill-opacity:1;stroke-width:1.25851;stroke-linecap:round;stroke-linejoin:round"
                     d="m 72.3925,33.809425 c 0,0 -1.17838,1.102785 -1.25256,3.237352 -0.0742,2.134566 0.471415,3.495486 0.471415,3.495486 l 3.718375,0.204295 c 0,0 3.29278,-0.310663 3.36264,-3.525199 0.0699,-3.214536 -2.81377,-3.382266 -2.81377,-3.382266 z"
                     id="path2268"
                     sodipodi:nodetypes="czcczcc"
                     inkscape:label="white" /><path
                     style="fill:#6f604d;fill-opacity:1;stroke-width:0.765"
                     d="m 78.405002,35.597332 0.133427,0.283976 -1.891558,-0.05106 z"
                     id="path2270"
                     sodipodi:nodetypes="cccc"
                     inkscape:label="3" /><path
                     style="fill:#6f604d;fill-opacity:1;stroke-width:0.765"
                     d="m 78.690009,36.880417 -0.0015,0.276411 -1.936027,-0.05481 z"
                     id="path2272"
                     sodipodi:nodetypes="cccc"
                     inkscape:label="2" /><path
                     style="fill:#6f604d;fill-opacity:1;stroke-width:0.765"
                     d="m 78.542121,38.257967 -0.09066,0.263509 -1.953054,-0.05481 z"
                     id="path2274"
                     sodipodi:nodetypes="cccc"
                     inkscape:label="1" /></g><g
                   inkscape:groupmode="layer"
                   id="g2290"
                   inkscape:label="antebrazo_front"
                   inkscape:transform-center-x="-5.0304616"
                   style="display:none"
                   transform="translate(3.7786154e-6)"><path
                     style="fill:#f1e0c7;fill-opacity:1;stroke-width:1.25851;stroke-linecap:round;stroke-linejoin:round"
                     d="m 65.414141,40.829668 c 0,0 -3.516589,-0.01361 -3.535159,-3.206693 -0.0185,-3.193082 2.936269,-3.532832 2.936269,-3.532832 l 6.925759,0.0058 h 4.07343 c 0,0 2.90348,0.168098 2.87788,3.382268 -0.0256,3.214168 -3.38226,3.560276 -3.38226,3.560276 l -3.923158,-0.192039 z"
                     id="path2278"
                     sodipodi:nodetypes="czccczccc"
                     inkscape:label="antebrazo" /><path
                     style="fill:#e9e5df;fill-opacity:1;stroke-width:1.25851;stroke-linecap:round;stroke-linejoin:round"
                     d="m 72.3925,34.118996 c 0,0 -1.17838,1.102785 -1.25256,3.237352 -0.0742,2.134566 0.471415,3.495486 0.471415,3.495486 l 3.718375,0.204295 c 0,0 3.29278,-0.310663 3.36264,-3.525199 0.0699,-3.214536 -2.81377,-3.382266 -2.81377,-3.382266 z"
                     id="path2280"
                     sodipodi:nodetypes="czcczcc"
                     inkscape:label="white" /><path
                     style="fill:#ccc2b3;fill-opacity:1;stroke-width:1.33546;stroke-linecap:round;stroke-linejoin:round"
                     d="m 76.00306,34.814876 c -0.49288,-0.0056 -1.01913,0.541984 -1.03371,1.033691 -0.0143,0.491708 0.48846,1.097716 0.98915,1.11389 0.50069,0.01624 1.07063,-0.564374 1.0777,-1.066251 0.007,-0.501877 -0.54026,-1.075714 -1.03314,-1.08133 z"
                     id="path2282"
                     sodipodi:nodetypes="zzzzz"
                     inkscape:label="pad4" /><path
                     style="fill:#ccc2b3;fill-opacity:1;stroke-width:1.33546;stroke-linecap:round;stroke-linejoin:round"
                     d="m 77.2187,36.51573 c -0.49288,-0.0057 -1.01913,0.541984 -1.03371,1.033692 -0.0143,0.491708 0.48846,1.097715 0.98914,1.113888 0.5007,0.01624 1.07064,-0.564374 1.07771,-1.066251 0.007,-0.501875 -0.54028,-1.075712 -1.03314,-1.081329 z"
                     id="path2284"
                     sodipodi:nodetypes="zzzzz"
                     inkscape:label="pad3" /><path
                     style="fill:#ccc2b3;fill-opacity:1;stroke-width:1.33546;stroke-linecap:round;stroke-linejoin:round"
                     d="m 75.94997,38.114907 c -0.49287,-0.0057 -1.01912,0.541984 -1.0337,1.033692 -0.0143,0.491707 0.48846,1.097715 0.98914,1.11389 0.50069,0.01624 1.07063,-0.564375 1.07771,-1.066252 0.007,-0.501875 -0.54028,-1.075713 -1.03315,-1.08133 z"
                     id="path2286"
                     sodipodi:nodetypes="zzzzz"
                     inkscape:label="pad2" /><path
                     style="fill:#ccc2b3;fill-opacity:1;stroke-width:1.98199;stroke-linecap:round;stroke-linejoin:round"
                     d="m 74.04382,35.589426 c -0.6377,0.0097 -0.93579,0.312877 -1.07892,0.744033 -0.13933,0.419556 0.16107,0.52738 0.17618,1.09597 0.0158,0.568588 -0.46328,0.582236 -0.31031,1.051511 0.22184,0.680553 0.40927,0.956802 1.01599,0.969746 0.74328,0.01586 1.57047,-1.193318 1.581,-1.938162 0.007,-0.535609 -0.67124,-1.933884 -1.38394,-1.923098 z"
                     id="path2288"
                     sodipodi:nodetypes="sszsszs"
                     inkscape:label="pad1" /></g><g
                   inkscape:groupmode="layer"
                   id="g2300"
                   inkscape:label="antebrazo_up"
                   inkscape:transform-center-x="-4.5012282"
                   style="display:none"
                   transform="translate(3.7786154e-6)"><path
                     style="fill:#f0ddc2;fill-opacity:1;stroke-width:1.17061;stroke-linecap:round;stroke-linejoin:round"
                     d="m 64.065471,37.317944 c -0.02007,3.036479 2.577008,2.909564 2.577008,2.909564 h 5.226968 4.046905 c 0,0 2.90348,-0.145437 2.87788,-2.926324 -0.0256,-2.780884 -3.381314,-3.05821 -3.381314,-3.05821 0,0 -1.084301,0.112937 -3.675541,0.137338 -1.519452,-0.02423 -4.372535,-0.02654 -4.372535,-0.02654 0,0 -3.279306,-0.0723 -3.299371,2.964177 z"
                     id="path2292"
                     sodipodi:nodetypes="zczczccczz"
                     inkscape:transform-center-x="-4.492943"
                     inkscape:transform-center-y="0.084170763"
                     inkscape:label="antebrazo" /><path
                     style="fill:#e9e5df;fill-opacity:1;stroke-width:1.17061;stroke-linecap:round;stroke-linejoin:round"
                     d="m 72.491632,40.239926 c 0,0 -0.81692,-0.861079 -0.8911,-2.707897 -0.0742,-1.846818 0.168248,-3.156059 0.168248,-3.156059 l 3.660082,-0.138024 c 0,0 3.3021,0.2733 3.37196,3.054503 0.0699,2.781203 -2.82309,2.921807 -2.82309,2.921807 z"
                     id="path2294"
                     sodipodi:nodetypes="czcczcc"
                     inkscape:transform-center-x="-8.2573067"
                     inkscape:transform-center-y="0.098550608"
                     inkscape:label="white" /><path
                     style="fill:#ccc2b3;fill-opacity:1;stroke-width:1.33546;stroke-linecap:round;stroke-linejoin:round"
                     d="m 75.953354,34.323235 c -0.49287,-0.0057 -1.035656,0.194788 -1.0337,0.425971 0.002,0.231183 0.48846,0.490836 0.98914,0.507011 0.50069,0.01624 1.079782,-0.203467 1.07771,-0.459373 -0.0021,-0.255906 -0.54028,-0.467992 -1.03315,-0.473609 z"
                     id="path2296"
                     sodipodi:nodetypes="zzzzz"
                     inkscape:label="pad1" /><path
                     style="fill:#ccc2b3;fill-opacity:1;stroke-width:0.765"
                     d="m 72.808489,34.340593 c 0,0 0.298881,-0.191971 1.039291,-0.195962 0.74041,-0.004 1.077842,0.111126 1.077842,0.111126 0,0 -0.331387,0.607752 -1.091419,0.637708 -0.760032,0.02996 -1.025714,-0.552872 -1.025714,-0.552872 z"
                     id="path2298"
                     sodipodi:nodetypes="czczc"
                     inkscape:label="pad2" /></g><g
                   inkscape:groupmode="layer"
                   id="g2310"
                   inkscape:label="antebrazo_down"
                   inkscape:transform-center-x="-5.2140026"
                   style="display:inline"
                   transform="translate(3.7786154e-6)"><path
                     style="fill:#f0ddc2;fill-opacity:1;stroke-width:1.17061;stroke-linecap:round;stroke-linejoin:round"
                     d="m 64.065471,37.123651 c -0.02007,-3.036479 2.577008,-2.909564 2.577008,-2.909564 h 5.226968 4.046905 c 0,0 2.90348,0.145437 2.87788,2.926324 -0.0256,2.780884 -3.38226,3.080335 -3.38226,3.080335 0,0 -1.083355,-0.135062 -3.674595,-0.159463 -1.519452,0.02423 -4.372535,0.02654 -4.372535,0.02654 0,0 -3.279306,0.0723 -3.299371,-2.964177 z"
                     id="path2302"
                     sodipodi:nodetypes="zczczcccz"
                     inkscape:transform-center-x="-4.492943"
                     inkscape:transform-center-y="-0.084170815"
                     inkscape:label="antebrazo" /><path
                     style="fill:#e9e5df;fill-opacity:1;stroke-width:1.17061;stroke-linecap:round;stroke-linejoin:round"
                     d="m 72.491632,34.201669 c 0,0 -0.81692,0.861079 -0.8911,2.707897 -0.0742,1.846818 0.168248,3.156059 0.168248,3.156059 l 3.660082,0.138024 c 0,0 3.3021,-0.2733 3.37196,-3.054503 0.0699,-2.781203 -2.82309,-2.921807 -2.82309,-2.921807 z"
                     id="path2304"
                     sodipodi:nodetypes="czcczcc"
                     inkscape:transform-center-x="-8.2573067"
                     inkscape:transform-center-y="-0.09855066"
                     inkscape:label="white" /><path
                     style="fill:#6f604d;fill-opacity:1;stroke-width:0.922718;stroke-linecap:round;stroke-linejoin:round"
                     d="m 78.376032,38.640228 c 0,0 0.26806,-0.652112 0.2091,-1.186236 -0.0259,-0.234335 -0.12388,-0.638481 -0.37637,-0.897996 -0.31701,-0.325837 -0.70558,-0.513206 -0.70558,-0.513206 0,0 0.30081,0.389904 0.48162,0.638286 0.31289,0.429803 0.24544,0.622643 0.26424,0.857175 0.0611,0.761429 -0.25106,1.555703 -0.25106,1.555703 z"
                     id="path2306"
                     sodipodi:nodetypes="csscsscc"
                     inkscape:transform-center-x="-11.111459"
                     inkscape:transform-center-y="0.26716234"
                     inkscape:label="g2" /><path
                     style="fill:#6f604d;fill-opacity:1;stroke-width:0.922718;stroke-linecap:round;stroke-linejoin:round"
                     d="m 77.452398,39.541733 c 0,0 0.223801,-0.462196 0.196971,-0.913083 -0.0268,-0.450886 0.01673,-0.916253 -0.363503,-1.34959 -0.38023,-0.433337 -1.201981,-0.697758 -1.201981,-0.697758 0,0 0.545491,0.325206 0.856381,0.765103 0.31088,0.439898 0.193493,0.574601 0.210003,1.456535 0.0165,0.881935 -0.164667,0.986728 -0.164667,0.986728 z"
                     id="path2308"
                     sodipodi:nodetypes="czzczzcc"
                     inkscape:transform-center-x="-8.4802749"
                     inkscape:transform-center-y="0.91386634"
                     inkscape:label="g1" /></g></g></g></g></g><g
           inkscape:groupmode="layer"
           id="layer14"
           inkscape:label="piernas"><g
             inkscape:groupmode="layer"
             id="layer15"
             inkscape:label="left "
             inkscape:transform-center-x="6.1381687"
             inkscape:transform-center-y="31.352617"
             transform="rotate(-1.5461917,28.344433,54.139539)"><path
               style="fill:#f1e0c7;fill-opacity:1;stroke-width:1.35384;stroke-linecap:round;stroke-linejoin:round"
               d="m 31.882908,53.0114 c 0,0 -1.309908,-3.103297 -4.150268,-3.111633 -2.84035,-0.0083 -3.36074,2.900676 -3.36074,2.900676 l -0.0771,8.738592 1.388231,8.844969 c 0,0 0.0618,2.172796 2.4483,2.18452 2.38655,0.01172 2.644655,-1.276312 2.644655,-1.276312 l 0.13751,-8.830528 z"
               id="path149"
               sodipodi:nodetypes="czccczccc" /><path
               style="fill:#f1e0c7;fill-opacity:1;stroke-width:0.963616;stroke-linecap:round;stroke-linejoin:round"
               d="m 30.706906,70.659904 c 0,0 -0.9785,-0.187801 -2.72761,-0.353499 -1.7491,-0.165698 -2.35912,-0.321153 -2.35912,-0.321153 l -0.0146,1.143456 c 0,0 -2.65816,0.978615 -3.14787,1.779587 -0.48971,0.800966 -0.70576,1.684793 -0.20882,2.441602 0.49693,0.756815 1.60968,0.957681 2.93956,1.011976 1.32986,0.05429 3.35241,0.145836 4.2728,-0.289137 0.92039,-0.434962 0.84079,-0.540762 1.15655,-1.268988 0.19894,-0.4588 0.2161,-2.966014 0.10795,-3.772488 z"
               id="path151"
               sodipodi:nodetypes="czcczzzzzcc" /><path
               style="fill:#6f604d;fill-opacity:1;stroke-width:0.683366;stroke-linecap:round;stroke-linejoin:round"
               d="m 22.976526,75.96218 c 0,0 -0.44145,-0.459496 -0.49255,-0.975281 -0.0511,-0.515785 0.0278,-0.885238 0.20505,-1.173342 0.17723,-0.288102 0.49489,-0.501228 0.49489,-0.501228 0,0 -0.18142,0.277184 -0.31262,0.558186 -0.13121,0.281 -0.24708,0.583626 -0.17088,1.10499 0.0762,0.521364 0.65534,1.127294 0.65534,1.127294 z"
               id="path152"
               sodipodi:nodetypes="czzczzcc" /><path
               style="fill:#6f604d;fill-opacity:1;stroke-width:0.683366;stroke-linecap:round;stroke-linejoin:round"
               d="m 24.851996,76.346154 c 0,0 -0.38368,-0.537373 -0.4348,-1.053158 -0.0511,-0.515785 0.0278,-0.885238 0.20504,-1.173341 0.17724,-0.288104 0.49491,-0.501229 0.49491,-0.501229 0,0 -0.18143,0.277185 -0.31263,0.558185 -0.13121,0.281001 -0.15595,0.59502 -0.0797,1.116385 0.0762,0.521365 0.58727,1.074074 0.58727,1.074074 l -0.23045,-0.0094 z"
               id="path153"
               sodipodi:nodetypes="czzczzccc" /></g><g
             inkscape:groupmode="layer"
             id="layer16"
             inkscape:label="right "
             inkscape:transform-center-x="-3.0452635"
             inkscape:transform-center-y="30.859499"
             transform="rotate(4.6170283,36.711026,53.972757)"><path
               style="fill:#f1e0c7;fill-opacity:1;stroke-width:1.35384;stroke-linecap:round;stroke-linejoin:round"
               d="m 32.665078,52.651514 c 0,0 1.326352,-3.191684 4.166712,-3.20002 2.84035,-0.0083 3.268965,2.860658 3.268965,2.860658 l 0.168875,8.77915 -0.0837,9.045961 c 0,0 0.50195,2.723636 -2.09844,2.913401 -2.60039,0.189764 -3.05932,-1.798938 -3.05932,-1.798938 l -1.419124,-9.506885 z"
               id="path132"
               sodipodi:nodetypes="czccczccc" /><path
               style="fill:#f1e0c7;fill-opacity:1;stroke-width:1.00353;stroke-linecap:round;stroke-linejoin:round"
               d="m 35.00945,70.581433 c 0,0 1.01902,-0.195579 2.84058,-0.368141 1.82155,-0.17256 2.31875,-0.356097 2.31875,-0.356097 l 0.0729,1.290238 c 0,0 2.84872,0.941369 3.35872,1.775515 0.50999,0.834142 0.73499,1.754575 0.21747,2.54273 -0.51751,0.788161 -1.67635,0.997347 -3.06131,1.05389 -1.38495,0.05653 -3.49127,0.151876 -4.44978,-0.301112 -0.95851,-0.452978 -0.87561,-0.56316 -1.20445,-1.321548 -0.20718,-0.477803 -0.11395,-1.866651 -0.0995,-2.747133 z"
               id="path135"
               sodipodi:nodetypes="czcczzzzzcc" /><path
               style="fill:#6f604d;fill-opacity:1;stroke-width:0.683366;stroke-linecap:round;stroke-linejoin:round"
               d="m 43.12858,76.069556 c 0,0 0.23219,-0.540331 0.28329,-1.056116 0.0511,-0.515785 -0.0278,-0.885238 -0.20505,-1.173342 -0.17723,-0.288102 -0.49489,-0.501228 -0.49489,-0.501228 0,0 0.18142,0.277184 0.31262,0.558186 0.13121,0.281 0.24708,0.583626 0.17088,1.10499 -0.0762,0.521364 -0.49909,1.242527 -0.49909,1.242527 z"
               id="path136"
               sodipodi:nodetypes="czzczzcc" /><path
               style="fill:#6f604d;fill-opacity:1;stroke-width:0.683366;stroke-linecap:round;stroke-linejoin:round"
               d="m 41.15296,76.500475 c 0,0 0.27457,-0.665153 0.32569,-1.180938 0.0511,-0.515785 -0.0278,-0.885238 -0.20504,-1.173341 -0.17724,-0.288104 -0.49491,-0.501229 -0.49491,-0.501229 0,0 0.18143,0.277185 0.31263,0.558185 0.13121,0.281001 0.15595,0.59502 0.0797,1.116385 -0.0762,0.521365 -0.45043,1.202593 -0.45043,1.202593 z"
               id="path137"
               sodipodi:nodetypes="czzczzcc" /></g></g><path
           style="fill:#f1e0c7;fill-opacity:1;stroke-width:1.45594;stroke-linecap:round;stroke-linejoin:round"
           d="m 31.90568,33.593756 c -1.21986,0.0021 -3.947203,-0.261175 -5.519553,0.938945 -1.57234,1.200124 -1.106002,3.24172 -1.64367,7.145541 -0.332348,2.413066 -0.490797,6.136213 -0.435357,9.364042 0.0338,1.971086 0.128656,2.689946 0.920216,3.852683 2.08782,3.066825 4.260654,2.763881 6.982374,2.610995 2.72172,-0.152888 5.496342,-0.155077 7.397612,-3.374983 0.70033,-1.186058 0.435396,-2.11697 0.415066,-3.889989 -0.0349,-3.040363 -0.184638,-6.620386 -0.623815,-8.983347 -0.687003,-3.696373 -0.520604,-5.82013 -2.205854,-6.993814 -1.68526,-1.173686 -4.067169,-0.672223 -5.287019,-0.670073 z"
           id="path121"
           sodipodi:nodetypes="zzssszssszz"
           inkscape:label="tronco" /><path
           style="fill:#eedcbe;fill-opacity:1;stroke-width:1.20032;stroke-linecap:round;stroke-linejoin:round"
           d="m 32.03828,35.003278 c -0.88968,0.002 -2.43872,0.376378 -3.5855,1.494762 -1.14676,1.118402 -1.169662,2.156462 -1.765992,5.732321 -0.37025,2.220125 -0.11238,3.334348 -0.072,6.342374 0.0247,1.836857 -0.069,2.039098 0.67042,3.09243 1.86052,2.650517 2.946552,3.515206 4.931602,3.372729 1.98505,-0.142472 4.591549,-1.153483 5.532999,-4.322132 0.3284,-1.10529 0.29901,-1.19894 0.28418,-2.851222 -0.0254,-2.833324 0.24223,-3.78622 -0.21079,-5.949895 -0.71717,-3.425444 -0.871829,-4.753502 -2.100949,-5.847264 -1.22913,-1.093761 -2.79434,-1.066106 -3.68403,-1.064103 z"
           id="path122"
           sodipodi:nodetypes="zzssszssszzz"
           inkscape:label="dark" /><g
           inkscape:groupmode="layer"
           id="layer18"
           inkscape:label="Accesorios"
           transform="translate(0,-0.24662577)"
           style="display:inline"><g
             inkscape:groupmode="layer"
             id="layer19"
             inkscape:label="nappies"><g
               inkscape:groupmode="layer"
               id="layer2"
               inkscape:label="pink_napp"
               style="display:none"
               transform="translate(-106.54805,-54.751545)"><path
                 style="fill:#df92ba;stroke-width:0.992;stroke-linecap:round;stroke-linejoin:round"
                 d="m 145.47391,102.45499 c 0,0 -4.56337,0.31809 -6.75549,0.29371 -2.19212,-0.0244 -6.37786,-0.41959 -6.37786,-0.41959 l 0.29372,6.08414 c 0,0 1.51889,3.05745 2.1819,4.07008 0.66301,1.01263 0.47221,1.53579 1.63641,2.077 1.1642,0.54121 3.8973,0.41211 5.05614,-0.16784 1.15884,-0.57995 1.0711,-1.03826 1.69937,-2.11896 0.62827,-1.0807 1.7623,-4.44771 1.7623,-4.44771 z"
                 id="path23"
                 sodipodi:nodetypes="czcczzzzcc" /><path
                 style="fill:#ecbbd5;fill-opacity:1;stroke-width:0.992;stroke-linecap:round;stroke-linejoin:round"
                 d="m 132.69127,103.11882 c 0,0 4.26316,0.40677 6.44675,0.38106 2.18359,-0.0257 5.95826,-0.17611 5.95826,-0.17611 l 0.33567,-0.85844 c 0,0 -4.05942,0.27147 -6.22858,0.24815 -2.16916,-0.0233 -6.75791,-0.41599 -6.75791,-0.41599 z"
                 id="path143"
                 sodipodi:nodetypes="cccczcc" /><path
                 style="fill:#d469a1;fill-opacity:1;stroke-width:0.992;stroke-linecap:round;stroke-linejoin:round"
                 d="m 132.96183,102.47646 -0.31154,-0.48955 -2.12174,-0.12906 -0.0162,5.40485 2.70072,2.09655 c 0,0 0.32634,0.12766 0.47331,0.01 0.14697,-0.11766 0.13001,-0.64318 0.13001,-0.64318 z"
                 id="path25"
                 sodipodi:nodetypes="ccccczcc" /><path
                 style="fill:#d469a1;fill-opacity:1;stroke-width:0.992;stroke-linecap:round;stroke-linejoin:round"
                 d="m 144.73087,102.47646 0.31154,-0.48955 1.95852,-0.0965 -0.0205,5.499 -2.50079,1.96985 c 0,0 -0.32634,0.12766 -0.47331,0.01 -0.14697,-0.11766 -0.13001,-0.64318 -0.13001,-0.64318 z"
                 id="path142"
                 sodipodi:nodetypes="ccccczcc" /><path
                 style="fill:#e7abca;fill-opacity:1;stroke-width:0.992;stroke-linecap:round;stroke-linejoin:round"
                 d="m 132.47105,107.59787 1.24314,-0.0344 -0.0262,-0.97911 -1.20214,-0.32164 z"
                 id="path146"
                 sodipodi:nodetypes="ccccc" /><path
                 style="fill:#eec3d9;fill-opacity:1;stroke-width:0.992;stroke-linecap:round;stroke-linejoin:round"
                 d="m 133.67196,106.57974 1.18006,0.24678 -0.0465,0.77097 -1.12777,-0.0342 z"
                 id="path147"
                 sodipodi:nodetypes="ccccc" /><path
                 style="fill:#e7abca;fill-opacity:1;stroke-width:0.992;stroke-linecap:round;stroke-linejoin:round"
                 d="m 132.54643,105.57163 1.32607,-0.0554 -0.44932,-0.93235 -0.91437,-0.16909 z"
                 id="path154"
                 sodipodi:nodetypes="ccccc" /><path
                 style="fill:#eec3d9;fill-opacity:1;stroke-width:0.992;stroke-linecap:round;stroke-linejoin:round"
                 d="m 133.40436,104.5774 1.25882,0.24867 -0.0465,0.77097 -1.05761,-0.06 z"
                 id="path155"
                 sodipodi:nodetypes="ccccc" /><path
                 style="fill:#e7abca;fill-opacity:1;stroke-width:0.992;stroke-linecap:round;stroke-linejoin:round"
                 d="m 145.11851,107.59787 -1.24314,-0.0344 0.0262,-0.97911 1.20214,-0.32164 z"
                 id="path156"
                 sodipodi:nodetypes="ccccc" /><path
                 style="fill:#eec3d9;fill-opacity:1;stroke-width:0.992;stroke-linecap:round;stroke-linejoin:round"
                 d="m 143.9176,106.57974 -1.18006,0.24678 0.0465,0.77097 1.12777,-0.0342 z"
                 id="path157"
                 sodipodi:nodetypes="ccccc" /><path
                 style="fill:#e7abca;fill-opacity:1;stroke-width:0.992;stroke-linecap:round;stroke-linejoin:round"
                 d="m 145.04313,105.57163 -1.32607,-0.0554 0.44932,-0.93235 0.91437,-0.16909 z"
                 id="path158"
                 sodipodi:nodetypes="ccccc" /><path
                 style="fill:#eec3d9;fill-opacity:1;stroke-width:0.992;stroke-linecap:round;stroke-linejoin:round"
                 d="m 144.1852,104.5774 -1.25882,0.24867 0.0465,0.77097 1.05761,-0.06 z"
                 id="path159"
                 sodipodi:nodetypes="ccccc" /><path
                 style="fill:#f0c8dc;fill-opacity:1;stroke-width:0.992;stroke-linecap:round;stroke-linejoin:round"
                 d="m 139.51396,102.71849 -3.3e-4,0.78 0.97776,-0.025 0.006,-0.77325 z"
                 id="path160"
                 sodipodi:nodetypes="ccccc" /><path
                 style="fill:#f0c8dc;fill-opacity:1;stroke-width:0.992;stroke-linecap:round;stroke-linejoin:round"
                 d="m 141.35597,102.67514 0.002,0.77587 0.99843,-0.0312 0.008,-0.78566 z"
                 id="path161"
                 sodipodi:nodetypes="ccccc" /><path
                 style="fill:#f0c8dc;fill-opacity:1;stroke-width:0.992;stroke-linecap:round;stroke-linejoin:round"
                 d="m 143.14191,102.60073 0.0103,0.79241 1.02737,-0.0395 -0.004,-0.81047 z"
                 id="path162"
                 sodipodi:nodetypes="ccccc" /><path
                 style="fill:#f0c8dc;fill-opacity:1;stroke-width:0.992;stroke-linecap:round;stroke-linejoin:round"
                 d="m 138.68915,102.71849 3.3e-4,0.78 -0.97776,-0.025 -0.006,-0.77325 z"
                 id="path163"
                 sodipodi:nodetypes="ccccc" /><path
                 style="fill:#f0c8dc;fill-opacity:1;stroke-width:0.992;stroke-linecap:round;stroke-linejoin:round"
                 d="m 136.84301,102.61409 -0.006,0.80798 -1.0016,-0.0502 -0.002,-0.81781 z"
                 id="path164"
                 sodipodi:nodetypes="ccccc" /><path
                 style="fill:#f0c8dc;fill-opacity:1;stroke-width:0.992;stroke-linecap:round;stroke-linejoin:round"
                 d="m 135.06327,102.49944 -0.008,0.81722 -1.02943,-0.085 -0.006,-0.8022 z"
                 id="path165"
                 sodipodi:nodetypes="ccccc" /></g></g><g
             inkscape:groupmode="layer"
             id="layer5"
             inkscape:label="Ropa"><g
               inkscape:groupmode="layer"
               id="layer6"
               inkscape:label="Coso"><path
                 style="fill:#cab6b6;fill-opacity:1;stroke-width:0.108248;stroke-linecap:round"
                 d="m 24.731099,41.289094 c 0,0 0.898233,0.258638 1.288406,0.238155 0.390173,-0.02048 0.538497,-0.01873 0.796327,-0.350628 0.25783,-0.331903 0.191504,-0.977861 0.251397,-1.429352 0.05992,-0.451491 0.12515,-1.218817 0.335439,-1.436703 0.210289,-0.217886 1.473555,-0.474356 2.290614,-0.628289 0.817059,-0.153933 1.653588,-0.30291 2.543286,-0.283115 0.889698,0.01979 2.050769,0.222622 2.795806,0.365691 0.745036,0.143069 1.388497,0.114644 1.695146,0.448319 0.306649,0.333675 0.319802,2.633415 0.553868,2.977669 0.234066,0.344254 0.449559,0.343692 0.821644,0.386847 0.372085,0.04316 0.627134,-0.01742 0.851222,-0.08437 0.224088,-0.06694 0.519177,-0.205351 0.519177,-0.205351 0,0 -0.03901,0.144247 -0.03749,0.143338 0,0 -0.192877,0.369339 -0.478396,0.527433 -0.285519,0.158094 -0.851024,0.273764 -1.226597,0.219729 -0.375573,-0.05403 -0.593642,-0.01745 -0.922004,-0.460303 -0.328362,-0.442855 -0.241446,-1.773793 -0.381424,-2.245168 -0.139978,-0.471375 0.17037,-0.245429 -0.267667,-0.617461 -0.438037,-0.372032 -1.762441,-0.576654 -2.691392,-0.677037 -0.928951,-0.100383 -1.873479,-0.03004 -2.829539,0.08819 -0.95606,0.118234 -2.405308,0.144558 -2.881288,0.628985 -0.47598,0.484427 -0.167177,0.668919 -0.220701,1.103831 -0.05352,0.434912 0.116842,1.195537 -0.07149,1.501783 -0.188332,0.306246 -0.279752,0.236844 -0.568649,0.322316 -0.288897,0.08547 -0.783994,0.110189 -1.151958,0.06879 -0.367964,-0.0414 -1.024285,-0.302461 -1.025016,-0.298881 L 24.7311,41.28909 c 0,0 -5.45e-4,0.0018 -1e-6,4e-6 z"
                 id="path2749"
                 sodipodi:nodetypes="szzzzzzzzzzzcczzzzzzzzzzzzccs" /><path
                 style="fill:#d6c8c8;fill-opacity:1;stroke-width:0.108248;stroke-linecap:round"
                 d="m 24.729606,41.348129 c 0,0 -0.959199,2.794913 -1.070751,7.675946 -0.05289,2.314348 -0.0237,7.648121 0.500994,12.338861 0.581898,5.202178 1.668416,9.674422 1.668416,9.674422 0,0 1.506746,0.337758 2.543056,0.345815 1.03631,0.0081 3.013215,-0.303275 3.013215,-0.303275 0,0 -0.201606,-4.830266 -0.07589,-7.68117 0.12572,-2.850904 0.520843,-4.56745 0.520843,-4.56745 0,0 0.240402,-0.583722 0.50564,-0.593192 0.265238,-0.0095 0.570176,0.579527 0.570176,0.579527 l 0.10477,5.005522 0.396576,7.271923 c 0,0 1.416878,0.446698 2.916366,0.475091 1.499487,0.02839 2.744563,-1.052895 2.744563,-1.052895 0,0 0.373998,-2.85789 0.764985,-6.548909 0.265047,-2.502107 1.107366,-12.282377 0.868851,-15.08461 -0.405176,-4.760272 -1.252648,-7.490822 -1.252648,-7.490822 0,0 -0.05541,0.151546 -0.875875,0.308705 -0.472241,0.09046 -0.820753,0.04054 -1.525981,-0.331373 -0.09226,-0.520148 -0.249853,-1.168815 -0.43116,-2.814503 -1.165557,-0.219626 -2.962014,-0.787599 -4.432849,-0.746221 -1.540447,0.04334 -4.006841,0.425129 -4.736737,0.884223 -0.400513,1.365426 -0.217663,2.302679 -0.332345,2.635989 -0.673386,0.460118 -1.336768,0.276311 -1.654266,0.212398 -0.317498,-0.06391 -0.425987,-0.114283 -0.729952,-0.194002 z"
                 id="path825"
                 sodipodi:nodetypes="cssczczczccczcsscsccscczcc" /><path
                 style="fill:#b09494;fill-opacity:1;stroke-width:0.108248;stroke-linecap:round"
                 d="M 35.61051,40.005108 C 35.102368,39.87397 35.030636,39.291672 35.030636,39.291672 l 0.811272,-5.435891 1.323415,0.50616 -0.838556,5.168994 c 0,0 -0.208115,0.605311 -0.716257,0.474173 z"
                 id="path1748"
                 sodipodi:nodetypes="zccccz" /><path
                 style="fill:#bba4a4;fill-opacity:1;stroke-width:0.108248;stroke-linecap:round"
                 d="m 35.674336,38.853886 c -0.24078,0.005 -0.495018,0.26223 -0.487453,0.509497 0.0076,0.247267 0.327458,0.54346 0.572057,0.529021 0.244599,-0.01444 0.460286,-0.287378 0.448582,-0.525565 -0.0117,-0.238187 -0.292406,-0.517943 -0.533186,-0.512953 z"
                 id="path1690"
                 sodipodi:nodetypes="zzzzz" /><path
                 style="fill:#b09494;fill-opacity:1;stroke-width:0.108248;stroke-linecap:round"
                 d="m 28.453545,40.005108 c 0.508142,-0.131138 0.579874,-0.713436 0.579874,-0.713436 l -1.436635,-5.210712 -1.144795,0.533389 1.285299,4.916586 c 0,0 0.208115,0.605311 0.716257,0.474173 z"
                 id="path1750"
                 sodipodi:nodetypes="zccccz" /><path
                 style="fill:#bba4a4;fill-opacity:1;stroke-width:0.108248;stroke-linecap:round"
                 d="m 28.352248,38.811987 c -0.24078,0.005 -0.495018,0.26223 -0.487453,0.509497 0.0076,0.247267 0.327458,0.54346 0.572057,0.529021 0.244599,-0.01444 0.460286,-0.287378 0.448582,-0.525565 -0.0117,-0.238187 -0.292406,-0.517943 -0.533186,-0.512953 z"
                 id="path1692"
                 sodipodi:nodetypes="zzzzz" /><path
                 style="fill:#cab6b6;fill-opacity:1;stroke-width:0.108248;stroke-linecap:round"
                 d="m 26.522736,46.855575 5.482497,0.325186 5.732294,-0.542715 0.08873,0.41469 c 0,0 0.09485,6.223097 -5.620919,6.335168 -5.715769,0.112071 -5.669255,-6.303975 -5.677586,-6.313625 l -0.005,-0.218704 z"
                 id="path1971"
                 sodipodi:nodetypes="cccczccc" /><path
                 style="fill:#b09494;fill-opacity:1;stroke-width:0.108248;stroke-linecap:round"
                 d="m 26.519257,45.959469 c 0,0 2.928017,0.463615 5.52748,0.469007 2.599463,0.0054 5.777273,-0.48735 5.777273,-0.48735 l 8.16e-4,1.094744 c 0,0 -3.361852,0.405594 -5.744264,0.463748 -2.382412,0.05815 -5.565082,-0.431706 -5.565082,-0.431706 z"
                 id="path1969"
                 sodipodi:nodetypes="czcczcc" /><path
                 style="fill:#cab6b6;fill-opacity:1;stroke-width:0.108248;stroke-linecap:round"
                 d="m 33.28667,70.075422 c 0,0 1.615153,0.673253 2.966101,0.530184 1.350948,-0.143069 2.974739,-1.016992 2.974739,-1.016992 l -0.101044,0.882173 c 0,0 -0.955675,0.980539 -2.704698,1.110642 C 34.672746,71.711531 33.3622,71.075926 33.3622,71.075926 Z"
                 id="path2244"
                 sodipodi:nodetypes="czcczcc" /><path
                 style="fill:#cab6b6;fill-opacity:1;stroke-width:0.108248;stroke-linecap:round"
                 d="m 31.386318,69.834779 c 0,0 -1.541984,0.526236 -2.888569,0.536411 -1.346585,0.01018 -3.029843,-0.598753 -3.029843,-0.598753 l 0.272278,1.241451 c 0,0 0.918849,0.301681 2.720399,0.371392 1.80155,0.06971 3.045725,-0.320864 3.045725,-0.320864 z"
                 id="path2246"
                 sodipodi:nodetypes="czcczcc" /></g></g></g></g><g
         inkscape:groupmode="layer"
         id="layer20"
         inkscape:label="cabeza"
         inkscape:transform-center-y="-28.266077"
         transform="rotate(6.7027325,28.91097,32.977513)"
         inkscape:transform-center-x="-6.0968827"><g
           inkscape:groupmode="layer"
           id="layer31"
           inkscape:label="orejas"><g
             inkscape:groupmode="layer"
             id="layer32"
             inkscape:label="iz"
             transform="rotate(-17.295098,29.185841,19.183589)"><path
               style="fill:#f1e0c7;fill-opacity:1;stroke-width:0.542283;stroke-linecap:round;stroke-linejoin:round"
               d="m 28.249968,15.955678 c 0,0 -1.10112,-1.368509 -2.090585,-2.188478 -0.989457,-0.819968 -2.364351,-1.477575 -2.971864,-1.657495 -0.607513,-0.17992 -2.564006,-0.359606 -2.832297,-0.156218 -0.2683,0.203392 -0.356812,0.924056 -0.473016,1.68905 -0.116213,0.764996 -0.301887,2.826237 0.856834,4.809706 1.158737,1.98347 4.069621,3.431027 4.069621,3.431027 z"
               id="path43"
               sodipodi:nodetypes="czzzzzcc"
               inkscape:label="oreja" /><path
               style="fill:#e6b69e;fill-opacity:1;stroke-width:0.542283;stroke-linecap:round;stroke-linejoin:round"
               d="m 20.642396,13.169224 c 0.0271,-0.235796 0.1852,-0.387422 0.361538,-0.502863 0.176338,-0.115444 0.741219,-0.05958 1.145547,0.0284 0.404338,0.08798 1.822444,0.209939 3.19139,1.434983 1.699877,1.521175 2.386637,2.755152 2.386637,2.755152 l -2.318241,3.935786 c 0,0 -2.850943,-2.033061 -3.677973,-3.095596 -0.827039,-1.062536 -1.191867,-2.6324 -1.155773,-3.224329 0.02472,-0.497459 0.01302,-0.836663 0.06679,-1.331526 z"
               id="path44"
               sodipodi:nodetypes="zzzscczzzz"
               inkscape:label="adentro" /><path
               style="fill:#6f604d;fill-opacity:1;stroke-width:0.849438;stroke-linecap:round;stroke-linejoin:round"
               d="m 27.397341,17.171692 c 0,0 -0.958871,-1.282266 -1.406192,-1.676454 -0.447304,-0.394186 -1.966612,-0.981918 -1.966612,-0.981918 0,0 0.174569,0.712567 0.269725,1.05546 0.09531,0.342863 0.145541,0.530414 0.145541,0.530414 0,0 -0.467736,-0.0927 -0.899977,-0.203376 -0.43224,-0.110687 -1.570036,-0.04626 -1.570036,-0.04626 0,0 0.598715,0.849073 0.83114,1.154522 0.232442,0.305452 0.573654,0.570401 0.573654,0.570401 0,0 -0.184407,0.07976 -0.427629,0.207267 -0.243231,0.12751 -0.417449,0.44598 -0.417449,0.44598 -0.0035,0.0016 1.326119,1.047709 2.155507,1.353899 0.829379,0.30619 1.269882,0.311639 1.269882,0.311639 z"
               id="path45"
               sodipodi:nodetypes="czczczczczczcc"
               inkscape:label="line" /><path
               style="fill:#e9e5df;fill-opacity:1;stroke-width:0.778383;stroke-linecap:round;stroke-linejoin:round"
               d="m 27.512823,17.254395 c 0,0 -1.222823,-1.264617 -1.632722,-1.625829 -0.409907,-0.361214 -1.588734,-0.792606 -1.588734,-0.792606 0,0 0.12041,0.581334 0.20769,0.89553 0.08737,0.314181 0.11982,0.536951 0.11982,0.536951 0,0 -0.629062,-0.07647 -1.025155,-0.177899 -0.396075,-0.101425 -1.177393,-0.06121 -1.177393,-0.06121 0,0 0.408808,0.629123 0.621787,0.909026 0.213005,0.279901 0.661418,0.559933 0.661418,0.559933 0,0 -0.208948,0.126487 -0.431827,0.243331 -0.222887,0.11684 -0.439473,0.365954 -0.439473,0.365954 -0.0035,0.0015 0.563157,0.690784 1.319889,1.129412 0.756724,0.438631 1.766876,0.769131 1.766876,0.769131 z"
               id="path46"
               sodipodi:nodetypes="czczczczczczcc"
               inkscape:label="pelo" /></g><g
             inkscape:groupmode="layer"
             id="layer33"
             inkscape:label="de"
             transform="rotate(23.065519,36.374599,18.34963)"><path
               style="fill:#f1e0c7;fill-opacity:1;stroke-width:0.542283;stroke-linecap:round;stroke-linejoin:round"
               d="m 36.192671,15.955678 c 0,0 1.10112,-1.368509 2.090577,-2.188478 0.989457,-0.819968 2.36435,-1.477575 2.971863,-1.657495 0.607513,-0.17992 2.564006,-0.359606 2.832306,-0.156218 0.2683,0.203392 0.356804,0.924056 0.473017,1.68905 0.116203,0.764996 0.301877,2.826237 -0.856842,4.809706 -1.158739,1.98347 -4.069614,3.431027 -4.069614,3.431027 z"
               id="path37"
               sodipodi:nodetypes="czzzzzcc"
               inkscape:label="oreja" /><path
               style="fill:#e6b69e;fill-opacity:1;stroke-width:0.542283;stroke-linecap:round;stroke-linejoin:round"
               d="m 43.800234,13.169224 c -0.02711,-0.235796 -0.1852,-0.387422 -0.361529,-0.502863 -0.176338,-0.115444 -0.741228,-0.05958 -1.145556,0.0284 -0.404329,0.08798 -1.822436,0.209939 -3.191389,1.434983 -1.69987,1.521175 -2.386638,2.755152 -2.386638,2.755152 l 2.318241,3.935786 c 0,0 2.850943,-2.033061 3.677982,-3.095596 0.827031,-1.062536 1.191859,-2.6324 1.155772,-3.224329 -0.02472,-0.497459 -0.01302,-0.836663 -0.06687,-1.331526 z"
               id="path38"
               sodipodi:nodetypes="zzzscczzzz"
               inkscape:label="adentro" /><path
               style="fill:#6f604d;fill-opacity:1;stroke-width:0.849438;stroke-linecap:round;stroke-linejoin:round"
               d="m 37.04529,17.171692 c 0,0 0.958878,-1.282266 1.406192,-1.676454 0.447305,-0.394186 1.966621,-0.981918 1.966621,-0.981918 0,0 -0.17457,0.712567 -0.269735,1.05546 -0.0953,0.342863 -0.145532,0.530414 -0.145532,0.530414 0,0 0.467737,-0.0927 0.899968,-0.203376 0.43224,-0.110687 1.570036,-0.04626 1.570036,-0.04626 0,0 -0.598706,0.849073 -0.83114,1.154522 -0.232442,0.305452 -0.573654,0.570401 -0.573654,0.570401 0,0 0.184407,0.07976 0.427639,0.207267 0.24323,0.12751 0.417439,0.44598 0.417439,0.44598 0.0035,0.0016 -1.326109,1.047709 -2.155498,1.353899 -0.829388,0.30619 -1.269882,0.311639 -1.269882,0.311639 z"
               id="path39"
               sodipodi:nodetypes="czczczczczczcc"
               inkscape:label="line_pelo" /><path
               style="fill:#e9e5df;fill-opacity:1;stroke-width:0.778383;stroke-linecap:round;stroke-linejoin:round"
               d="m 36.929816,17.254395 c 0,0 1.222824,-1.264617 1.632722,-1.625829 0.409898,-0.361214 1.588725,-0.792606 1.588725,-0.792606 0,0 -0.12041,0.581334 -0.20769,0.89553 -0.08737,0.314181 -0.119812,0.536951 -0.119812,0.536951 0,0 0.629064,-0.07647 1.025156,-0.177899 0.396075,-0.101425 1.177392,-0.06121 1.177392,-0.06121 0,0 -0.408807,0.629123 -0.621794,0.909026 -0.212996,0.279901 -0.661419,0.559933 -0.661419,0.559933 0,0 0.208958,0.126487 0.431835,0.243331 0.222887,0.11684 0.439473,0.365954 0.439473,0.365954 0.0035,0.0015 -0.563164,0.690784 -1.319897,1.129412 -0.756723,0.438631 -1.766867,0.769131 -1.766867,0.769131 z"
               id="path40"
               sodipodi:nodetypes="czczczczczczcc"
               inkscape:label="pelo" /></g></g><path
           style="fill:#f1e0c7;fill-opacity:1;stroke-width:0.765"
           d="m 27.89395,34.285375 c 0,0 0.29375,-0.764729 0.27786,-1.143943 -0.0159,-0.379214 -0.34763,-1.098248 -0.34763,-1.098248 0,0 2.31717,0.586831 3.64374,0.581504 1.32657,-0.0053 4.21075,-0.706718 4.21075,-0.706718 0,0 -0.31692,0.783341 -0.33282,1.188199 -0.0159,0.404858 0.23151,1.17449 0.23151,1.17449 0,0 -2.81135,-0.594283 -4.10097,-0.587753 -1.28962,0.0065 -3.58244,0.592469 -3.58244,0.592469 z"
           id="path1339"
           sodipodi:nodetypes="czczczczc"
           inkscape:label="cuello" /><path
           style="fill:#f1e0c7;fill-opacity:1;stroke-width:0.724737;stroke-linecap:round;stroke-linejoin:round"
           d="m 22.456877,31.012078 c 0.868246,1.28812 2.186964,0.292726 2.18692,0.290453 1.948978,1.473504 4.204921,2.431565 7.235018,2.363153 1.974003,-0.04456 5.002587,-1.501539 6.578642,-2.440713 0.04576,-0.04338 1.035371,0.731995 2.346328,0.23891 1.310949,-0.493085 1.175739,-3.234731 1.175739,-3.234731 0,0 1.414269,1.582002 1.721806,-0.363568 0.307545,-1.945571 -1.984747,-4.505921 -1.984747,-4.505921 0,0 1.640359,0.920839 1.451393,-0.436062 -0.188973,-1.3569 -1.633795,-2.721279 -2.117027,-3.157998 -0.415653,-0.375651 -1.62401,-1.565605 -1.974803,-1.912095 -1.982276,-1.957929 -2.692802,-2.634239 -6.672619,-2.676698 -3.979825,-0.04245 -5.691812,1.251876 -7.674289,3.465413 -0.631668,0.705282 -3.235138,1.887668 -3.374273,3.57195 -0.139126,1.684283 1.573547,1.190267 1.573547,1.190267 0,0 -2.007952,1.534765 -1.937786,3.423957 0.07013,1.889191 1.855319,0.880035 1.855319,0.880035 0,0 -1.257423,2.015531 -0.389168,3.303648 z"
           id="path17"
           sodipodi:nodetypes="zcsczczczsszszczcz"
           inkscape:label="head" /><path
           style="fill:#e9e5df;fill-opacity:1;stroke-width:0.724737;stroke-linecap:round;stroke-linejoin:round"
           d="m 21.052992,27.246363 c 1.683749,-0.549402 7.324735,-1.023199 11.164053,-1.01562 3.839326,0.0075 9.730386,0.793945 11.516128,1.442457 0.08837,0.550364 0.04295,0.824806 -0.456217,1.09288 -0.499202,0.268073 -0.876068,-0.246976 -1.298734,-0.531575 -0.06018,1.829618 -0.215162,2.608238 -1.014817,3.153202 -0.799656,0.544965 -2.149338,0.08676 -2.488737,-0.157056 -1.716668,0.928062 -3.535636,2.448259 -6.656269,2.478794 -3.120642,0.03054 -5.79413,-1.067047 -7.17674,-2.406307 -0.622306,0.283858 -1.355737,0.67956 -2.226376,-0.118994 -0.870657,-0.798551 -0.36336,-2.37783 0.438347,-3.493296 -0.872664,0.516194 -1.813824,0.408615 -1.800638,-0.444485 z"
           id="path21"
           sodipodi:nodetypes="czczczczczcc"
           inkscape:label="head_white" /><path
           style="fill:#efdabe;fill-opacity:1;stroke-width:0.499166;stroke-linecap:round;stroke-linejoin:round"
           d="m 37.143463,16.6245 c 0,0 -0.05852,-1.05148 -0.467111,-1.769035 -0.408623,-0.717556 -1.620658,-2.154193 -1.620658,-2.154193 0,0 -0.204162,0.982527 -0.15346,1.496082 0.05077,0.513552 0.341748,1.139879 0.341748,1.139879 0,0 -1.059429,-1.8551 -1.948917,-2.470274 -0.889479,-0.615178 -3.323009,-1.107101 -3.323009,-1.107101 0,0 -0.138528,1.046057 0.147186,1.761842 0.285705,0.715788 0.888362,1.109472 0.888362,1.109472 0,0 -1.823949,0.04425 -2.631224,0.254608 -0.807285,0.210345 -2.169991,1.063374 -2.169991,1.063374 0,0 0.931891,1.429384 1.681645,1.870273 0.749773,0.44089 2.719473,0.81276 2.719473,0.81276 0,0 2.550649,0.04938 3.735099,-0.226327 1.184459,-0.275711 2.800857,-1.78136 2.800857,-1.78136 z"
           id="path52"
           sodipodi:nodetypes="czczczczczczczc"
           inkscape:label="cabello" /><g
           inkscape:groupmode="layer"
           id="layer21"
           inkscape:label="ojos"
           transform="translate(0.09879893,0.84068925)"><g
             inkscape:groupmode="layer"
             id="layer22"
             inkscape:label="iz"><path
               style="fill:#e9e9e9;fill-opacity:1;stroke-width:0.724737;stroke-linecap:round;stroke-linejoin:round"
               d="m 29.46056,25.522231 c -0.02165,-1.39912 -1.545547,-2.944496 -2.944497,-2.944496 -1.398941,0 -2.990746,1.569992 -2.990746,2.990745 0,1.420751 1.585249,2.365231 3.006154,2.343264 1.420931,-0.02196 2.950718,-0.990394 2.929089,-2.389513 z"
               id="path9"
               sodipodi:nodetypes="zzzzz"
               inkscape:label="bg" /><g
               inkscape:groupmode="layer"
               id="layer25"
               inkscape:label="pup 1"
               transform="translate(0.05986077,0.34562685)"><path
                 style="fill:#2c1f0d;fill-opacity:1;stroke-width:1.20624;stroke-linecap:round;stroke-linejoin:round"
                 d="m 27.770088,24.41989 c 0.90897,0.0157 1.475365,0.773824 1.475365,1.475364 0,0.701542 -0.634924,1.415217 -1.489417,1.396563 -0.854492,-0.01864 -1.492241,-0.749358 -1.474149,-1.447881 0.01813,-0.698525 0.579224,-1.439729 1.488201,-1.424046 z"
                 id="path10"
                 sodipodi:nodetypes="zzzzz"
                 inkscape:label="line" /><path
                 style="fill:#563d18;fill-opacity:1;stroke-width:1.15171;stroke-linecap:round;stroke-linejoin:round"
                 d="m 27.76979,24.484804 c 0.867885,0.01498 1.408673,0.738843 1.408673,1.408671 0,0.66983 -0.606228,1.351245 -1.422092,1.333433 -0.815873,-0.01782 -1.424777,-0.715483 -1.407504,-1.38243 0.01734,-0.666949 0.553038,-1.374648 1.420923,-1.359674 z"
                 id="path11"
                 sodipodi:nodetypes="zzzzz"
                 inkscape:label="light_brown" /><path
                 style="fill:#2c1f0d;fill-opacity:1;stroke-width:0.9538;stroke-linecap:round;stroke-linejoin:round"
                 d="m 27.768707,24.720451 c 0.72172,0.03107 1.166605,0.611882 1.166605,1.166608 0,0.554726 -0.508407,1.112659 -1.177718,1.104296 -0.669303,-0.0084 -1.179945,-0.592535 -1.165637,-1.144876 0.01434,-0.55234 0.455039,-1.157093 1.17675,-1.126028 z"
                 id="path12"
                 sodipodi:nodetypes="zzzzz"
                 inkscape:label="brown" /><path
                 style="fill:#f0e1cd;fill-opacity:1;stroke-width:1.1649;stroke-linecap:round;stroke-linejoin:round"
                 d="m 28.484091,24.909598 c 0.124951,-0.0053 0.275674,0.150827 0.275674,0.275669 0,0.12484 -0.13426,0.253988 -0.253992,0.253988 -0.119732,0 -0.24888,-0.134149 -0.253983,-0.253988 -0.0053,-0.11984 0.107369,-0.270346 0.232301,-0.275669 z"
                 id="path13"
                 sodipodi:nodetypes="zzzzz"
                 inkscape:label="br2" /><path
                 style="fill:#f0e1cd;fill-opacity:1;stroke-width:0.707787;stroke-linecap:round;stroke-linejoin:round"
                 d="m 27.237088,26.539698 c 0.07585,-0.0033 0.167486,0.09164 0.167486,0.167494 0,0.07585 -0.08157,0.154322 -0.154313,0.154322 -0.07277,0 -0.151217,-0.0815 -0.154323,-0.154322 -0.0035,-0.07282 0.0652,-0.164259 0.14115,-0.167494 z"
                 id="path14"
                 sodipodi:nodetypes="zzzzz"
                 inkscape:label="br1" /></g><path
               style="fill:#2c1f0d;fill-opacity:1;stroke-width:0.724737;stroke-linecap:round;stroke-linejoin:round"
               d="m 29.4495,25.756679 c 0,0 -0.244709,-1.241213 -0.561519,-1.732666 -0.31682,-0.491452 -0.757033,-0.906215 -1.242772,-1.141236 -0.485749,-0.235021 -1.007768,-0.341793 -1.516694,-0.266913 -0.508944,0.07487 -0.998626,0.392751 -1.376434,0.691259 -0.377789,0.298506 -0.663283,0.645519 -0.869531,1.031085 -0.206247,0.385566 -0.315604,0.730262 -0.342521,0.990059 -0.02684,0.259795 0.0071,0.525411 0.0071,0.525411 0,0 -0.156011,-0.126312 -0.160253,-0.533525 -4.13e-4,-0.04006 -0.0018,-0.08617 -4.05e-4,-0.123531 0.01083,-0.342296 0.0993,-0.605384 0.281139,-0.977429 0.201688,-0.412648 0.525565,-0.82787 0.92883,-1.141584 0.403263,-0.313716 0.957796,-0.623857 1.495276,-0.693313 0.537471,-0.06946 1.129498,0.07083 1.637033,0.319004 0.507536,0.248182 1.036392,0.672041 1.339441,1.15835 0.303057,0.486308 0.379189,0.974865 0.414202,1.290068 0.03502,0.315202 -0.03282,0.604961 -0.03282,0.604961 z"
               id="path15"
               sodipodi:nodetypes="czzzzzzcssszzzzzcc"
               inkscape:label="line" /></g><g
             inkscape:groupmode="layer"
             id="layer23"
             inkscape:label="de"><path
               style="fill:#e9e9e9;fill-opacity:1;stroke-width:0.724737;stroke-linecap:round;stroke-linejoin:round"
               d="m 34.771133,25.522231 c 0.02165,-1.39912 1.545547,-2.944496 2.944497,-2.944496 1.39896,0 2.990756,1.569992 2.990756,2.990745 0,1.420751 -1.58525,2.365231 -3.006163,2.343264 -1.420932,-0.02196 -2.95071,-0.990394 -2.92909,-2.389513 z"
               id="path2"
               sodipodi:nodetypes="zzzzz"
               inkscape:label="bg" /><g
               inkscape:groupmode="layer"
               id="layer24"
               inkscape:label="pup"
               transform="translate(0.18049133,0.44992242)"><path
                 style="fill:#2c1f0d;fill-opacity:1;stroke-width:1.20624;stroke-linecap:round;stroke-linejoin:round"
                 d="m 36.461613,24.41989 c -0.908978,0.0157 -1.475363,0.773824 -1.475363,1.475364 0,0.701542 0.634914,1.415217 1.489415,1.396563 0.854494,-0.01864 1.492241,-0.749358 1.474151,-1.447881 -0.01813,-0.698525 -0.579234,-1.439729 -1.488203,-1.424046 z"
                 id="path7"
                 sodipodi:nodetypes="zzzzz"
                 inkscape:label="line" /><path
                 style="fill:#563d18;fill-opacity:1;stroke-width:1.15171;stroke-linecap:round;stroke-linejoin:round"
                 d="m 36.461912,24.484804 c -0.867885,0.01498 -1.408665,0.738843 -1.408665,1.408671 0,0.66983 0.606211,1.351245 1.422084,1.333433 0.815864,-0.01782 1.424786,-0.715483 1.407513,-1.38243 -0.01734,-0.666949 -0.553046,-1.374648 -1.420932,-1.359674 z"
                 id="path3"
                 sodipodi:nodetypes="zzzzz"
                 inkscape:label="light_brown" /><path
                 style="fill:#2c1f0d;fill-opacity:1;stroke-width:0.9538;stroke-linecap:round;stroke-linejoin:round"
                 d="m 36.462986,24.720451 c -0.72172,0.03107 -1.166604,0.611882 -1.166604,1.166608 0,0.554726 0.508415,1.112659 1.177718,1.104296 0.669302,-0.0084 1.179944,-0.592535 1.165645,-1.144876 -0.01434,-0.55234 -0.455039,-1.157093 -1.176759,-1.126028 z"
                 id="path4"
                 sodipodi:nodetypes="zzzzz"
                 inkscape:label="brown" /><path
                 style="fill:#f0e1cd;fill-opacity:1;stroke-width:1.1649;stroke-linecap:round;stroke-linejoin:round"
                 d="m 35.747602,24.909598 c -0.124942,-0.0053 -0.275665,0.150827 -0.275665,0.275669 0,0.12484 0.134251,0.253988 0.253983,0.253988 0.119732,0 0.24888,-0.134149 0.253984,-0.253988 0.0053,-0.11984 -0.10737,-0.270346 -0.232302,-0.275669 z"
                 id="path5"
                 sodipodi:nodetypes="zzzzz"
                 inkscape:label="br2" /><path
                 style="fill:#f0e1cd;fill-opacity:1;stroke-width:0.707787;stroke-linecap:round;stroke-linejoin:round"
                 d="m 36.994606,26.539698 c -0.07585,-0.0033 -0.167487,0.09164 -0.167487,0.167494 0,0.07585 0.08157,0.154322 0.154314,0.154322 0.07277,0 0.151233,-0.0815 0.154331,-0.154322 0.0035,-0.07282 -0.0652,-0.164259 -0.141158,-0.167494 z"
                 id="path6"
                 sodipodi:nodetypes="zzzzz"
                 inkscape:label="br1" /></g><path
               style="fill:#2c1f0d;fill-opacity:1;stroke-width:0.724737;stroke-linecap:round;stroke-linejoin:round"
               d="m 34.782193,25.756679 c 0,0 0.244718,-1.241213 0.561529,-1.732666 0.316819,-0.491452 0.757022,-0.906215 1.242771,-1.141236 0.485749,-0.235021 1.007769,-0.341793 1.516694,-0.266913 0.508935,0.07487 0.998626,0.392751 1.376425,0.691259 0.377798,0.298506 0.663292,0.645519 0.86953,1.031085 0.206248,0.385566 0.315605,0.730262 0.342522,0.990059 0.02684,0.259795 -0.0071,0.525411 -0.0071,0.525411 0,0 0.156004,-0.126312 0.160245,-0.533525 4.13e-4,-0.04006 0.0018,-0.08617 4.13e-4,-0.123531 -0.01082,-0.342296 -0.09929,-0.605384 -0.281137,-0.977429 -0.201699,-0.412648 -0.525567,-0.82787 -0.92883,-1.141584 -0.403264,-0.313716 -0.957797,-0.623857 -1.495267,-0.693313 -0.537489,-0.06946 -1.129516,0.07083 -1.637052,0.319004 -0.507527,0.248182 -1.036384,0.672041 -1.339432,1.15835 -0.303057,0.486308 -0.379197,0.974865 -0.414202,1.290068 -0.03502,0.315202 0.03283,0.604961 0.03283,0.604961 z"
               id="path8"
               sodipodi:nodetypes="czzzzzzcssszzzzzcc"
               inkscape:label="line" /></g></g><g
           inkscape:groupmode="layer"
           id="layer26"
           inkscape:label="cejas"
           transform="translate(0.13948376,1.1868801)"><g
             inkscape:groupmode="layer"
             id="layer27"
             inkscape:label="iz "><path
               style="fill:#2c1f0d;fill-opacity:1;stroke-width:0.724737;stroke-linecap:round;stroke-linejoin:round"
               d="m 28.237966,20.956606 c 3.7e-4,0.465798 -0.806757,0.464512 -1.225666,0.502151 -0.418908,0.03764 -1.078857,0.158775 -1.172781,-0.249497 -0.09391,-0.408271 0.577288,-0.744336 1.037061,-0.807855 0.459773,-0.06351 1.361008,0.08941 1.361386,0.555201 z"
               id="path19"
               sodipodi:nodetypes="zzzzz"
               inkscape:label="iz" /></g><g
             inkscape:groupmode="layer"
             id="layer28"
             inkscape:label="de"><path
               style="fill:#2c1f0d;fill-opacity:1;stroke-width:0.724737;stroke-linecap:round;stroke-linejoin:round"
               d="m 36.455067,20.588924 c -0.155641,0.439024 0.605742,0.706886 0.988141,0.882023 0.382398,0.175139 0.964218,0.509358 1.188868,0.155748 0.224644,-0.35361 -0.296123,-0.894208 -0.708413,-1.107365 -0.412296,-0.213161 -1.312959,-0.369426 -1.468596,0.06959 z"
               id="path18"
               sodipodi:nodetypes="zzzzz"
               inkscape:label="de" /></g></g><g
           inkscape:groupmode="layer"
           id="layer29"
           inkscape:label="boca"
           transform="translate(0.06674273,0.56792005)"><path
             style="fill:#6f604d;fill-opacity:1;stroke-width:0.878466;stroke-linecap:round;stroke-linejoin:round"
             d="m 30.007217,30.556341 c 0,0 0.56275,-0.127617 0.958377,-0.130871 0.395634,-0.0033 0.643674,-0.02348 1.029647,-0.01107 0.385982,0.01241 0.386607,-0.005 0.836015,0.02036 0.449416,0.02536 1.113257,0.221137 1.113257,0.221137 0,0 -0.585853,-0.502794 -1.009717,-0.552491 -0.423844,-0.04969 -0.681215,-0.06518 -1.088737,-0.05218 -0.407523,0.01299 -0.484382,0.0472 -0.859752,0.105021 -0.375388,0.05781 -0.97909,0.400098 -0.97909,0.400098 z"
             id="path59"
             sodipodi:nodetypes="czzzczzzc" /></g><g
           inkscape:groupmode="layer"
           id="layer30"
           inkscape:label="nariz"
           transform="translate(0.06575703,0.5595326)"><path
             style="fill:#2d200d;stroke-width:0.396668;stroke-linecap:round;stroke-linejoin:round"
             d="m 30.356031,27.626294 c 0.06565,-0.163548 0.256254,-0.221059 0.364741,-0.26444 0.40974,-0.163815 0.972386,-0.262175 1.386086,-0.258698 0.453191,0.0038 1.000667,0.163468 1.41098,0.294815 0.08104,0.02595 0.267357,0.131023 0.312692,0.254511 0.04532,0.123488 -0.01294,0.248824 -0.0879,0.358685 -0.384618,0.563643 -0.841664,1.285229 -1.715348,1.306892 -0.809343,0.02007 -1.213637,-0.587442 -1.536801,-1.198435 -0.06318,-0.119451 -0.200043,-0.329781 -0.134436,-0.49333 z"
             id="path1"
             sodipodi:nodetypes="zssszsssz" /><path
             style="fill:#38280f;fill-opacity:1;stroke-width:0.338344;stroke-linecap:round;stroke-linejoin:round"
             d="m 30.611352,27.857402 c 0.05596,-0.139501 0.218576,-0.188556 0.311127,-0.225559 0.349483,-0.139728 0.829397,-0.223627 1.182276,-0.220662 0.386572,0.0033 0.853543,0.139434 1.203517,0.251468 0.06908,0.02213 0.228052,0.111758 0.266716,0.21709 0.03863,0.10533 -0.01099,0.21224 -0.07496,0.305947 -0.328074,0.480767 -0.707616,0.960526 -1.452838,0.979003 -0.690342,0.01712 -1.04549,-0.365337 -1.321138,-0.886493 -0.05394,-0.101887 -0.170637,-0.281293 -0.114682,-0.420794 z"
             id="path16"
             sodipodi:nodetypes="zssszsssz" /></g><path
           style="fill:#a78a8a;fill-opacity:1;stroke-width:0.108248;stroke-linecap:round"
           d="m 34.78471,62.524772 c 0,0 -0.687136,-1.029642 -0.95549,-1.264698 -0.268354,-0.235056 -0.393889,-0.618578 -0.458333,-0.82911 -0.06444,-0.210529 0.103674,-0.265402 0.0763,-0.555571 -0.02738,-0.290169 -0.377778,-0.423477 -0.427058,-0.807512 -0.04928,-0.384035 -0.52478,-0.584878 -0.534922,-0.997954 -0.01014,-0.413076 -0.581148,-0.816011 -0.495507,-1.22177 0.08564,-0.405759 0.399037,-1.319797 0.597066,-1.656331 0.198029,-0.336534 0.689449,-0.811467 0.93219,-0.987245 0.242741,-0.175778 0.590636,-6.72e-4 0.89354,-0.174749 0.302904,-0.174077 0.573481,-0.571938 1.077828,-0.692966 0.50435,-0.121028 1.640306,1.391577 1.684056,1.815139 0.04375,0.423562 0.08924,0.669015 0.08879,1.038911 -4.49e-4,0.369896 0.38922,0.441029 0.48375,0.833295 0.09453,0.392266 0.179516,0.780089 0.198035,1.183332 0.01852,0.403243 -0.108957,1.103061 -0.211558,1.404238 -0.102601,0.301177 0.05641,0.608726 -0.06025,0.946298 -0.116665,0.337571 0.06247,0.543829 0.03022,0.926829 -0.03225,0.383 -0.173257,0.469775 -0.322862,1.759762 -0.0682,0.588089 0.248687,2.114076 0.316642,3.317352 0.08111,1.436138 -0.07651,2.523059 -0.07651,2.523059 l -0.633809,-3.78417 -0.531609,-3.202067 -0.617649,-4.144475 c 0,0 -0.302059,-0.537279 -0.584036,-0.50691 -0.281978,0.03037 -0.462266,0.630453 -0.462266,0.630453 z"
           id="path3255"
           sodipodi:nodetypes="czzzzzzzzzzzzzzzzzsscccczcc" /></g></g></g></svg>
